<?xml version="1.0" standalone="no"?>
<!DOCTYPE svg PUBLIC "-//W3C//DTD SVG 20010904//EN"
 "http://www.w3.org/TR/2001/REC-SVG-20010904/DTD/svg10.dtd">
<svg version="1.0" xmlns="http://www.w3.org/2000/svg"
 width="432.000000pt" height="432.000000pt" viewBox="0 0 432.000000 432.000000"
 preserveAspectRatio="xMidYMid meet">
<metadata>
Created by potrace 1.11, written by Peter Selinger 2001-2013
</metadata>
<g transform="translate(0.000000,432.000000) scale(0.100000,-0.100000)"
fill="#000000" stroke="none">
<path d="M930 3357 l0 -197 120 0 c66 0 120 3 120 6 0 5 -226 371 -236 383 -2
2 -4 -84 -4 -192z"/>
<path d="M3263 3355 l-122 -195 124 0 125 0 0 195 c0 107 -1 195 -2 195 -2 0
-58 -88 -125 -195z"/>
<path d="M1300 2554 c-49 -78 -63 -135 -58 -235 5 -110 18 -130 118 -181 147
-75 315 -87 488 -35 46 14 85 27 88 29 6 7 -34 117 -57 157 -41 69 -94 132
-151 177 -99 77 -246 134 -350 134 -47 0 -50 -2 -78 -46z"/>
<path d="M2810 2584 c-141 -37 -292 -144 -367 -262 -35 -54 -88 -181 -79 -189
18 -18 185 -55 271 -60 118 -6 222 17 320 71 86 47 98 68 103 175 5 100 -9
157 -58 235 -29 45 -30 46 -82 45 -29 0 -78 -7 -108 -15z"/>
<path d="M2099 1839 c46 -37 51 -45 52 -82 l1 -42 12 43 c8 31 24 55 56 83
l45 38 -109 1 -109 0 52 -41z"/>
<path d="M1979 1746 c24 -29 111 -67 166 -73 65 -7 136 16 185 58 l35 30 -55
-33 c-92 -55 -210 -51 -305 10 -26 16 -35 19 -26 8z"/>
<path d="M2954 1175 c-28 -13 -93 -38 -145 -55 -438 -147 -848 -147 -1288 -1
l-143 48 -15 -35 c-22 -52 -46 -159 -40 -174 11 -29 81 -40 287 -45 113 -2
262 -1 333 4 70 5 127 7 127 4 0 -2 -14 -19 -31 -39 -17 -20 -38 -50 -45 -68
-15 -36 -18 -180 -6 -249 l7 -40 44 55 c48 60 107 175 117 227 l6 33 33 -68
c35 -70 79 -131 89 -121 11 10 18 118 12 163 -4 26 -18 59 -32 76 l-25 29 298
-2 c164 -1 331 2 370 6 l73 8 105 -212 c58 -117 105 -219 105 -226 0 -21 10
-16 104 51 132 95 229 180 319 280 93 103 97 87 -48 166 -121 65 -289 133
-436 175 -66 19 -121 35 -122 34 -1 0 -25 -11 -53 -24z"/>
<path d="M2864 500 c5 -19 58 -154 63 -159 1 -2 5 -2 8 1 3 3 -13 43 -35 89
-22 46 -39 77 -36 69z"/>
</g>
</svg>
