<?xml version="1.0" encoding="UTF-8" standalone="no"?>
<svg
   xmlns:dc="http://purl.org/dc/elements/1.1/"
   xmlns:cc="http://creativecommons.org/ns#"
   xmlns:rdf="http://www.w3.org/1999/02/22-rdf-syntax-ns#"
   xmlns:svg="http://www.w3.org/2000/svg"
   xmlns="http://www.w3.org/2000/svg"
   xmlns:sodipodi="http://sodipodi.sourceforge.net/DTD/sodipodi-0.dtd"
   xmlns:inkscape="http://www.inkscape.org/namespaces/inkscape"
   id="Capa_1"
   data-name="Capa 1"
   viewBox="0 0 85.04 14.32"
   version="1.1"
   sodipodi:docname="easd.svg"
   width="85.040001"
   height="14.32"
   inkscape:version="0.92.1 r15371">
  <metadata
     id="metadata131">
    <rdf:RDF>
      <cc:Work
         rdf:about="">
        <dc:format>image/svg+xml</dc:format>
        <dc:type
           rdf:resource="http://purl.org/dc/dcmitype/StillImage" />
        <dc:title>easd [Convertido]</dc:title>
      </cc:Work>
    </rdf:RDF>
  </metadata>
  <sodipodi:namedview
     pagecolor="#ffffff"
     bordercolor="#666666"
     borderopacity="1"
     objecttolerance="10"
     gridtolerance="10"
     guidetolerance="10"
     inkscape:pageopacity="0"
     inkscape:pageshadow="2"
     inkscape:window-width="1920"
     inkscape:window-height="1017"
     id="namedview129"
     showgrid="false"
     fit-margin-top="3"
     fit-margin-left="0"
     fit-margin-right="0"
     fit-margin-bottom="0"
     inkscape:zoom="3.8922859"
     inkscape:cx="4.4960726"
     inkscape:cy="5.6599998"
     inkscape:window-x="-8"
     inkscape:window-y="-8"
     inkscape:window-maximized="1"
     inkscape:current-layer="Capa_1" />
  <defs
     id="defs4">
    <style
       id="style2">.cls-1{fill:#4c565c;}.cls-2{fill:none;stroke:#dd052b;stroke-miterlimit:10;stroke-width:0.59px;}</style>
  </defs>
  <title
     id="title6">easd [Convertido]</title>
  <path
     class="cls-1"
     d="m 49.27,12.43 h 0.44 v -2.12 h -0.44 z m 0,-2.59 h 0.46 V 9.38 h -0.46 z"
     id="path8"
     inkscape:connector-curvature="0"
     style="fill:#4c565c" />
  <rect
     class="cls-1"
     x="49.27"
     y="10.27"
     width="0.44"
     height="2.1600001"
     id="rect10"
     style="fill:#4c565c" />
  <rect
     class="cls-1"
     x="49.25"
     y="9.3800011"
     width="0.46000001"
     height="0.46000001"
     id="rect12"
     style="fill:#4c565c" />
  <polygon
     class="cls-1"
     points="69.87,9.44 70.88,6.39 70.39,6.39 69.69,8.61 68.99,6.39 68.51,6.39 69.51,9.44 "
     id="polygon14"
     style="fill:#4c565c"
     transform="translate(0,3)" />
  <polygon
     class="cls-1"
     points="75.94,6.88 75.62,6.18 75.14,6.18 75.61,6.88 "
     id="polygon16"
     style="fill:#4c565c"
     transform="translate(0,3)" />
  <path
     class="cls-1"
     d="m 81.93,12.43 h 0.44 v -2.12 h -0.44 z m 0,-2.59 h 0.46 V 9.38 h -0.46 z"
     id="path18"
     inkscape:connector-curvature="0"
     style="fill:#4c565c" />
  <rect
     class="cls-1"
     x="81.919998"
     y="10.27"
     width="0.44"
     height="2.1600001"
     id="rect20"
     style="fill:#4c565c" />
  <rect
     class="cls-1"
     x="81.910004"
     y="9.3800011"
     width="0.46000001"
     height="0.46000001"
     id="rect22"
     style="fill:#4c565c" />
  <polygon
     class="cls-1"
     points="40.94,2.89 40.94,2 42.42,2 42.42,1.58 40.48,1.58 40.48,4.62 42.42,4.62 42.42,4.21 40.94,4.21 40.94,3.29 42.21,3.29 42.21,2.89 "
     id="polygon24"
     style="fill:#4c565c"
     transform="translate(0,3)" />
  <polygon
     class="cls-1"
     points="57.67,2.03 57.67,1.58 57.2,1.58 57.2,2.42 "
     id="polygon26"
     style="fill:#4c565c"
     transform="translate(0,3)" />
  <path
     class="cls-1"
     d="m 59.57,6.62 h -0.94 l 0.48,-1.31 z m 0.83,1 -1.12,-3 h -0.37 l -1.11,3 h 0.49 L 58.5,7.01 h 1.2 l 0.21,0.61 z"
     id="path28"
     inkscape:connector-curvature="0"
     style="fill:#4c565c" />
  <path
     class="cls-1"
     d="M 65.57,7.62 H 66 V 5.45 h -0.43 z m 0,-2.59 h 0.46 V 4.57 h -0.46 z"
     id="path30"
     inkscape:connector-curvature="0"
     style="fill:#4c565c" />
  <rect
     class="cls-1"
     x="65.559998"
     y="5.46"
     width="0.44"
     height="2.1600001"
     id="rect32"
     style="fill:#4c565c" />
  <rect
     class="cls-1"
     x="65.550003"
     y="4.5699997"
     width="0.46000001"
     height="0.46000001"
     id="rect34"
     style="fill:#4c565c" />
  <path
     class="cls-1"
     d="m 79.91,7.62 h 0.44 V 5.45 h -0.44 z m 0,-2.59 h 0.46 V 4.57 h -0.46 z"
     id="path36"
     inkscape:connector-curvature="0"
     style="fill:#4c565c" />
  <rect
     class="cls-1"
     x="79.910004"
     y="5.46"
     width="0.44"
     height="2.1600001"
     id="rect38"
     style="fill:#4c565c" />
  <rect
     class="cls-1"
     x="79.900002"
     y="4.5699997"
     width="0.46000001"
     height="0.46000001"
     id="rect40"
     style="fill:#4c565c" />
  <line
     class="cls-2"
     x1="37.720001"
     x2="37.720001"
     y2="14.32"
     id="line42"
     y1="3"
     style="fill:none;stroke:#dd052b;stroke-width:0.58999997px;stroke-miterlimit:10" />
  <polygon
     class="cls-1"
     points="5.17,5 0.74,5 0.74,1.14 5.94,1.14 5.94,0.48 0,0.48 0,10.27 5.94,10.27 5.94,9.61 0.74,9.61 0.74,5.66 5.17,5.66 "
     id="polygon44"
     style="fill:#4c565c"
     transform="translate(0,3)" />
  <path
     class="cls-1"
     d="M 11.95,4.47 14,10.23 H 9.9 Z m 3.13,8.84 h 0.8 l -3.6,-9.79 h -0.66 l -3.6,9.79 h 0.81 l 0.86,-2.38 h 4.54 z"
     id="path46"
     inkscape:connector-curvature="0"
     style="fill:#4c565c" />
  <path
     class="cls-1"
     d="M 14,10.23 H 9.9 l 2.05,-5.76 z m 1.88,3 -3.6,-9.79 h -0.66 l -3.6,9.87 h 0.81 l 0.86,-2.38 h 4.54 l 0.85,2.38 z"
     id="path48"
     inkscape:connector-curvature="0"
     style="fill:#4c565c" />
  <path
     class="cls-1"
     d="M 24.45,10.64 A 2.43,2.43 0 0 0 23.6,8.74 3,3 0 0 0 21.83,8.1 l -1,-0.17 a 3.22,3.22 0 0 1 -1.5,-0.62 1.59,1.59 0 0 1 -0.5,-1.28 c 0,-1.25 0.83,-2 2.26,-2 a 3.09,3.09 0 0 1 2.38,0.91 L 23.95,4.45 A 3.82,3.82 0 0 0 21.14,3.4 c -1.89,0 -3,1 -3,2.68 a 2.23,2.23 0 0 0 0.77,1.8 3.3,3.3 0 0 0 1.74,0.71 l 1.14,0.18 a 2.34,2.34 0 0 1 1.42,0.52 1.73,1.73 0 0 1 0.54,1.38 c 0,1.28 -1,2 -2.52,2 a 3.44,3.44 0 0 1 -2.78,-1.15 l -0.52,0.52 a 4.17,4.17 0 0 0 3.22,1.27 c 2,0 3.3,-1 3.3,-2.71"
     id="path50"
     inkscape:connector-curvature="0"
     style="fill:#4c565c" />
  <path
     class="cls-1"
     d="m 32.26,8.37 c 0,1.54 -0.06,2.27 -0.43,2.73 a 1.8,1.8 0 0 1 -1.49,0.63 H 28.83 V 5.1 h 1.5 a 1.77,1.77 0 0 1 1.49,0.63 c 0.37,0.45 0.43,1.1 0.43,2.64 m 2,0 c 0,-1.53 0.12,-2.93 -1,-4.07 a 3.69,3.69 0 0 0 -2.68,-1 h -3.74 v 10.2 h 3.7 a 3.69,3.69 0 0 0 2.68,-1 c 1.15,-1.15 1,-2.63 1,-4.16"
     id="path52"
     inkscape:connector-curvature="0"
     style="fill:#4c565c" />
  <path
     class="cls-1"
     d="m 32.26,8.37 c 0,1.54 -0.06,2.27 -0.43,2.73 a 1.8,1.8 0 0 1 -1.49,0.63 H 28.83 V 5.1 h 1.5 a 1.77,1.77 0 0 1 1.49,0.63 c 0.37,0.45 0.43,1.1 0.43,2.64 m 2,0 c 0,-1.53 0.12,-2.93 -1,-4.07 a 3.69,3.69 0 0 0 -2.68,-1 h -3.74 v 10.2 h 3.7 a 3.69,3.69 0 0 0 2.68,-1 c 1.15,-1.15 1,-2.63 1,-4.16"
     id="path54"
     inkscape:connector-curvature="0"
     style="fill:#4c565c" />
  <path
     class="cls-1"
     d="m 41.67,11.31 c 0,0.38 -0.06,0.72 -0.45,0.72 -0.39,0 -0.45,-0.34 -0.45,-0.72 0,-0.38 0.06,-0.72 0.45,-0.72 0.39,0 0.45,0.33 0.45,0.72 m 0.43,1.08 v -3 h -0.43 v 1.09 a 0.7,0.7 0 0 0 -0.57,-0.24 0.74,0.74 0 0 0 -0.53,0.19 1.88,1.88 0 0 0 0,1.84 0.76,0.76 0 0 0 0.53,0.19 0.68,0.68 0 0 0 0.58,-0.26 v 0.23 z"
     id="path56"
     inkscape:connector-curvature="0"
     style="fill:#4c565c" />
  <path
     class="cls-1"
     d="m 44.17,11.17 h -1 a 0.83,0.83 0 0 1 0.06,-0.29 0.46,0.46 0 0 1 0.43,-0.28 0.47,0.47 0 0 1 0.43,0.28 0.83,0.83 0 0 1 0.06,0.29 m 0.43,0.31 v -0.17 a 0.92,0.92 0 0 0 -0.92,-1 c -0.56,0 -0.92,0.41 -0.92,1.11 0,0.7 0.43,1.11 1,1.11 a 1,1 0 0 0 0.82,-0.34 l -0.28,-0.26 a 0.65,0.65 0 0 1 -0.53,0.22 0.53,0.53 0 0 1 -0.55,-0.6 z"
     id="path58"
     inkscape:connector-curvature="0"
     style="fill:#4c565c" />
  <path
     class="cls-1"
     d="m 48.1,10.89 c 0,0.42 0,0.75 -0.16,0.92 a 0.67,0.67 0 0 1 -0.52,0.21 H 46.83 V 9.8 h 0.56 a 0.67,0.67 0 0 1 0.52,0.21 c 0.16,0.18 0.16,0.46 0.16,0.88 m 0.46,0 A 1.59,1.59 0 0 0 48.23,9.68 1.07,1.07 0 0 0 47.44,9.39 H 46.4 v 3 h 1.07 a 1.11,1.11 0 0 0 0.79,-0.28 1.72,1.72 0 0 0 0.3,-1.26"
     id="path60"
     inkscape:connector-curvature="0"
     style="fill:#4c565c" />
  <path
     class="cls-1"
     d="m 52.08,11.77 c 0,-0.38 -0.24,-0.58 -0.65,-0.61 h -0.34 c -0.23,0 -0.3,-0.12 -0.3,-0.25 0,-0.13 0.13,-0.28 0.39,-0.28 a 0.87,0.87 0 0 1 0.54,0.16 l 0.27,-0.28 a 1.21,1.21 0 0 0 -0.8,-0.24 c -0.45,0 -0.82,0.24 -0.82,0.66 0,0.42 0.24,0.57 0.64,0.6 h 0.35 c 0.21,0 0.29,0.11 0.29,0.26 0,0.15 -0.21,0.3 -0.47,0.3 a 0.85,0.85 0 0 1 -0.63,-0.23 l -0.28,0.29 a 1.18,1.18 0 0 0 0.91,0.31 c 0.51,0 0.9,-0.24 0.9,-0.69"
     id="path62"
     inkscape:connector-curvature="0"
     style="fill:#4c565c" />
  <path
     class="cls-1"
     d="m 54.26,11.77 c 0,-0.38 -0.24,-0.58 -0.65,-0.61 h -0.34 c -0.23,0 -0.3,-0.12 -0.3,-0.25 0,-0.13 0.14,-0.28 0.4,-0.28 a 0.86,0.86 0 0 1 0.53,0.16 l 0.27,-0.28 a 1.19,1.19 0 0 0 -0.8,-0.24 c -0.45,0 -0.82,0.24 -0.82,0.66 0,0.42 0.24,0.57 0.65,0.6 h 0.34 c 0.21,0 0.29,0.11 0.29,0.26 0,0.15 -0.21,0.3 -0.47,0.3 a 0.85,0.85 0 0 1 -0.63,-0.23 l -0.28,0.29 a 1.18,1.18 0 0 0 0.91,0.31 c 0.52,0 0.9,-0.24 0.9,-0.69"
     id="path64"
     inkscape:connector-curvature="0"
     style="fill:#4c565c" />
  <path
     class="cls-1"
     d="m 56.16,11.17 h -1 a 0.65,0.65 0 0 1 0,-0.29 0.47,0.47 0 0 1 0.43,-0.28 0.46,0.46 0 0 1 0.43,0.28 0.65,0.65 0 0 1 0.06,0.29 m 0.43,0.31 v -0.17 a 0.92,0.92 0 0 0 -0.92,-1 c -0.55,0 -0.92,0.41 -0.92,1.11 0,0.7 0.44,1.11 1,1.11 a 1,1 0 0 0 0.81,-0.34 L 56.2,11.93 a 0.65,0.65 0 0 1 -0.52,0.22 0.52,0.52 0 0 1 -0.55,-0.6 z"
     id="path66"
     inkscape:connector-curvature="0"
     style="fill:#4c565c" />
  <path
     class="cls-1"
     d="m 59,12.43 v -1.38 a 0.78,0.78 0 0 0 -0.22,-0.61 0.72,0.72 0 0 0 -0.53,-0.2 0.78,0.78 0 0 0 -0.58,0.24 v -0.17 h -0.43 v 2.16 h 0.44 v -1.36 a 0.43,0.43 0 0 1 0.45,-0.48 c 0.24,0 0.43,0.14 0.43,0.48 v 1.32 z"
     id="path68"
     inkscape:connector-curvature="0"
     style="fill:#4c565c" />
  <path
     class="cls-1"
     d="m 61.38,10.31 h -0.46 l -0.51,1.52 -0.51,-1.52 h -0.46 l 0.75,2 -0.12,0.34 a 0.28,0.28 0 0 1 -0.31,0.23 h -0.11 v 0.43 h 0.18 a 0.61,0.61 0 0 0 0.45,-0.16 0.83,0.83 0 0 0 0.16,-0.27 z"
     id="path70"
     inkscape:connector-curvature="0"
     style="fill:#4c565c" />
  <path
     class="cls-1"
     d="m 64.16,11.31 c 0,0.38 -0.06,0.72 -0.45,0.72 -0.39,0 -0.46,-0.34 -0.46,-0.72 0,-0.38 0.06,-0.72 0.46,-0.72 0.4,0 0.45,0.33 0.45,0.72 m 0.43,1.08 v -3 h -0.43 v 1.09 a 0.7,0.7 0 0 0 -0.57,-0.24 0.74,0.74 0 0 0 -0.53,0.19 1.3,1.3 0 0 0 -0.23,0.88 1.3,1.3 0 0 0 0.24,0.92 0.76,0.76 0 0 0 0.53,0.19 0.65,0.65 0 0 0 0.57,-0.26 v 0.23 z"
     id="path72"
     inkscape:connector-curvature="0"
     style="fill:#4c565c" />
  <path
     class="cls-1"
     d="m 66.66,11.17 h -1 a 0.65,0.65 0 0 1 0.06,-0.29 0.45,0.45 0 0 1 0.43,-0.28 0.47,0.47 0 0 1 0.43,0.28 0.83,0.83 0 0 1 0.06,0.29 m 0.43,0.31 v -0.17 a 0.92,0.92 0 0 0 -0.92,-1 c -0.56,0 -0.92,0.41 -0.92,1.11 0,0.7 0.43,1.11 1,1.11 a 1.05,1.05 0 0 0 0.82,-0.34 l -0.28,-0.26 a 0.68,0.68 0 0 1 -0.53,0.22 0.53,0.53 0 0 1 -0.55,-0.6 z"
     id="path74"
     inkscape:connector-curvature="0"
     style="fill:#4c565c" />
  <path
     class="cls-1"
     d="m 72.31,11.65 a 0.44,0.44 0 0 1 -0.09,0.32 0.53,0.53 0 0 1 -0.41,0.12 c -0.27,0 -0.4,-0.11 -0.4,-0.3 0,-0.19 0.14,-0.31 0.39,-0.31 h 0.51 z m 0.44,0.78 v -1.45 c 0,-0.49 -0.3,-0.74 -0.9,-0.74 a 0.87,0.87 0 0 0 -0.77,0.31 l 0.28,0.27 a 0.53,0.53 0 0 1 0.47,-0.21 c 0.33,0 0.47,0.13 0.47,0.41 v 0.15 h -0.57 c -0.5,0 -0.75,0.26 -0.75,0.63 a 0.65,0.65 0 0 0 0.17,0.46 0.77,0.77 0 0 0 0.58,0.2 0.75,0.75 0 0 0 0.58,-0.22 v 0.19 z"
     id="path76"
     inkscape:connector-curvature="0"
     style="fill:#4c565c" />
  <path
     class="cls-1"
     d="m 41.67,11.31 c 0,0.38 -0.06,0.72 -0.45,0.72 -0.39,0 -0.45,-0.34 -0.45,-0.72 0,-0.38 0.06,-0.72 0.45,-0.72 0.39,0 0.45,0.33 0.45,0.72 m 0,1.08 h 0.42 v -3 h -0.43 v 1.09 a 0.7,0.7 0 0 0 -0.57,-0.24 0.74,0.74 0 0 0 -0.53,0.19 1.88,1.88 0 0 0 0,1.84 0.76,0.76 0 0 0 0.53,0.19 0.68,0.68 0 0 0 0.58,-0.26 z m 1.51,-1.26 a 0.83,0.83 0 0 1 0.06,-0.29 0.46,0.46 0 0 1 0.43,-0.28 0.47,0.47 0 0 1 0.43,0.28 0.83,0.83 0 0 1 0.06,0.29 z m 0,0.31 h 1.41 v -0.13 a 0.92,0.92 0 0 0 -0.92,-1 c -0.56,0 -0.92,0.41 -0.92,1.11 0,0.7 0.43,1.11 1,1.11 a 1,1 0 0 0 0.81,-0.34 l -0.27,-0.26 a 0.65,0.65 0 0 1 -0.53,0.22 0.53,0.53 0 0 1 -0.55,-0.6 m 4.91,-0.59 c 0,0.42 0,0.75 -0.16,0.92 a 0.67,0.67 0 0 1 -0.52,0.21 H 46.83 V 9.8 h 0.56 a 0.67,0.67 0 0 1 0.52,0.21 c 0.16,0.17 0.16,0.46 0.16,0.88 m 0.16,1.26 a 1.72,1.72 0 0 0 0.3,-1.26 1.59,1.59 0 0 0 -0.3,-1.21 1.07,1.07 0 0 0 -0.79,-0.29 H 46.4 v 3 h 1.07 a 1.11,1.11 0 0 0 0.79,-0.28 m 6.93,-1 a 0.65,0.65 0 0 1 0,-0.29 0.47,0.47 0 0 1 0.43,-0.28 0.46,0.46 0 0 1 0.43,0.28 0.83,0.83 0 0 1 0.06,0.29 z m 0,0.31 h 1.4 v -0.11 a 0.92,0.92 0 0 0 -0.92,-1 c -0.55,0 -0.92,0.41 -0.92,1.11 0,0.7 0.44,1.11 1,1.11 a 1,1 0 0 0 0.81,-0.34 l -0.28,-0.26 a 0.65,0.65 0 0 1 -0.53,0.22 c -0.35,0 -0.54,-0.23 -0.54,-0.6 m 9,-0.13 c 0,0.38 -0.06,0.72 -0.45,0.72 -0.39,0 -0.45,-0.34 -0.45,-0.72 0,-0.38 0,-0.72 0.45,-0.72 0.45,0 0.45,0.33 0.45,0.72 m 0,1.08 h 0.42 v -3 H 64.2 v 1.09 a 0.7,0.7 0 0 0 -0.57,-0.24 0.74,0.74 0 0 0 -0.53,0.19 1.88,1.88 0 0 0 0,1.84 0.76,0.76 0 0 0 0.53,0.19 0.68,0.68 0 0 0 0.58,-0.26 z m 1.51,-1.26 a 0.65,0.65 0 0 1 0.06,-0.29 0.45,0.45 0 0 1 0.43,-0.28 0.47,0.47 0 0 1 0.43,0.28 0.65,0.65 0 0 1 0,0.29 z m 0,0.31 h 1.41 v -0.24 a 0.92,0.92 0 0 0 -0.92,-1 c -0.56,0 -0.92,0.41 -0.92,1.11 0,0.7 0.43,1.11 1,1.11 a 1.05,1.05 0 0 0 0.82,-0.34 l -0.28,-0.26 a 0.68,0.68 0 0 1 -0.53,0.22 0.53,0.53 0 0 1 -0.55,-0.6 m 6.63,0.17 a 0.44,0.44 0 0 1 -0.09,0.32 0.53,0.53 0 0 1 -0.41,0.12 c -0.27,0 -0.4,-0.11 -0.4,-0.3 0,-0.19 0.14,-0.31 0.39,-0.31 h 0.51 z m 0.44,0.78 v -1.52 c 0,-0.49 -0.3,-0.74 -0.9,-0.74 a 0.87,0.87 0 0 0 -0.77,0.31 l 0.28,0.27 a 0.53,0.53 0 0 1 0.4,-0.21 c 0.33,0 0.47,0.13 0.47,0.41 v 0.15 h -0.57 c -0.5,0 -0.75,0.26 -0.75,0.63 a 0.65,0.65 0 0 0 0.17,0.46 0.77,0.77 0 0 0 0.58,0.2 0.75,0.75 0 0 0 0.58,-0.22 v 0.19 z"
     id="path78"
     inkscape:connector-curvature="0"
     style="fill:#4c565c" />
  <path
     class="cls-1"
     d="m 74.34,12.43 v -0.37 h -0.19 c -0.17,0 -0.23,-0.08 -0.23,-0.25 V 9.39 h -0.44 v 2.44 a 0.55,0.55 0 0 0 0.59,0.6 z"
     id="path80"
     inkscape:connector-curvature="0"
     style="fill:#4c565c" />
  <path
     class="cls-1"
     d="M 75.94,9.87 75.62,9.18 h -0.48 l 0.47,0.69 z m 0.25,1.3 h -1 a 0.54,0.54 0 0 1 0.06,-0.29 0.45,0.45 0 0 1 0.43,-0.28 0.45,0.45 0 0 1 0.42,0.28 0.54,0.54 0 0 1 0.06,0.29 m 0.44,0.31 v -0.17 a 0.92,0.92 0 0 0 -0.92,-1 c -0.56,0 -0.92,0.41 -0.92,1.11 0,0.7 0.43,1.11 1,1.11 a 1,1 0 0 0 0.81,-0.34 l -0.28,-0.26 a 0.65,0.65 0 0 1 -0.52,0.22 0.53,0.53 0 0 1 -0.55,-0.6 z"
     id="path82"
     inkscape:connector-curvature="0"
     style="fill:#4c565c" />
  <path
     class="cls-1"
     d="m 79.03,12.43 v -1.38 a 0.82,0.82 0 0 0 -0.21,-0.61 0.75,0.75 0 0 0 -0.54,-0.2 0.76,0.76 0 0 0 -0.57,0.24 v -0.17 h -0.43 v 2.16 h 0.43 v -1.36 a 0.43,0.43 0 0 1 0.45,-0.48 c 0.25,0 0.44,0.14 0.44,0.48 v 1.32 z"
     id="path84"
     inkscape:connector-curvature="0"
     style="fill:#4c565c" />
  <path
     class="cls-1"
     d="m 81.35,12.15 -0.3,-0.29 a 0.52,0.52 0 0 1 -0.82,0 0.85,0.85 0 0 1 -0.12,-0.53 0.83,0.83 0 0 1 0.12,-0.53 0.51,0.51 0 0 1 0.4,-0.19 0.5,0.5 0 0 1 0.42,0.2 l 0.3,-0.29 a 0.9,0.9 0 0 0 -0.72,-0.3 c -0.48,0 -1,0.3 -1,1.11 0,0.81 0.48,1.11 1,1.11 a 0.91,0.91 0 0 0 0.72,-0.31"
     id="path86"
     inkscape:connector-curvature="0"
     style="fill:#4c565c" />
  <path
     class="cls-1"
     d="m 84.29,11.65 a 0.44,0.44 0 0 1 -0.09,0.32 0.53,0.53 0 0 1 -0.41,0.12 c -0.27,0 -0.4,-0.11 -0.4,-0.3 0,-0.19 0.14,-0.31 0.39,-0.31 h 0.51 z m 0.44,0.78 v -1.45 c 0,-0.49 -0.3,-0.74 -0.9,-0.74 a 0.86,0.86 0 0 0 -0.77,0.31 l 0.28,0.27 a 0.53,0.53 0 0 1 0.49,-0.21 c 0.33,0 0.47,0.13 0.47,0.41 v 0.15 h -0.57 c -0.5,0 -0.75,0.26 -0.75,0.63 a 0.65,0.65 0 0 0 0.17,0.46 0.77,0.77 0 0 0 0.58,0.2 0.75,0.75 0 0 0 0.58,-0.22 v 0.19 z"
     id="path88"
     inkscape:connector-curvature="0"
     style="fill:#4c565c" />
  <path
     class="cls-1"
     d="m 44.71,6.96 c 0,-0.39 -0.25,-0.58 -0.65,-0.61 h -0.34 c -0.23,0 -0.3,-0.12 -0.3,-0.25 0,-0.13 0.13,-0.28 0.39,-0.28 a 0.81,0.81 0 0 1 0.54,0.16 L 44.62,5.7 A 1.21,1.21 0 0 0 43.82,5.46 C 43.36,5.46 43,5.7 43,6.12 c 0,0.42 0.23,0.57 0.64,0.6 h 0.35 c 0.21,0 0.29,0.11 0.29,0.25 0,0.14 -0.21,0.3 -0.48,0.3 A 0.82,0.82 0 0 1 43.18,7.05 l -0.29,0.28 a 1.18,1.18 0 0 0 0.91,0.32 c 0.52,0 0.91,-0.24 0.91,-0.69"
     id="path90"
     inkscape:connector-curvature="0"
     style="fill:#4c565c" />
  <path
     class="cls-1"
     d="M 46.9,7.31 46.6,7.02 a 0.52,0.52 0 0 1 -0.42,0.21 0.51,0.51 0 0 1 -0.4,-0.19 0.84,0.84 0 0 1 -0.13,-0.53 0.83,0.83 0 0 1 0.18,-0.5 0.53,0.53 0 0 1 0.82,0 l 0.3,-0.29 a 0.9,0.9 0 0 0 -0.72,-0.3 c -0.48,0 -1,0.29 -1,1.11 0,0.82 0.49,1.11 1,1.11 a 0.91,0.91 0 0 0 0.72,-0.31"
     id="path92"
     inkscape:connector-curvature="0"
     style="fill:#4c565c" />
  <path
     class="cls-1"
     d="M 48.69,6.54 A 0.84,0.84 0 0 1 48.54,7.13 0.48,0.48 0 0 1 48.22,7.26 0.44,0.44 0 0 1 47.9,7.13 0.84,0.84 0 0 1 47.75,6.54 a 0.86,0.86 0 0 1 0.15,-0.6 0.44,0.44 0 0 1 0.32,-0.12 0.47,0.47 0 0 1 0.32,0.12 0.86,0.86 0 0 1 0.15,0.6 m 0.43,0 a 1.14,1.14 0 0 0 -0.25,-0.85 0.89,0.89 0 0 0 -0.65,-0.26 0.85,0.85 0 0 0 -0.65,0.26 1.1,1.1 0 0 0 -0.26,0.85 1.12,1.12 0 0 0 0.26,0.85 0.89,0.89 0 0 0 0.65,0.26 0.93,0.93 0 0 0 0.65,-0.26 1.16,1.16 0 0 0 0.25,-0.85"
     id="path94"
     inkscape:connector-curvature="0"
     style="fill:#4c565c" />
  <path
     class="cls-1"
     d="M 48.69,6.54 A 0.84,0.84 0 0 1 48.54,7.13 0.48,0.48 0 0 1 48.22,7.26 0.44,0.44 0 0 1 47.9,7.13 0.84,0.84 0 0 1 47.75,6.54 a 0.86,0.86 0 0 1 0.15,-0.6 0.44,0.44 0 0 1 0.32,-0.12 0.47,0.47 0 0 1 0.32,0.12 0.86,0.86 0 0 1 0.15,0.6 m 0.43,0 a 1.14,1.14 0 0 0 -0.25,-0.85 0.89,0.89 0 0 0 -0.65,-0.26 0.85,0.85 0 0 0 -0.65,0.26 1.1,1.1 0 0 0 -0.26,0.85 1.12,1.12 0 0 0 0.26,0.85 0.89,0.89 0 0 0 0.65,0.26 0.93,0.93 0 0 0 0.65,-0.26 1.16,1.16 0 0 0 0.25,-0.85"
     id="path96"
     inkscape:connector-curvature="0"
     style="fill:#4c565c" />
  <path
     class="cls-1"
     d="M 50.65,7.62 V 7.25 H 50.46 C 50.29,7.25 50.22,7.16 50.22,7 V 4.58 h -0.39 v 2.44 a 0.55,0.55 0 0 0 0.59,0.6 z"
     id="path98"
     inkscape:connector-curvature="0"
     style="fill:#4c565c" />
  <path
     class="cls-1"
     d="m 52.38,6.84 a 0.47,0.47 0 0 1 -0.09,0.32 0.53,0.53 0 0 1 -0.41,0.12 c -0.27,0 -0.39,-0.11 -0.39,-0.3 0,-0.19 0.13,-0.32 0.39,-0.32 h 0.5 z m 0.44,0.78 V 6.17 c 0,-0.49 -0.3,-0.74 -0.89,-0.74 a 0.88,0.88 0 0 0 -0.78,0.31 l 0.29,0.27 A 0.5,0.5 0 0 1 51.91,5.8 c 0.34,0 0.47,0.13 0.47,0.41 v 0.15 h -0.55 c -0.5,0 -0.75,0.26 -0.75,0.62 a 0.73,0.73 0 0 0 0.17,0.47 0.79,0.79 0 0 0 0.59,0.2 0.71,0.71 0 0 0 0.57,-0.23 v 0.2 z"
     id="path100"
     inkscape:connector-curvature="0"
     style="fill:#4c565c" />
  <path
     class="cls-1"
     d="m 55.99,6.53 c 0,0.39 0,0.73 -0.45,0.73 -0.45,0 -0.45,-0.34 -0.45,-0.73 0,-0.39 0.06,-0.71 0.45,-0.71 0.39,0 0.45,0.33 0.45,0.71 m 0.44,1.09 v -3 H 55.99 V 5.71 A 0.67,0.67 0 0 0 55.42,5.47 0.74,0.74 0 0 0 54.9,5.66 1.29,1.29 0 0 0 54.65,6.57 1.29,1.29 0 0 0 54.9,7.49 0.75,0.75 0 0 0 55.43,7.69 0.66,0.66 0 0 0 56,7.43 v 0.23 z"
     id="path102"
     inkscape:connector-curvature="0"
     style="fill:#4c565c" />
  <path
     class="cls-1"
     d="m 55.99,6.53 c 0,0.39 0,0.73 -0.45,0.73 -0.45,0 -0.45,-0.34 -0.45,-0.73 0,-0.39 0.06,-0.71 0.45,-0.71 0.39,0 0.45,0.33 0.45,0.71 m 0.44,1.09 v -3 H 55.99 V 5.71 A 0.67,0.67 0 0 0 55.42,5.47 0.74,0.74 0 0 0 54.9,5.66 1.29,1.29 0 0 0 54.65,6.57 1.29,1.29 0 0 0 54.9,7.49 0.75,0.75 0 0 0 55.43,7.69 0.66,0.66 0 0 0 56,7.43 v 0.23 z"
     id="path104"
     inkscape:connector-curvature="0"
     style="fill:#4c565c" />
  <path
     class="cls-1"
     d="m 52.38,6.84 a 0.47,0.47 0 0 1 -0.09,0.32 0.53,0.53 0 0 1 -0.41,0.12 c -0.27,0 -0.39,-0.11 -0.39,-0.3 0,-0.19 0.13,-0.32 0.39,-0.32 h 0.5 z m 0,0.78 h 0.45 V 6.17 c 0,-0.49 -0.3,-0.74 -0.89,-0.74 a 0.88,0.88 0 0 0 -0.78,0.31 l 0.29,0.27 A 0.5,0.5 0 0 1 51.92,5.8 c 0.34,0 0.47,0.13 0.47,0.41 v 0.15 h -0.56 c -0.5,0 -0.75,0.26 -0.75,0.62 a 0.73,0.73 0 0 0 0.17,0.47 0.79,0.79 0 0 0 0.59,0.2 0.71,0.71 0 0 0 0.57,-0.23 z m 7.18,-1 h -0.93 l 0.48,-1.31 z m 0.83,1 -1.12,-3 H 58.9 l -1.11,3 h 0.49 l 0.21,-0.61 h 1.2 l 0.21,0.61 z"
     id="path106"
     inkscape:connector-curvature="0"
     style="fill:#4c565c" />
  <path
     class="cls-1"
     d="M 62.39,5.63 A 0.66,0.66 0 0 0 61.88,5.43 0.73,0.73 0 0 0 61.3,5.69 V 5.45 h -0.47 v 2.17 h 0.44 V 6.31 a 0.44,0.44 0 0 1 0.43,-0.48 0.39,0.39 0 0 1 0.32,0.14 z"
     id="path108"
     inkscape:connector-curvature="0"
     style="fill:#4c565c" />
  <path
     class="cls-1"
     d="M 63.75,7.62 V 7.25 H 63.57 A 0.22,0.22 0 0 1 63.33,7 V 5.83 h 0.42 V 5.49 H 63.33 V 4.83 h -0.44 v 0.66 h -0.25 v 0.34 h 0.25 v 1.19 a 0.57,0.57 0 0 0 0.6,0.6 z"
     id="path110"
     inkscape:connector-curvature="0"
     style="fill:#4c565c" />
  <path
     class="cls-1"
     d="M 69.91,6.75 A 0.77,0.77 0 0 0 69.66,6.13 0.91,0.91 0 0 0 69.1,5.9 L 68.75,5.85 A 0.63,0.63 0 0 1 68.41,5.71 0.36,0.36 0 0 1 68.29,5.43 0.49,0.49 0 0 1 68.85,4.95 0.89,0.89 0 0 1 69.51,5.19 L 69.8,4.9 a 1.24,1.24 0 0 0 -0.94,-0.35 0.91,0.91 0 0 0 -1,0.9 0.77,0.77 0 0 0 0.23,0.58 1,1 0 0 0 0.57,0.24 l 0.36,0.05 a 0.54,0.54 0 0 1 0.33,0.13 0.38,0.38 0 0 1 0.12,0.32 c 0,0.29 -0.23,0.46 -0.62,0.46 A 1,1 0 0 1 68.07,6.94 l -0.31,0.3 a 1.37,1.37 0 0 0 1.08,0.41 c 0.63,0 1.09,-0.34 1.09,-0.9"
     id="path112"
     inkscape:connector-curvature="0"
     style="fill:#4c565c" />
  <path
     class="cls-1"
     d="M 72.31,7.62 V 5.45 h -0.48 v 1.32 a 0.43,0.43 0 0 1 -0.45,0.49 c -0.24,0 -0.43,-0.15 -0.43,-0.49 V 5.45 h -0.44 v 1.39 a 0.78,0.78 0 0 0 0.22,0.61 0.77,0.77 0 0 0 0.53,0.2 0.79,0.79 0 0 0 0.58,-0.25 v 0.22 z"
     id="path114"
     inkscape:connector-curvature="0"
     style="fill:#4c565c" />
  <path
     class="cls-1"
     d="m 74.43,6.54 c 0,0.38 0,0.72 -0.45,0.72 -0.45,0 -0.45,-0.34 -0.45,-0.72 0,-0.38 0.06,-0.72 0.45,-0.72 0.39,0 0.45,0.33 0.45,0.72 m 0.44,0 A 1.3,1.3 0 0 0 74.62,5.62 0.74,0.74 0 0 0 74.09,5.43 0.66,0.66 0 0 0 73.52,5.69 V 5.45 H 73.09 V 8.5 h 0.44 V 7.4 a 0.71,0.71 0 0 0 0.57,0.25 0.74,0.74 0 0 0 0.52,-0.2 1.27,1.27 0 0 0 0.25,-0.91"
     id="path116"
     inkscape:connector-curvature="0"
     style="fill:#4c565c" />
  <path
     class="cls-1"
     d="m 76.83,6.36 h -1 a 0.62,0.62 0 0 1 0.06,-0.29 0.43,0.43 0 0 1 0.42,-0.28 0.44,0.44 0 0 1 0.43,0.28 0.52,0.52 0 0 1 0.06,0.29 m 0.44,0.3 V 6.47 a 0.92,0.92 0 0 0 -0.93,-1 c -0.55,0 -0.91,0.4 -0.91,1.1 0,0.7 0.43,1.12 1,1.12 A 1,1 0 0 0 77.21,7.35 L 76.94,7.09 a 0.68,0.68 0 0 1 -0.53,0.22 c -0.36,0 -0.55,-0.23 -0.55,-0.61 z"
     id="path118"
     inkscape:connector-curvature="0"
     style="fill:#4c565c" />
  <path
     class="cls-1"
     d="M 79.47,5.63 A 0.67,0.67 0 0 0 78.95,5.43 0.74,0.74 0 0 0 78.37,5.69 V 5.45 h -0.42 v 2.17 h 0.43 V 6.31 a 0.44,0.44 0 0 1 0.43,-0.48 0.37,0.37 0 0 1 0.32,0.14 z"
     id="path120"
     inkscape:connector-curvature="0"
     style="fill:#4c565c" />
  <path
     class="cls-1"
     d="m 82.4,6.54 a 0.84,0.84 0 0 1 -0.15,0.59 0.44,0.44 0 0 1 -0.32,0.13 0.42,0.42 0 0 1 -0.31,-0.13 0.8,0.8 0 0 1 -0.15,-0.59 0.81,0.81 0 0 1 0.15,-0.6 0.41,0.41 0 0 1 0.31,-0.12 0.44,0.44 0 0 1 0.32,0.12 0.86,0.86 0 0 1 0.15,0.6 m 0.44,0 a 1.1,1.1 0 0 0 -0.26,-0.85 0.93,0.93 0 0 0 -1.29,0 1.1,1.1 0 0 0 -0.26,0.85 1.12,1.12 0 0 0 0.26,0.85 0.93,0.93 0 0 0 1.29,0 1.12,1.12 0 0 0 0.26,-0.85"
     id="path122"
     inkscape:connector-curvature="0"
     style="fill:#4c565c" />
  <path
     class="cls-1"
     d="m 74.43,6.53 c 0,0.39 0,0.73 -0.45,0.73 -0.45,0 -0.45,-0.34 -0.45,-0.73 0,-0.39 0.06,-0.71 0.45,-0.71 0.39,0 0.45,0.33 0.45,0.71 m 0.19,0.92 A 1.27,1.27 0 0 0 74.87,6.53 1.29,1.29 0 0 0 74.62,5.62 0.74,0.74 0 0 0 74.09,5.43 0.66,0.66 0 0 0 73.52,5.69 V 5.45 H 73.09 V 8.5 h 0.44 V 7.4 a 0.68,0.68 0 0 0 0.57,0.25 0.74,0.74 0 0 0 0.52,-0.2 m 1.09,3.15 a 0.45,0.45 0 0 1 0.42,0.28 0.54,0.54 0 0 1 0.06,0.29 h -1 a 0.65,0.65 0 0 1 0,-0.29 0.47,0.47 0 0 1 0.44,-0.28 m 0,-0.36 c -0.56,0 -0.92,0.41 -0.92,1.11 0,0.7 0.43,1.11 1,1.11 a 1,1 0 0 0 0.81,-0.34 l -0.28,-0.26 a 0.65,0.65 0 0 1 -0.52,0.22 0.52,0.52 0 0 1 -0.55,-0.6 h 1.46 v -0.17 a 0.92,0.92 0 0 0 -0.92,-1 m 0.12,-3.95 a 0.79,0.79 0 0 1 0,-0.29 0.46,0.46 0 0 1 0.44,-0.28 0.44,0.44 0 0 1 0.42,0.28 0.52,0.52 0 0 1 0.06,0.29 z m 0,0.3 h 1.41 V 6.47 a 0.92,0.92 0 0 0 -0.92,-1 c -0.56,0 -0.92,0.4 -0.92,1.1 0,0.7 0.43,1.12 1,1.12 A 1,1 0 0 0 77.21,7.35 L 76.94,7.09 a 0.68,0.68 0 0 1 -0.53,0.22 c -0.36,0 -0.55,-0.23 -0.55,-0.61 m 6.53,-0.13 a 0.86,0.86 0 0 1 -0.15,0.6 0.44,0.44 0 0 1 -0.32,0.13 0.42,0.42 0 0 1 -0.31,-0.13 0.81,0.81 0 0 1 -0.15,-0.6 0.8,0.8 0 0 1 0.15,-0.59 0.41,0.41 0 0 1 0.31,-0.12 0.44,0.44 0 0 1 0.32,0.12 0.84,0.84 0 0 1 0.15,0.59 m 0.18,0.86 a 1.13,1.13 0 0 0 0.26,-0.86 1.09,1.09 0 0 0 -0.26,-0.84 0.93,0.93 0 0 0 -1.29,0 1.09,1.09 0 0 0 -0.26,0.84 1.13,1.13 0 0 0 0.26,0.86 0.93,0.93 0 0 0 1.29,0 m 1.71,4.26 a 0.44,0.44 0 0 1 -0.09,0.32 0.53,0.53 0 0 1 -0.41,0.12 c -0.27,0 -0.4,-0.11 -0.4,-0.3 0,-0.19 0.14,-0.31 0.39,-0.31 h 0.51 z m 0.44,0.78 v -1.49 c 0,-0.49 -0.3,-0.74 -0.9,-0.74 a 0.86,0.86 0 0 0 -0.77,0.31 l 0.28,0.27 a 0.53,0.53 0 0 1 0.5,-0.21 c 0.33,0 0.47,0.13 0.47,0.41 v 0.15 h -0.57 c -0.5,0 -0.75,0.26 -0.75,0.63 a 0.65,0.65 0 0 0 0.17,0.46 0.77,0.77 0 0 0 0.58,0.2 0.75,0.75 0 0 0 0.58,-0.22 v 0.19 z"
     id="path124"
     inkscape:connector-curvature="0"
     style="fill:#4c565c" />
  <path
     class="cls-1"
     d="M 85.04,5.63 A 0.65,0.65 0 0 0 84.53,5.43 0.73,0.73 0 0 0 83.95,5.69 V 5.45 h -0.43 v 2.17 h 0.44 V 6.31 a 0.44,0.44 0 0 1 0.43,-0.48 0.37,0.37 0 0 1 0.32,0.14 z"
     id="path126"
     inkscape:connector-curvature="0"
     style="fill:#4c565c" />
</svg>
