<?xml version="1.0" encoding="utf-8"?>
<!-- Generator: Adobe Illustrator 22.0.1, SVG Export Plug-In . SVG Version: 6.00 Build 0)  -->
<!DOCTYPE svg PUBLIC "-//W3C//DTD SVG 1.1//EN" "http://www.w3.org/Graphics/SVG/1.1/DTD/svg11.dtd">
<svg version="1.1"
	 id="Capa_1" inkscape:version="0.92.1 r15371" sodipodi:docname="leaves.svg" xmlns:cc="http://creativecommons.org/ns#" xmlns:dc="http://purl.org/dc/elements/1.1/" xmlns:inkscape="http://www.inkscape.org/namespaces/inkscape" xmlns:rdf="http://www.w3.org/1999/02/22-rdf-syntax-ns#" xmlns:sodipodi="http://sodipodi.sourceforge.net/DTD/sodipodi-0.dtd" xmlns:svg="http://www.w3.org/2000/svg"
	 xmlns="http://www.w3.org/2000/svg" xmlns:xlink="http://www.w3.org/1999/xlink" x="0px" y="0px" viewBox="0 0 263 1422"
	 style="enable-background:new 0 0 263 1422;" xml:space="preserve">
<style type="text/css">
	.st0{fill:#354093;}
	.st1{fill:#68C1BD;}
</style>
<sodipodi:namedview  bordercolor="#666666" borderopacity="1" fit-margin-bottom="0" fit-margin-left="0" fit-margin-right="0" fit-margin-top="0" gridtolerance="10" guidetolerance="10" id="namedview251" inkscape:current-layer="Capa_1" inkscape:cx="99.831928" inkscape:cy="652.96742" inkscape:pageopacity="0" inkscape:pageshadow="2" inkscape:window-height="1017" inkscape:window-maximized="1" inkscape:window-width="1920" inkscape:window-x="-8" inkscape:window-y="-8" inkscape:zoom="0.54873411" objecttolerance="10" pagecolor="#ffffff" showgrid="false">
	</sodipodi:namedview>
<g>
	<path id="path2" inkscape:connector-curvature="0" class="st0" d="M55.3,775.7c13.8,26,45.3,23.6,52.8,20.2
		c-20.3-21-16.5-26.3-8.9-14c8.7,12.1,14.2,13.7,14.2,13.7l5.2-2.9c-15.9-7.5-24.7-22.2-9.8-12.6c15,9.6,15,9.6,15,9.6
		s20-8.4,14.9-11.1c-18.8-9.2-33.8-26.4-16.4-14.6c17.4,11.7,18.1,16.7,30.5,8.4s21-7.9,5.6-15.7s-21.1-20.3-8.6-9.4
		c12.6,10.9,22.4,11,22.4,11l2.6-1.7c0,0-6.3-2.3-13.3-7.3c-7-4.9-6.4-7.2-1.7-3.3c4.7,4,17.2,9.4,17.2,9.4s16.5-13.8,15.7-13.5
		c-11.5-3-26.9-8.9-18.2-9.7s12.3,5.2,23.4,6.4c8.2-6.1,21.1-23.4,21.1-23.4c-14.7,1.8-25.5-2.5-25.5-2.5c-4.2-1.6-0.3-3.4,5.2-1.5
		s14.9-0.2,20.7,1.5c4.4-3.3,5.6-5,5.6-5c-7.9-3.8-17.1,0.2-23.6-1.9c-6.5-2.2-6-5.1,0.7-3.5c15.1,2.5,22.6,1.6,27.9-2
		c13.6-20,1.4-50.5,0.2-49.8c-14.7,8.7-25,3.2-41,8.7c-2.1,13,2.8,32.2-2.4,24.7c-0.5-10.1-0.8-19.5-3.4-23.5
		c-4.8,2.9-6.6,3.7-6.6,3.7c2.5,16.3-1.5,29.3-1.9,18.5s-0.3-18.1-0.3-18.1c-7,5.5-18.5,9.3-18.5,9.3c-3.2,3-1.1,25.4-0.2,28.2
		c0.9,2.8-0.7,9.9-4.4,1.2c-0.7-9.5-3.4-14.8-1.8-24.1c-9.3,5.6-14.4,7.3-15.1,9c2.5,13.8,7,33.4,1.7,22.7
		c-0.9-10.1-3.4-21.7-3.4-21.7c-6.6,4.1-15.1,6.1-15.1,14.7c0,8.6,3.9,26.3-2.6,11.5c-3.3-13.1-1.2-17.8-1.2-17.8
		c-12.2,9.1-17.7,7.2-21.6,10.8c-0.1,7.6,4.3,15.1,5.7,19.4s-0.6,13.1-3.9,1.8s-7-17.9-7-17.9l-4,3.4c8.6,20.6,7.7,25.6,1.6,13.1
		c-4.8-10-3.1-11.5-3.1-11.5c-10.3,7.1-12.6,8.7-12.6,8.7c-0.8,8.6,7.6,16.4,9.7,18.5c5,5.2,4.4,10.4-5.2-1.1s-10.7-12.2-10.7-12.2
		C44.3,747,52.7,770.7,55.3,775.7L55.3,775.7z"/>
	<g id="g6">
		<path id="path4" inkscape:connector-curvature="0" class="st1" d="M228.5,655.8c-6.7,8.6-13.9,16.8-21.4,24.8
			c-3.7,4-7.6,7.9-11.5,11.7s-7.9,7.5-12,11.1c-8.2,7.2-16.7,14.1-25.8,20.2c-4.5,3.1-9.2,6-14,8.6c-4.9,2.6-9.7,5-14.5,7.6
			C110,750,91,760.5,72.2,771.6c-9.4,5.5-18.7,11.2-27.9,17S26,800.4,17.7,807.1l-2.5-3.1c8.7-6.9,17.9-12.8,27.1-18.7
			c9.2-5.8,18.7-11.4,28.1-16.8c18.9-10.8,38.1-21.2,57.6-31.2c4.8-2.5,9.8-4.9,14.5-7.4c4.8-2.6,9.4-5.4,13.9-8.3
			c9-6,17.7-12.6,25.9-19.7C198.9,687.8,214.3,672.4,228.5,655.8L228.5,655.8z"/>
	</g>
</g>
<g>
	<path id="path10" inkscape:connector-curvature="0" class="st0" d="M215.6,117.8c-11.3,0.8-40.6,0-40.6,0
		c-16.5-6.8,7.5-7.5,20.3-6.8c12.8,0.8,24,1.5,24,1.5C217,78.7,214,62.9,175,75.7C154.7,81,148,84,148,84
		c-23.3,3.7-9.8-11.3,13.5-12.8c24.8-3.7,37.6-6.8,37.6-6.8c-9-36.8-45.8-30.8-54.8-30.1c-9,0.8-28.6,12.8-35.3,21
		c-15,15-19.5-8.3,9-19.5C146.6,24.5,153.3,23,153.3,23s6.8-15-33.1-22.5C76.6-4,32.3,26,51.1,46.3c10.9,11.8,15.8,25.5,12,35.3
		c-6.8,17.6-49.6,10.5-55.6,54.1c0,24.8,15.8,23.3,15.8,23.3c14.3-3,25.5-36.1,25.5-36.1c6.8-10.5,15.8,4.5-0.8,18.8
		c-16.5,14.3-23.3,22.5-10.5,31.6c12.8,9,30.1,15.8,36.8,12.8c6.8-3,8.3-42.1,8.3-42.1c0.8-11.3,16.5-1.5,6.8,12
		c-9.8,13.5-18.8,38.3,9.8,40.6s41.3,3.8,48.1-1.5c-4.5-6.8-21.8-38.3-19.5-51.1s12.8-7.5,14.3,9s5.3,42.8,25.5,40.6
		c20.3-2.2,30.1-8.3,30.1-8.3s-21-20.3-21.8-26.3s2.3-14.3,11.3,0.8c9,15,13.5,29.3,51.9,6C241.9,135.1,226.9,117,215.6,117.8
		L215.6,117.8z M87.9,128.3c-12-3.8,5.3-30.8,5.3-30.8S99.9,132.1,87.9,128.3z M122.5,130.6c-16.5,0,0.8-27.8,0.8-27.8
		S137.5,130.6,122.5,130.6z M123.2,75c3-22.5,25.6-5.3,10.5-1.5C118.7,77.2,123.2,75,123.2,75z M163,130.6c-3.8,3.7-9.6-5.5-6-9
		C160.8,117.8,166.8,126.8,163,130.6z M158.5,104.3c-1.5-5.3,16.5-6.8,18-1.5C178.1,108,160.4,110.9,158.5,104.3z"/>
	<g>
		<path class="st1" d="M220.4,158.1L220.4,158.1L220.4,158.1z"/>
		<path class="st1" d="M139,99.2c4.4-1.3,9-2.4,13.5-3.4c5.2-1.2,10.4-2.3,15.7-3.2c5.3-0.9,10.6-1.6,15.9-2c2.6-0.2,5.3-0.3,8-0.2
			c2.6,0.1,5.3,0.4,7.9,1.1c-2.5-0.8-5.2-1.2-7.7-1.3c-2.7-0.2-5.4-0.2-8.1-0.1c-5.4,0.1-10.8,0.7-16.1,1.4
			c-5.3,0.7-10.6,1.6-15.9,2.6s-10.6,2.1-15.8,3.4l0.1,0.2c-3.1-1.8-6.3-3.7-9.5-5.4c-6.6-3.6-13.5-7-20.5-10c0.5-0.4,1-0.8,1.5-1.2
			c1.2-1,2.3-2,3.4-3.1l6.6-6.4c4.4-4.2,9-8.2,13.9-11.8s10.1-6.8,15.8-9c5.7-2.3,11.8-3.4,17.9-3.1c-6.1-0.5-12.3,0.5-18.1,2.7
			c-5.8,2.1-11.2,5.2-16.2,8.7s-9.7,7.4-14.3,11.5l-6.8,6.2c-1.1,1-2.2,2-3.4,3c-0.5,0.5-1.1,1-1.7,1.4c-0.2,0.1-0.3,0.2-0.5,0.3
			c-1.2-0.5-2.3-1-3.5-1.4c-4.6-1.7-9.3-3.3-14.1-4.6c-1-5.4-0.4-11,1-16.4c1.6-5.7,4-11.2,7.1-16.3c6.2-10.1,15.1-18.7,25.8-24.1
			l0,0c-10.8,5.2-20,13.6-26.5,23.7c-3.2,5.1-5.8,10.6-7.5,16.4C85.5,64,84.6,69.5,85.4,75c-4-1-8.1-1.8-12.2-2.4
			c-4.8-0.6-9.7-0.8-14.6-0.3c-2.5,0.2-4.9,0.7-7.3,1.2c-2.4,0.7-4.8,1.4-7.1,2.4c-2.3,0.9-4.5,2.2-6.6,3.5c-2.1,1.5-4.1,3-5.9,4.7
			c-3.6,3.4-6.7,7.4-9.2,11.6l3.9,2.3c4.5-8,11.1-14.8,19.4-18.5c2-1,4.2-1.7,6.4-2.3c2.2-0.6,4.4-1.1,6.7-1.3
			c4.6-0.5,9.3-0.5,13.9,0c6.2,0.6,12.4,2,18.4,3.8c-4.3,5.5-8.2,11.1-11.9,16.9c-3.9,6.1-7.6,12.3-10.9,18.7
			c-3.3,6.4-6.2,13-8.4,19.9c-1.1,3.4-1.9,6.9-2.4,10.5c-0.4,3-0.5,6-0.3,9c-0.2-3,0.1-6,0.6-8.9c0.6-3.6,1.6-7,2.7-10.4
			c2.3-6.8,5.4-13.2,8.9-19.5s7.3-12.3,11.4-18.2c4.1-5.9,8.4-11.6,12.9-17.1l-0.3-0.2c2.2,0.7,4.4,1.4,6.6,2.2
			c4.3,1.6,8.5,3.3,12.7,5.2c-2.8,2.9-4.9,6.3-6.4,9.8c-1.8,4-3,8.3-3.9,12.6c-1.8,8.6-2.2,17.4-1.9,26.1c0.3,8.7,1.4,17.4,3.4,25.9
			c1,4.3,2.2,8.4,3.8,12.5c1.6,4.1,3.5,8,6.1,11.5c-2.6-3.5-4.4-7.5-5.7-11.5c-1.5-4.1-2.6-8.3-3.5-12.5c-1.8-8.5-2.7-17.1-2.8-25.8
			c-0.1-8.6,0.5-17.3,2.4-25.7c0.9-4.2,2.2-8.3,4-12.2c1.7-3.7,3.9-7,6.8-9.6c3.7,1.7,7.3,3.5,10.9,5.3
			c16.8,8.8,32.9,19.1,48.5,29.9s30.8,22.3,45.9,33.9c-14.9-11.8-29.8-23.6-45.3-34.9C163.4,114.7,151.4,106.6,139,99.2z"/>
		<path class="st1" d="M113.9,186.3v-0.1V186.3z"/>
		<path class="st1" d="M57.3,154.7c0,0.6,0.1,1.2,0.2,1.8C57.4,155.9,57.4,155.3,57.3,154.7z"/>
	</g>
</g>
<g>
	<path id="path40" inkscape:connector-curvature="0" class="st0" d="M237.7,504.2c-11.3-8-38.2-44.2-74.1-53.2
		c-23.6-5.9-49.6-16.7-87.9,7.8c6.9,41.3,74.7,51.1,88.6,54.2C190.5,519,217.2,505.9,237.7,504.2z"/>
	<g>
		<path class="st1" d="M233,502.5c-14.8-6.5-29.9-12.5-45.1-18c-3.8-1.4-7.6-2.7-11.4-4c1.6-0.9,3.5-1.5,5.3-1.8
			c2.5-0.5,5-0.5,7.6-0.4c2.6,0.2,5.2,0.5,7.7,1s5,1.1,7.5,1.9c-2.4-1-4.9-1.7-7.3-2.3c-2.5-0.6-5.1-1.1-7.7-1.3
			c-2.6-0.2-5.3-0.3-7.9,0.1c-2.4,0.3-4.7,1-6.8,2.2c-5.7-2-11.4-3.8-17.2-5.6c0-0.1,0-0.1,0-0.2l-0.2,0.1
			c-4.8-1.5-9.6-2.9-14.4-4.3c1.8-1.7,3.6-3.3,5.7-4.5c1.1-0.8,2.4-1.5,3.6-2.2c1.2-0.7,2.5-1.4,3.8-1.9c2.6-1.2,5.3-2.1,8.1-2.8
			c2.8-0.7,5.6-1.2,8.5-1.3l0,0c-2.8,0-5.7,0.4-8.5,1.1c-2.8,0.6-5.6,1.4-8.3,2.5c-1.4,0.5-2.7,1.1-4,1.7c-1.3,0.7-2.6,1.3-3.8,2.1
			c-2.4,1.3-4.6,3.1-6.7,4.9c-7.9-2.2-15.9-4.3-23.9-6.1c1.4-1.4,3.1-2.6,4.8-3.8c2.3-1.6,4.8-2.9,7.3-4.2c2.5-1.3,5.1-2.4,7.7-3.5
			c2.6-1,5.2-2,7.9-2.9c-2.7,0.7-5.4,1.6-8.2,2.5c-2.6,0.9-5.3,1.9-7.9,3c-2.6,1.1-5.1,2.3-7.6,3.8c-2.1,1.3-4.3,2.9-6.2,4.7
			c-6.2-1.3-12.4-2.5-18.6-3.4c0.3-0.3,0.7-0.7,1-1c0.9-0.8,2-1.5,3.1-2.1c2.2-1.3,4.5-2.3,6.9-3.3c4.7-1.9,9.6-3.5,14.5-4.9
			c-5,1.1-10,2.5-14.9,4.3c-2.4,0.9-4.8,1.8-7.1,3c-1.2,0.6-2.3,1.2-3.4,2c-0.6,0.5-1.3,1-1.8,1.7c-0.3,0-0.5-0.1-0.8-0.1
			c-8.1-1.1-16.2-1.8-24.4-1.7c-8.2,0.2-16.5,1-24.3,4.1l1.1,2.8c7.2-2.9,15.2-3.9,23.2-4.2c5.6-0.2,11.1,0,16.7,0.5
			c1.2,2.9,2.8,5.4,4.4,8c1.8,2.6,3.6,5.2,5.5,7.7c3.7,5.1,7.7,10,11.7,14.8c-3.8-5-7.6-10.1-11.1-15.2c-1.8-2.6-3.5-5.2-5.1-7.9
			c-1.4-2.4-2.8-4.8-3.8-7.2c1.9,0.2,3.8,0.4,5.7,0.6c5.7,0.7,11.4,1.6,17.1,2.7c0.4,3.6,1.9,7,3.4,10.2c1.7,3.6,3.9,6.9,6.1,10.2
			s4.6,6.4,7.1,9.5c2.4,3.1,5,6.1,7.7,9c-2.6-3-5-6.1-7.3-9.3c-2.3-3.1-4.6-6.4-6.7-9.7c-2.1-3.3-4-6.7-5.6-10.3
			c-1.3-2.9-2.5-6.1-2.8-9.2c7.7,1.5,15.4,3.3,23,5.2c1.3,3.8,3.4,7.3,5.4,10.6c2.2,3.4,4.5,6.7,7,9.8c2.5,3.1,5,6.2,7.6,9.2
			s5.3,6,8,8.9c-2.6-2.9-5.2-6-7.6-9.3c-2.5-3.1-4.9-6.3-7.2-9.5s-4.5-6.5-6.5-9.9c-1.7-3-3.3-6-4.4-9.2c1,0.3,2,0.5,3,0.8
			c5.1,1.4,10.2,2.8,15.3,4.4c1,2.9,2.2,5.7,3.7,8.4c1.7,3,3.5,5.8,5.5,8.5s4.2,5.3,6.4,7.8s4.5,4.9,7,7.2c-2.4-2.4-4.6-4.9-6.7-7.5
			c-2.1-2.6-4.1-5.2-6-8s-3.6-5.6-5.1-8.6c-1.2-2.4-2.2-4.8-3-7.3c5.6,1.7,11.1,3.4,16.6,5.3l0.1,0.2l0.1-0.1
			c4.1,1.4,8.3,2.8,12.4,4.2c2.4,0.8,4.8,1.7,7.2,2.6l-0.3,0.1c1,2.2,2.5,3.9,4,5.6c1.5,1.6,3.2,3.2,4.9,4.6
			c3.5,2.9,7.1,5.5,10.9,7.9l0,0c-3.6-2.6-7.1-5.4-10.4-8.4c-1.6-1.5-3.2-3.1-4.6-4.8c-1.1-1.4-2.2-2.9-3-4.5
			c12.3,4.4,24.5,9.1,36.6,14.2L233,502.5z"/>
		<path class="st1" d="M179,507.4L179,507.4L179,507.4z"/>
		<path class="st1" d="M145.2,448.9L145.2,448.9L145.2,448.9z"/>
	</g>
</g>
<g>
	<path id="path84" inkscape:connector-curvature="0" class="st0" d="M148.6,1421c9.9-2.5,7.4,2.5,15.7-3.3c5.8-2.9,5.8-1.2,13.2-3.7
		s13.3-6.8,13.3-6.8s-2.3-8.8-4.5-16.3s-2.1-4.9-3-11.3c0-10.1-9-11.1-12.7-20.6c-4.7-8-14.1-8.8-22-17.3
		c-7.8-9.1-5.2-4.3-14.3-11.6s-13.3-4.1-19-7.2c-10.6-5.2-13.6-3.6-25.3-6.1c-11.7-2.4-19.5,3-24.8,7.7s-1.7,16.4-1.7,16.4
		c-14.9,1.7-16.1,10.7-16.9,17.7s-2.9,10.7,5.8,19s9.5,14.4,19.8,20.2c5.8,2.9,2.9,5.8,14,9.1s20.6,9.1,32.6,10.3
		C130.5,1418.9,126.8,1424.3,148.6,1421L148.6,1421z"/>
	<g>
		<path class="st1" d="M161.9,1394l0.4,0.4c0-0.1,0.1-0.1,0.2-0.2c6.8,3.2,13.6,6.4,20.3,9.7c-6.7-3.3-13.4-6.6-20-9.9
			c1-0.9,2.2-1.6,3.4-2.2c1.5-0.6,3-1.1,4.6-1.5c3.1-0.8,6.4-1.2,9.7-1.4c-3.2,0-6.6,0.1-9.8,0.7c-1.7,0.2-3.3,0.6-4.9,1.2
			c-1.6,0.6-3.1,1.3-4.4,2.5c-3.3-1.7-6.7-3.3-10-5c0.1-0.9,0.6-1.7,1.4-2.4c0.7-0.8,1.6-1.4,2.6-1.9c1.9-1.1,4-2,6.1-2.7
			c4.2-1.4,8.6-2.5,13-3.4c-4.4,0.7-8.8,1.6-13.2,3c-2.1,0.6-4.3,1.4-6.3,2.4c-1,0.5-2,1.1-2.9,1.9c-0.7,0.7-1.4,1.5-1.7,2.6
			c-4.3-2.2-8.7-4.4-13-6.7l-4.6-2.4c0.5-1.1,1.4-2,2.4-2.9c1.1-1,2.3-1.9,3.6-2.7c2.6-1.6,5.3-3,8.1-4.2c5.6-2.5,11.5-4.5,17.4-6.1
			l0,0c-6,1.3-11.9,3-17.7,5.2c-2.8,1.1-5.7,2.3-8.4,3.9c-1.4,0.8-2.7,1.7-3.9,2.7c-1.1,0.9-2.2,2-3,3.4l-5.2-2.7l-7.9-4.2h0.4
			c0.1-1.4,0.7-2.9,1.4-4.3c0.8-1.4,1.7-2.7,2.7-4c2-2.5,4.4-4.8,6.8-7s5-4.3,7.6-6.3s5.3-3.9,8-5.7c-2.8,1.7-5.6,3.5-8.3,5.4
			c-2.7,1.8-5.3,3.8-7.9,5.9c-2.6,2.1-5.1,4.3-7.3,6.8c-1.2,1.3-2.2,2.6-3.1,4.1c-0.8,1.2-1.4,2.7-1.8,4.3l-1.8-1l-6.3-3.4l0.3-1.6
			l0.2-1.1l0.3-1c0.2-0.7,0.4-1.4,0.6-2.1l0.8-2c1.1-2.6,2.5-5.2,4.2-7.6s3.6-4.7,5.6-6.8s4.2-4.1,6.6-5.8l0,0
			c-2.5,1.6-4.8,3.4-6.8,5.4c-2.2,2.1-4.2,4.2-6,6.6c-1.9,2.3-3.5,4.9-4.8,7.6l-1,2c-0.3,0.7-0.5,1.4-0.8,2.1l-0.4,1.1l-0.3,1.1
			l-0.3,1.2l-3.1-1.7l-6.5-3.7c0.2-2.9,1.4-5.8,2.8-8.4c1.4-2.8,3-5.4,4.7-8c3.4-5.1,7.2-10.1,11.3-14.8l0,0
			c-4.2,4.6-8.2,9.4-11.7,14.5c-1.9,2.5-3.6,5.2-5.1,7.9c-1.4,2.5-2.7,5.1-3.2,8.1l-3.3-1.9c-1.4-0.8-2.9-1.6-4.3-2.5
			c0-2.7,0.7-5.5,1.5-8c0.9-2.9,2.1-5.6,3.5-8.3c1.4-2.7,2.9-5.3,4.5-7.8s3.3-5,5.1-7.4c-1.9,2.4-3.7,4.8-5.4,7.3s-3.3,5-4.7,7.7
			c-1.5,2.6-2.8,5.3-3.8,8.2c-0.9,2.5-1.6,5.1-1.8,7.7c-1.9-1.1-3.7-2.2-5.6-3.3l0.2-0.2c-0.6-0.6-1.1-1.6-1.4-2.7
			c-0.4-1.1-0.6-2.2-0.7-3.4c-0.3-2.3-0.4-4.7-0.3-7.1s0.3-4.8,0.6-7.2c0.1-1.2,0.3-2.4,0.6-3.6c0.2-0.5,0.3-1.1,0.5-1.7
			s0.3-1.2,0.8-1.6c-0.4,0.3-0.7,0.9-0.9,1.6c-0.2,0.5-0.4,1.1-0.6,1.7c-0.4,1.1-0.7,2.3-0.9,3.5c-0.5,2.4-0.9,4.8-1.1,7.2
			c-0.2,2.4-0.3,4.8-0.2,7.3c0.1,1.2,0.2,2.5,0.5,3.7c0.1,0.3,0.1,0.6,0.2,0.8c-2-1.2-4-2.4-5.9-3.6c-0.5-0.8-0.9-1.7-1.3-2.5
			c-0.7-1.6-1.1-3.4-1.4-5.1s-0.4-3.5-0.5-5.3c0-1.8,0-3.6,0.2-5.4c-0.3,1.7-0.5,3.5-0.6,5.3s-0.1,3.6,0.1,5.4s0.5,3.6,1,5.4
			c0.1,0.3,0.2,0.6,0.4,0.9c-7.2-4.5-14.3-9.1-21.3-13.9c-3.4-2.4-6.9-4.8-10.2-7.4l-5-3.8c-1.6-1.4-3.2-2.7-4.8-4.1
			c-0.8-0.6-1.6-1.3-2.4-2l-2.3-2.2l-2.3-2.2c-0.7-0.7-1.4-1.5-2.1-2.3s-1.5-1.5-2.1-2.3l-1.8-2.4c-0.6-0.8-1.1-1.7-1.6-2.5
			l-0.5-1.3c-0.1-0.2-0.2-0.4-0.2-0.6l-0.1-0.3h-3.1c0,0.1,0,0.3,0,0.4s0,0.2,0,0.3l0.1,0.5c0.1,0.3,0.2,0.6,0.3,0.9
			c0.2,0.5,0.4,1.1,0.7,1.6c0.6,1,1.1,2,1.8,2.9l2,2.6c0.7,0.8,1.5,1.6,2.2,2.4c0.7,0.7,1.4,1.6,2.2,2.3l2.4,2.2l2.4,2.2
			c0.8,0.7,1.7,1.3,2.5,2c1.7,1.3,3.3,2.7,5,4l5.1,3.6c3.3,2.6,6.9,4.9,10.4,7.3c7.5,5,15.2,9.8,23,14.5c-1.5,0.3-2.9,0.9-4.3,1.4
			c-2.1,1-4.1,2.1-6,3.4s-3.7,2.6-5.5,4.1s-3.5,3-5.1,4.6l0,0c1.7-1.5,3.5-2.9,5.3-4.3c1.9-1.3,3.7-2.6,5.7-3.7
			c1.9-1.1,3.9-2.2,6-2.9c1.8-0.7,3.7-1.1,5.5-1.2c0.1,0.1,0.1,0.2,0.2,0.3l0.5-0.4c2.1,1.2,4.2,2.5,6.3,3.7c-2.3,1-4.2,2.5-5.9,4.2
			c-1.9,1.8-3.7,3.9-5.4,6c-3.4,4.2-6.4,8.7-9.1,13.3c3-4.4,6.2-8.7,9.8-12.6c1.8-2,3.7-3.9,5.7-5.6c1.9-1.7,4.2-3.3,6.5-3.9
			l-0.2-0.6c2.2,1.3,4.4,2.5,6.6,3.7c-2,1.5-3.4,3.5-4.7,5.4c-1.4,2.3-2.6,4.7-3.7,7.1c-2.2,4.9-3.9,9.9-5.4,15
			c1.7-5.1,3.6-10,5.9-14.8c1.2-2.3,2.5-4.6,4-6.8c1.4-2,3-4,5.1-5.2c0.9,0.5,1.8,1,2.7,1.5l9,4.9c-2.1,2.2-4.1,4.6-5.6,7.3
			c-1.6,2.9-2.9,5.8-3.9,8.9s-1.7,6.2-2.2,9.4c-0.5,3.2-0.8,6.4-0.8,9.6c0.1-3.2,0.5-6.4,1-9.6c0.7-3.1,1.5-6.2,2.6-9.2
			s2.5-5.8,4.2-8.5s3.8-5,6-7.1l0.8,0.4l10.6,5.5c-1.5,0.8-2.8,2-3.8,3.3s-1.8,2.7-2.5,4.2c-1.4,2.9-2.4,6.1-3.2,9.2
			c-0.7,3.2-1.3,6.4-1.8,9.6s-0.8,6.5-1,9.7c0.3-3.2,0.7-6.4,1.2-9.5c0.5-3.2,1.2-6.4,2.1-9.5s1.9-6.2,3.4-9
			c1.4-2.8,3.4-5.6,6.1-6.9l-0.5-1.1l0.7,0.4l8,4.2c-1.4,2.4-2.6,5-3.3,7.6c-0.8,2.8-1.3,5.6-1.6,8.4c-0.2,2.8-0.3,5.7-0.2,8.5
			c0.1,2.8,0.4,5.6,0.9,8.4l0,0c-0.4-2.7-0.5-5.6-0.4-8.5c0-2.8,0.1-5.6,0.5-8.4c0.4-2.7,1-5.5,1.9-8.1c0.9-2.5,2.1-5,3.5-7.2l2,1
			l8.8,4.4c-0.9,2.7-1.5,5.3-1.8,8.1c-0.2,2.8-0.2,5.5,0,8.3s0.6,5.5,1.2,8.2c0.5,2.7,1.3,5.4,2.2,8c-0.9-2.6-1.5-5.3-2-8
			c-0.4-2.7-0.8-5.5-0.9-8.2c-0.1-2.7,0-5.5,0.3-8.2c0.4-2.6,1-5.3,1.9-7.7l1.7,0.8c6.2,3.2,12.5,6.3,18.9,9.3l-1.4-0.4
			c-0.4,1.9-0.4,3.8-0.1,5.7c0.2,1.9,0.8,3.7,1.4,5.4c0.7,1.7,1.4,3.4,2.3,5c0.9,1.6,1.8,3.2,2.9,4.7l0,0c-0.9-1.6-1.8-3.2-2.6-4.8
			c-0.7-1.7-1.4-3.4-1.9-5.1c-0.5-1.8-0.9-3.5-1-5.3s0-3.5,0.4-5.2C157.9,1392,159.9,1393,161.9,1394z"/>
		<path class="st1" d="M88.4,1398.3L88.4,1398.3L88.4,1398.3z"/>
		<path class="st1" d="M136,1413.1L136,1413.1L136,1413.1z"/>
		<path class="st1" d="M147.3,1414.2L147.3,1414.2L147.3,1414.2z"/>
		<path class="st1" d="M143,1400.1c-0.3-2.5-0.4-5-0.2-7.4s0.8-4.8,1.5-7.1l-1.5-0.5c-0.7,2.5-1.2,5.1-1.2,7.6
			c-0.1,2.5,0.1,5,0.6,7.5c0.5,2.4,1.1,4.9,2,7.2c0.8,2.3,1.9,4.6,3.1,6.8c-1.2-2.2-2.1-4.5-2.7-6.9
			C143.9,1405,143.3,1402.5,143,1400.1z"/>
		<path class="st1" d="M168.4,1400.8c-0.3-1-0.4-2.2-0.1-3.2l-0.3-0.1c-0.3,1.1-0.1,2.2,0.2,3.3c0.3,1,0.8,2.1,1.4,3
			c1.1,1.9,2.6,3.6,4.1,5.2c-1.5-1.6-2.9-3.4-4-5.2C169.1,1402.9,168.7,1401.9,168.4,1400.8z"/>
	</g>
</g>
<g>
	<path id="path168" inkscape:connector-curvature="0" class="st0" d="M48.9,820.5c-1-29.4,27.4-43.1,35.6-43.9
		c-7.1,28.4-1.1,31-0.7,16.6c1.5-14.8,5.5-19,5.5-19h5.9c-10,14.4-10.3,31.6-2.2,15.8s8.1-15.8,8.1-15.8s21.5-2.7,18.5,2.1
		c-11.6,17.4-16.1,39.7-6.9,20.9c9.2-18.9,7.3-23.5,22.2-22.5s22.2-3.7,12.7,10.8s-8.1,28.2-2.7,12.4c5.4-15.8,13.8-20.7,13.8-20.7
		l3.1,0.1c0,0-4.3,5.2-7.9,12.9c-3.6,7.8-1.9,9.5,0.2,3.7c2.1-5.8,10.2-16.7,10.2-16.7s21.2,3.7,20.4,3.8
		c-8.5,8.3-18.8,21.1-10.9,17.5c7.9-3.7,8-10.7,17-17.2c10.2,1.2,30,9.7,30,9.7c-13.6,5.8-20.8,14.9-20.8,14.9
		c-2.8,3.4,1.4,3.1,5.3-1.3c3.9-4.4,13.1-7.3,17.2-11.6c5.5,0.7,7.3,1.6,7.3,1.6c-4.9,7.3-14.9,8.3-19.5,13.4
		c-4.5,5.1-2.7,7.4,2.3,2.7c11.8-9.7,18.8-12.7,25.1-12.2c21.7,10.5,26.5,43,25,43.1c-17.1-0.2-23.3,9.7-39.9,13
		c-8.3-10.1-13.7-29.3-14.4-20.2c4.6,8.9,9.1,17.3,8.8,22c-5.6-0.1-7.6,0.1-7.6,0.1c-6-15.4-15.9-24.7-10.8-15.1
		c5.1,9.6,8.7,15.8,8.7,15.8c-8.8-1.2-20.7,1.2-20.7,1.2c-4.3-1-13.7-21.5-14.3-24.4s-5.6-8.3-4.4,1.2c4.1,8.6,4.5,14.5,10.5,21.8
		c-10.9-0.2-16.1,0.8-17.6-0.3c-4.7-13.2-10.6-32.4-9.9-20.5c4.3,9.2,7.9,20.5,7.9,20.5c-7.8-0.2-16.1,2.2-20.4-5.2
		c-4.3-7.5-9.7-24.7-8-8.7c3.6,13,7.9,16,7.9,16c-15.1-1.8-19,2.6-24.1,1.4c-3.9-6.6-3.8-15.3-4.7-19.6s-7.1-11-4.3,0.4
		s2.9,19,2.9,19l-5.2-0.9c-2.9-22.1-6.1-26-5.2-12.1c0.9,11.1,3.1,11.5,3.1,11.5c-12.4-1-15.2-1.2-15.2-1.2c-4.9-7-1.6-18-0.8-20.9
		c1.8-7-1.4-11.2-4,3.5s-3.1,16.3-3.1,16.3C53.6,850.8,49.1,826.2,48.9,820.5L48.9,820.5z"/>
	<g id="g172">
		<path id="path170" inkscape:connector-curvature="0" class="st1" d="M258.8,837.7c-20.6-7.2-41.7-12.9-63-16.9
			c-10.7-2-21.5-3.4-32.3-4.1c-5.4-0.3-10.8-0.4-16.2-0.3c-5.4,0.2-10.9,0.6-16.3,0.8c-21.8,1.1-43.6,1.7-65.4,1.8
			c-10.9,0-21.8-0.1-32.8-0.5c-10.9-0.4-21.8-1-32.8-2.6l0.6-3.9c10.6,1.6,21.5,2.2,32.3,2.7c10.9,0.4,21.7,0.7,32.6,0.8
			c21.8,0.2,43.5-0.2,65.3-1c5.5-0.2,10.8-0.5,16.4-0.7c5.5-0.1,11,0.1,16.5,0.4c10.9,0.8,21.8,2.4,32.5,4.6
			c5.4,1.1,10.7,2.3,16,3.6c5.3,1.4,10.5,2.8,15.8,4.4C238.4,830.1,248.7,833.7,258.8,837.7L258.8,837.7z"/>
	</g>
</g>
<g>
	<path id="path176" inkscape:connector-curvature="0" class="st0" d="M238.5,967c-32.2-19.6-35.9-7.6-43.5,5s-10.1,5.7-9.5,0.6
		c0.6-5,18.3-22.1,18.3-22.1s-8.2-5-25.2-6.9s-20.2,20.2-21.4,34c-1.3,13.9-10.1,18.3-12,7.6s12.6-37.2,16.4-42.9
		c-5.7-4.4-16.4-3.2-40.4-1.3s-16.4,22.7-8.2,34s-5,19.5-5.7,10.1c0,0-1.3-32.8-6.9-35.3c-5.7-2.5-20.2,3.2-30.9,10.7
		c-10.7,7.6-5,14.5,8.8,26.5c13.9,12,6.3,24.6,0.6,15.8c0,0-9.5-27.7-21.4-30.3c0,0-13.2-1.3-13.2,19.5c5,36.6,41,30.6,46.7,45.4
		c3.2,8.2-0.9,19.7-10.1,29.6c-15.8,17,21.4,42.2,58,38.5c33.4-6.3,27.7-18.9,27.7-18.9s-5.7-1.3-29.6-10.7
		c-24-9.5-20.2-29-7.6-16.4c5.7,6.9,22.1,17,29.6,17.6c7.6,0.6,38.5,5.7,46-25.2c0,0-10.7-2.5-31.5-5.7
		c-19.6-1.3-30.9-13.9-11.3-10.7c0,0,5.7,2.5,22.7,6.9c32.8,10.7,35.3-2.5,37.2-30.9c0,0-9.5,0.6-20.2,1.3c-10.7,0.6-30.9,0-17-5.7
		c0,0,24.6-0.6,34,0C228.4,1007.9,241,992.8,238.5,967L238.5,967z M116.2,1024.3c0,0-14.5-22.7-4.4-25.8
		C121.8,995.3,116.2,1024.3,116.2,1024.3z M141.4,1019.9c0,0-14.5-23.3-0.6-23.3C153.4,996.6,141.4,1019.9,141.4,1019.9z
		 M150.2,1044.5c12.6,3.1-6.3,17.6-8.8-1.3C141.4,1043.2,137.6,1041.3,150.2,1044.5z M169.7,1004.2c-3-3,1.9-10.7,5-7.6
		C177.9,999.7,172.9,1007.3,169.7,1004.2z M186.1,1019.9c-1.3,4.4-16.4,3.1-15.1-1.3C172.6,1013.1,187.4,1015.5,186.1,1019.9z"/>
	<g>
		<path class="st1" d="M192.4,1030.1c-4.5-0.3-9-0.9-13.4-1.7c-4.4-0.8-8.8-1.7-13.2-2.7c-3.7-0.9-7.5-1.8-11.2-2.8
			c10.4-6.2,20.5-13,30.3-20.2c13-9.4,25.5-19.3,38-29.2l0,0c-12.7,9.7-25.4,19.3-38.4,28.4c-13.1,9-26.6,17.6-40.7,25
			c-3.1,1.6-6.2,3.1-9.4,4.6c-2.4-2.2-4.3-5-5.8-8.1c-1.5-3.2-2.6-6.7-3.4-10.2c-1.6-7.1-2.1-14.3-2-21.6c0.1-7.2,0.9-14.5,2.4-21.6
			c0.8-3.6,1.7-7.1,3-10.5c1.2-3.4,2.8-6.7,4.9-9.7c-2.2,2.9-3.8,6.2-5.2,9.6c-1.3,3.4-2.4,6.9-3.2,10.5c-1.6,7.1-2.6,14.4-2.8,21.7
			c-0.2,7.3,0.1,14.7,1.6,21.9c0.7,3.6,1.7,7.2,3.2,10.6c1.3,3,3,5.8,5.4,8.2c-3.4,1.5-6.9,3-10.4,4.3c-1.8,0.7-3.7,1.3-5.5,1.9
			c-3.8-4.6-7.3-9.4-10.7-14.3c-3.4-5-6.6-10-9.5-15.3s-5.5-10.7-7.5-16.4c-1-2.8-1.8-5.7-2.3-8.7c-0.4-2.5-0.7-5-0.5-7.5
			c-0.2,2.5-0.1,5,0.3,7.7c0.4,3,1.1,5.9,2,8.8c1.8,5.8,4.2,11.3,7,16.7c2.7,5.4,5.8,10.6,9.1,15.7c3.1,4.7,6.4,9.4,9.8,13.9
			c-5,1.4-10,2.5-15.1,3.1c-3.9,0.4-7.8,0.5-11.6,0c-2-0.2-3.8-0.6-5.7-1.1c-1.9-0.5-3.7-1.1-5.4-1.9c-6.9-3.1-12.4-8.8-16.2-15.5
			l-3.3,1.9c2.1,3.6,4.6,6.9,7.7,9.8c1.5,1.5,3.2,2.7,4.9,3.9c1.7,1.2,3.6,2.2,5.5,3c1.9,0.9,3.9,1.5,5.9,2c2,0.4,4,0.8,6.1,1
			c4.1,0.4,8.3,0.3,12.3-0.2c3.5-0.4,6.9-1.1,10.3-2c-0.7,4.7,0,9.3,1.2,13.8c1.4,4.8,3.6,9.5,6.3,13.7c5.5,8.5,13.1,15.5,22.2,19.9
			l0,0c-8.9-4.6-16.4-11.8-21.7-20.2c-2.6-4.3-4.6-8.9-5.9-13.7c-1.2-4.5-1.7-9.3-0.9-13.8c4-1.1,8-2.4,11.9-3.9
			c0.9-0.4,1.8-0.8,2.8-1.2c0.2,0.1,0.4,0.2,0.5,0.4c0.5,0.3,1,0.7,1.5,1.1c1,0.8,2,1.6,2.9,2.5l5.7,5.2c3.8,3.5,7.8,6.8,12,9.7
			c4.3,3,8.8,5.5,13.6,7.3s10,2.6,15.1,2.2l0,0c-5.1,0.3-10.3-0.6-15.1-2.6c-4.8-1.8-9.2-4.5-13.3-7.5c-4.2-3-8-6.4-11.7-9.9
			l-5.5-5.3c-0.9-0.9-1.8-1.7-2.8-2.6c-0.4-0.4-0.9-0.8-1.3-1.1c6-2.6,11.8-5.4,17.4-8.5c2.6-1.4,5.2-2.9,7.7-4.4v0.1
			c4.4,1.1,8.8,2,13.2,2.9c4.5,0.8,8.9,1.6,13.4,2.2s9,1.1,13.5,1.2c2.3,0.1,4.5,0.1,6.8-0.1c2.2-0.2,4.5-0.5,6.6-1.2l0,0
			c-2.1,0.7-4.4,0.9-6.7,0.9C196.9,1030.3,194.6,1030.2,192.4,1030.1z"/>
		<path class="st1" d="M86.2,974.8c-0.1,0.5-0.1,1-0.1,1.5C86.1,975.7,86.1,975.3,86.2,974.8L86.2,974.8z"/>
	</g>
</g>
<g>
	<path id="path206" inkscape:connector-curvature="0" class="st0" d="M184.4,402.3c-7.5,6.4-24.4,33.7-49.4,42.4
		c-16.4,5.6-34.2,14.9-62.9-0.1c2.4-29.7,49.9-40.9,59.6-44C149.8,394.7,169.7,402.3,184.4,402.3L184.4,402.3z"/>
	<g>
		<path class="st1" d="M167.4,402.3L167.4,402.3L167.4,402.3z"/>
		<path class="st1" d="M151.6,423.7c-1.9,0.3-3.7,0.4-5.5,0.2c-1.4-0.1-2.7-0.4-4-1c2.6-1.2,5.3-2.4,7.9-3.6
			c10.5-4.9,20.8-10.1,31-15.5l-0.1-0.3c-8.3,4.4-16.7,8.5-25.2,12.4c0.5-1.2,1.2-2.3,1.9-3.4c0.9-1.3,1.9-2.6,3-3.7
			c2.1-2.4,4.4-4.6,6.8-6.6c-2.5,1.9-4.9,4-7.3,6.3c-1.1,1.1-2.2,2.3-3.2,3.6c-1,1.3-1.9,2.6-2.5,4.3l0.3,0.1
			c-1.6,0.7-3.2,1.5-4.8,2.2c-2.9,1.3-5.8,2.5-8.7,3.8l0,0l0,0c-3.8,1.6-7.6,3.2-11.5,4.7c0.4-1.8,1-3.6,1.7-5.4
			c0.9-2.2,1.9-4.4,3.1-6.4c1.1-2.1,2.4-4.1,3.8-6.1c1.4-1.9,2.8-3.9,4.4-5.7c-1.6,1.8-3.1,3.6-4.6,5.6s-2.8,3.9-4.1,5.9
			c-1.2,2-2.4,4.1-3.4,6.3c-0.8,2-1.6,4.1-2.1,6.2c-3.5,1.4-7,2.7-10.6,4c-0.7,0.3-1.4,0.5-2.2,0.8c0.6-2.3,1.5-4.6,2.6-6.8
			c1.2-2.6,2.6-5.1,4-7.5s2.9-4.8,4.5-7.2c1.6-2.4,3.1-4.7,4.8-7c-1.8,2.2-3.5,4.5-5.1,6.8c-1.7,2.4-3.3,4.6-4.8,7.1
			c-1.6,2.4-3,4.8-4.4,7.3c-1.3,2.4-2.5,5-3.2,7.8c-5.3,1.9-10.6,3.6-16,5.1c0-2.2,0.6-4.4,1.4-6.6c0.9-2.6,2.1-5.2,3.4-7.7
			s2.6-4.9,4.1-7.3c1.4-2.4,3-4.8,4.6-7.1c-1.8,2.2-3.4,4.5-4.8,6.9c-1.6,2.4-3.1,4.7-4.5,7.2c-1.4,2.4-2.6,5-3.7,7.6
			c-0.9,2.3-1.7,4.7-1.8,7.3c-4,1.1-8,2.1-12.1,3c-1.3,0.3-2.7,0.6-4,0.8c0.5-1.8,1.3-3.6,2.2-5.3c1-2,2.1-4,3.1-5.9
			c2.2-3.9,4.6-7.7,7-11.5c-2.6,3.7-5.1,7.4-7.3,11.1c-1.2,1.9-2.4,3.9-3.4,5.8s-2,3.8-2.7,5.9c-3.9,0.7-7.9,1.2-11.8,1.4
			c-5.7,0.3-11.4,0.1-16.8-1.6l-0.6,2.1c5.8,1.7,11.8,1.8,17.5,1.4c5.8-0.4,11.6-1.4,17.2-2.7c0.2,0,0.3-0.1,0.5-0.1
			c0.5,0.5,1,0.9,1.5,1.2c0.8,0.5,1.6,0.9,2.5,1.2c1.7,0.7,3.5,1.2,5.3,1.7c3.6,0.9,7.1,1.6,10.8,2.1c-3.6-0.6-7.1-1.5-10.6-2.6
			c-1.7-0.6-3.4-1.1-5.1-1.9c-0.9-0.4-1.6-0.8-2.4-1.3c-0.3-0.2-0.6-0.4-0.9-0.7c4.4-1,8.8-2.3,13.1-3.6c1.5,1.2,3.1,2.1,4.8,3
			c1.8,0.9,3.7,1.6,5.6,2.3s3.9,1.1,5.8,1.6c2,0.4,3.9,0.9,5.9,1.2c-2-0.5-3.9-1-5.7-1.6c-1.9-0.6-3.9-1.3-5.7-2
			c-1.9-0.7-3.7-1.5-5.4-2.5c-1.4-0.8-2.7-1.6-3.8-2.5c5.5-1.7,11-3.7,16.5-5.7c1.7,1.2,3.3,2.3,5.1,3.2c0.9,0.5,1.9,0.9,2.9,1.3
			s1.9,0.7,2.9,1c2,0.6,4,1,6.1,1.2c2,0.2,4.1,0.3,6.1,0.1l0,0c-2.1,0.1-4.1-0.1-6.1-0.4s-4-0.8-5.9-1.4c-1-0.3-1.9-0.7-2.9-1.1
			c-0.9-0.4-1.9-0.9-2.7-1.4c-1.6-0.8-3-1.8-4.4-3c3.4-1.3,6.7-2.6,10.1-4h0.2V428c3.9-1.6,7.9-3.3,11.8-5c1.6,0.8,3.4,1.2,5.1,1.2
			c1.9,0.1,3.7-0.1,5.6-0.4c1.8-0.4,3.6-0.9,5.3-1.4c1.7-0.6,3.5-1.3,5.1-2.1c-1.7,0.7-3.4,1.3-5.1,1.9
			C155.3,423.1,153.4,423.4,151.6,423.7z"/>
		<path class="st1" d="M162.2,420.7L162.2,420.7L162.2,420.7z"/>
	</g>
</g>
<g>
	<path id="path10-6" inkscape:connector-curvature="0" class="st0" d="M183.1,1172.7c-8,0.6-28.8,0-28.8,0
		c-11.7-4.8,5.3-5.3,14.4-4.8c9.1,0.6,17,1.1,17,1.1c-1.6-24-3.8-35.2-31.4-26.1c-14.4,3.8-19.2,5.9-19.2,5.9c-16.5,2.6-7-8,9.6-9.1
		c17.6-2.6,26.7-4.8,26.7-4.8c-6.4-26.1-32.5-21.8-38.9-21.3c-6.4,0.6-20.3,9.1-25,14.9c-10.6,10.6-13.8-5.9,6.4-13.8
		c20.3-8,25-9.1,25-9.1s4.8-10.6-23.5-16c-30.9-3.2-62.3,18.1-49,32.5c7.7,8.4,11.2,18.1,8.5,25c-4.8,12.5-35.2,7.4-39.4,38.4
		c0,17.6,11.2,16.5,11.2,16.5c10.1-2.1,18.1-25.6,18.1-25.6c4.8-7.4,11.2,3.2-0.6,13.3c-11.7,10.1-16.5,16-7.4,22.4
		s21.3,11.2,26.1,9.1s5.9-29.9,5.9-29.9c0.6-8,11.7-1.1,4.8,8.5c-7,9.6-13.3,27.2,7,28.8s29.3,2.7,34.1-1.1
		c-3.2-4.8-15.5-27.2-13.8-36.2c1.6-9.1,9.1-5.3,10.1,6.4s3.8,30.4,18.1,28.8c14.4-1.6,21.3-5.9,21.3-5.9s-14.9-14.4-15.5-18.7
		c-0.6-4.3,1.6-10.1,8,0.6c6.4,10.6,9.6,20.8,36.8,4.3C201.7,1185,191.1,1172.1,183.1,1172.7L183.1,1172.7z M92.5,1180.1
		c-8.5-2.7,3.8-21.8,3.8-21.8S101,1182.8,92.5,1180.1z M117.1,1181.8c-11.7,0,0.6-19.7,0.6-19.7S127.7,1181.8,117.1,1181.8z
		 M117.6,1142.3c2.1-16,18.2-3.8,7.4-1.1C114.4,1143.9,117.6,1142.3,117.6,1142.3z M145.8,1181.8c-2.7,2.6-6.8-3.9-4.3-6.4
		C144.2,1172.7,148.5,1179.1,145.8,1181.8z M142.6,1163.1c-1.1-3.8,11.7-4.8,12.8-1.1C156.5,1165.7,143.9,1167.8,142.6,1163.1z"/>
	<path class="st1" d="M154.4,1176.5c-8.3-6-16.8-11.7-25.6-17c3.1-0.9,6.3-1.7,9.5-2.4c3.7-0.9,7.4-1.6,11.1-2.3
		c3.8-0.6,7.5-1.1,11.3-1.4c1.8-0.1,3.8-0.2,5.7-0.1c1.8,0.1,3.8,0.3,5.6,0.8c-1.8-0.6-3.7-0.9-5.5-0.9c-1.9-0.1-3.8-0.1-5.7-0.1
		c-3.8,0.1-7.7,0.5-11.4,1c-3.8,0.5-7.5,1.1-11.3,1.8c-3.8,0.7-7.5,1.5-11.2,2.4v0.1c-2.2-1.3-4.4-2.6-6.7-3.8
		c-4.7-2.5-9.6-4.9-14.5-7.1c0.4-0.3,0.7-0.6,1.1-0.9c0.9-0.7,1.6-1.4,2.4-2.2l4.7-4.5c3.1-3,6.4-5.8,9.9-8.4s7.2-4.8,11.2-6.4
		s8.4-2.4,12.7-2.2c-4.3-0.4-8.7,0.4-12.8,1.9s-7.9,3.7-11.5,6.2c-3.5,2.5-6.9,5.2-10.1,8.2l-4.8,4.4c-0.8,0.7-1.6,1.4-2.4,2.1
		c-0.4,0.4-0.8,0.7-1.2,1c-0.1,0.1-0.2,0.2-0.4,0.2c-0.8-0.3-1.6-0.7-2.5-1c-3.3-1.2-6.6-2.4-10-3.3c-0.7-3.8-0.3-7.8,0.7-11.6
		c1.1-4,2.8-7.9,5-11.6c4.4-7.2,10.7-13.3,18.3-17.1c-7.7,3.7-14.2,9.6-18.8,16.8c-2.3,3.6-4.1,7.5-5.3,11.6
		c-1,3.7-1.6,7.6-1.1,11.5c-2.8-0.7-5.7-1.3-8.6-1.7c-3.4-0.4-6.9-0.6-10.4-0.2c-1.8,0.1-3.5,0.5-5.2,0.9c-1.7,0.5-3.4,1-5,1.7
		c-1.6,0.6-3.2,1.6-4.7,2.5c-1.5,1.1-2.9,2.1-4.2,3.3c-2.6,2.4-4.8,5.2-6.5,8.2l2.8,1.6c3.2-5.7,7.9-10.5,13.8-13.1
		c1.4-0.7,3-1.2,4.5-1.6c1.6-0.4,3.1-0.8,4.8-0.9c3.3-0.4,6.6-0.4,9.9,0c4.4,0.4,8.8,1.4,13.1,2.7c-3,3.9-5.8,7.9-8.4,12
		c-2.8,4.3-5.4,8.7-7.7,13.3c-2.3,4.5-4.4,9.2-6,14.1c-0.8,2.4-1.3,4.9-1.7,7.4c-0.4,2.6-0.4,5.1-0.1,7.7c-0.4-2.6-0.1-5.1,0.3-7.6
		c0.4-2.6,1.1-5,1.9-7.4c1.6-4.8,3.8-9.4,6.3-13.8c2.5-4.5,5.2-8.7,8.1-12.9s6-8.2,9.1-12.1l-0.2-0.2c1.6,0.5,3.1,1,4.7,1.6
		c3.1,1.1,6.1,2.4,9,3.7c-2,2-3.4,4.5-4.6,6.9c-1.3,2.8-2.1,5.9-2.8,8.9c-1.3,6.1-1.6,12.3-1.3,18.5s1,12.3,2.4,18.4
		c0.7,3,1.6,6,2.7,8.9s2.5,5.7,4.3,8.2c-1.8-2.5-3.1-5.3-4-8.2c-1.1-2.9-1.8-5.9-2.5-8.9c-1.3-6-1.9-12.1-2-18.3
		c-0.1-6.1,0.4-12.3,1.7-18.2c0.6-3,1.6-5.9,2.8-8.7c1.2-2.6,2.8-5,4.8-6.8c2.6,1.2,5.2,2.4,7.7,3.8c11.9,6.2,23.3,13.5,34.4,21.2
		c11.1,7.7,21.8,15.8,32.6,24C175.9,1192.9,165.4,1184.5,154.4,1176.5z"/>
</g>
<g>
	<path id="path84-3" inkscape:connector-curvature="0" class="st0" d="M136.4,372.6c7-1.8,5.2,1.8,11.1-2.3c4.1-2,4.1-0.8,9.3-2.6
		c5.2-1.8,9.4-4.8,9.4-4.8s-1.6-6.2-3.2-11.5s-1.5-3.5-2.1-8c0-7.1-6.4-7.8-9-14.5c-3.3-5.6-10-6.2-15.5-12.2
		c-5.5-6.4-3.7-3-10.1-8.2s-9.4-2.9-13.4-5.1c-7.5-3.7-9.6-2.5-17.9-4.3c-8.3-1.7-13.8,2.1-17.5,5.4s-1.2,11.6-1.2,11.6
		c-10.5,1.2-11.4,7.6-11.9,12.5c-0.6,4.9-2,7.6,4.1,13.4s6.7,10.2,14,14.3c4.1,2,2,4.1,9.9,6.4c7.8,2.3,14.5,6.4,23,7.3
		C123.6,371.1,121,374.9,136.4,372.6L136.4,372.6z"/>
	<g>
		<path class="st1" d="M145.7,353.5l0.3,0.3l0.1-0.1c4.8,2.3,9.6,4.5,14.4,6.8c-4.7-2.4-9.4-4.7-14.1-7c0.7-0.6,1.5-1.2,2.4-1.5
			c1.1-0.4,2.1-0.8,3.2-1.1c2.2-0.6,4.5-0.8,6.8-1c-2.3,0-4.7,0.1-6.9,0.5c-1.2,0.1-2.3,0.4-3.5,0.8c-1.1,0.4-2.2,0.9-3.1,1.8
			c-2.4-1.2-4.7-2.3-7.1-3.5c0.1-0.6,0.4-1.2,1-1.7c0.5-0.6,1.1-1,1.8-1.3c1.3-0.8,2.8-1.4,4.3-1.9c3-1,6.1-1.8,9.2-2.4l0,0
			c-3.1,0.5-6.2,1.1-9.3,2.1c-1.5,0.4-3,1-4.4,1.7c-0.7,0.4-1.4,0.8-2,1.3c-0.5,0.5-1,1.1-1.2,1.8c-3.1-1.6-6.1-3.1-9.2-4.7
			l-3.3-1.7c0.4-0.7,1-1.4,1.7-2.1c0.8-0.7,1.6-1.3,2.5-1.9c1.8-1.1,3.7-2.1,5.7-3c4-1.8,8.1-3.2,12.3-4.3l0,0
			c-4.2,0.9-8.4,2.1-12.5,3.7c-2,0.8-4,1.6-5.9,2.8c-1,0.6-1.9,1.2-2.8,1.9c-0.8,0.7-1.6,1.4-2.1,2.4l-3.7-1.9l-5.6-3h0.3
			c0.1-1,0.5-2,1-3c0.6-1,1.2-1.9,1.9-2.8c1.4-1.8,3.1-3.4,4.8-4.9c1.7-1.6,3.5-3,5.4-4.4c1.8-1.4,3.7-2.8,5.6-4
			c-2,1.2-4,2.5-5.9,3.8s-3.7,2.7-5.6,4.2c-1.8,1.5-3.6,3-5.2,4.8c-0.8,0.9-1.6,1.8-2.2,2.9c-0.6,0.9-1,1.9-1.2,3l-1.3-0.7l-4.5-2.4
			l0.2-1.1l0.1-0.8l0.2-0.7c0.1-0.5,0.3-1,0.4-1.5l0.6-1.4c0.8-1.8,1.8-3.7,3-5.4s2.5-3.3,4-4.8c1.4-1.5,3-2.9,4.7-4.1l0,0
			c-1.8,1.1-3.4,2.4-4.8,3.8c-1.6,1.5-3,3-4.2,4.7c-1.3,1.6-2.5,3.5-3.4,5.4l-0.7,1.4c-0.2,0.5-0.4,1-0.6,1.5l-0.3,0.8l-0.2,0.8
			l-0.2,0.8l-2.2-1.2l-4.6-2.6c0.2-2.1,1-4.1,2-5.9c1-2,2.1-3.8,3.3-5.6c2.4-3.6,5.1-7.1,8-10.4l0,0c-3,3.2-5.8,6.6-8.3,10.2
			c-1.3,1.8-2.5,3.7-3.6,5.6c-1,1.8-1.9,3.6-2.2,5.7l-2.3-1.3c-1-0.6-2-1.2-3-1.7c0-1.9,0.5-3.8,1-5.7c0.6-2,1.5-4,2.5-5.9
			s2-3.7,3.2-5.5c1.1-1.8,2.3-3.5,3.6-5.2c-1.3,1.7-2.6,3.4-3.8,5.2c-1.2,1.8-2.3,3.5-3.3,5.4c-1.1,1.8-2,3.7-2.7,5.8
			c-0.6,1.8-1.1,3.6-1.2,5.5c-1.3-0.8-2.7-1.5-4-2.3l0.1-0.1c-0.4-0.4-0.8-1.1-1-1.9c-0.3-0.8-0.4-1.6-0.5-2.4
			c-0.2-1.6-0.3-3.3-0.2-5c0.1-1.7,0.2-3.4,0.4-5.1c0.1-0.8,0.2-1.7,0.4-2.5c0.1-0.4,0.2-0.8,0.4-1.2c0.1-0.4,0.2-0.8,0.6-1.1
			c-0.3,0.2-0.5,0.6-0.6,1.1c-0.1,0.4-0.3,0.8-0.4,1.2c-0.3,0.8-0.5,1.6-0.6,2.5c-0.4,1.7-0.6,3.4-0.8,5.1c-0.1,1.7-0.2,3.4-0.1,5.2
			c0.1,0.8,0.1,1.8,0.4,2.6c0,0.2,0.1,0.4,0.2,0.6c-1.4-0.8-2.8-1.7-4.2-2.5c-0.3-0.6-0.6-1.2-0.9-1.8c-0.5-1.1-0.8-2.4-1-3.6
			s-0.3-2.5-0.4-3.7c0-1.3,0-2.5,0.1-3.8c-0.2,1.2-0.4,2.5-0.4,3.7c-0.1,1.3-0.1,2.5,0.1,3.8c0.1,1.3,0.4,2.5,0.7,3.8
			c0.1,0.2,0.2,0.4,0.2,0.6c-5.1-3.2-10.1-6.4-15-9.8c-2.4-1.7-4.9-3.4-7.2-5.2l-3.5-2.7c-1.1-1-2.3-1.9-3.4-2.9
			c-0.6-0.4-1.1-0.9-1.7-1.4l-1.6-1.6l-1.6-1.6c-0.5-0.5-1-1.1-1.5-1.6c-0.5-0.6-1.1-1.1-1.5-1.6l-1.3-1.7c-0.4-0.6-0.8-1.2-1.1-1.8
			l-0.4-0.9c-0.1-0.1-0.1-0.3-0.1-0.4l-0.1-0.2h-2.2c0,0.1,0,0.2,0,0.3s0,0.1,0,0.2l0.1,0.4c0.1,0.2,0.1,0.4,0.2,0.6
			c0.1,0.4,0.3,0.8,0.5,1.1c0.4,0.7,0.8,1.4,1.3,2l1.4,1.8c0.5,0.6,1.1,1.1,1.6,1.7c0.5,0.5,1,1.1,1.6,1.6l1.7,1.6l1.7,1.6
			c0.6,0.5,1.2,0.9,1.8,1.4c1.2,0.9,2.3,1.9,3.5,2.8l3.6,2.5c2.3,1.8,4.9,3.5,7.3,5.2c5.3,3.5,10.7,6.9,16.2,10.2
			c-1.1,0.2-2.1,0.6-3,1c-1.5,0.7-2.9,1.5-4.2,2.4c-1.3,0.9-2.6,1.8-3.9,2.9s-2.5,2.1-3.6,3.2c1.2-1.1,2.5-2,3.7-3
			c1.3-0.9,2.6-1.8,4-2.6c1.3-0.8,2.8-1.6,4.2-2c1.3-0.5,2.6-0.8,3.9-0.9c0.1,0.1,0.1,0.2,0.2,0.2l0.4-0.3c1.5,0.9,2.9,1.7,4.4,2.6
			c-1.7,0.7-2.9,1.8-4.2,3c-1.3,1.3-2.6,2.8-3.8,4.2c-2.4,3-4.5,6.1-6.4,9.4c2.1-3.1,4.4-6.1,6.9-8.9c1.3-1.4,2.6-2.8,4-4
			c1.3-1.2,3-2.3,4.6-2.8l-0.1-0.4c1.6,0.9,3.1,1.7,4.7,2.6c-1.4,1-2.4,2.4-3.3,3.8c-1,1.6-1.8,3.3-2.6,5c-1.6,3.5-2.8,7-3.8,10.6
			c1.2-3.6,2.5-7.1,4.2-10.4c0.8-1.6,1.8-3.2,2.8-4.8c1-1.4,2.1-2.8,3.6-3.7c0.6,0.4,1.3,0.7,1.9,1.1l6.3,3.5
			c-1.5,1.5-2.9,3.3-3.9,5.1c-1.1,2-2,4.1-2.8,6.3c-0.7,2.2-1.2,4.4-1.6,6.6c-0.4,2.3-0.6,4.5-0.6,6.8c0.1-2.3,0.4-4.5,0.7-6.8
			c0.5-2.2,1.1-4.4,1.8-6.5c0.8-2.1,1.8-4.1,3-6s2.6-3.6,4.3-5l0.5,0.3l7.5,3.9c-1,0.6-2,1.4-2.7,2.3s-1.3,1.9-1.8,3
			c-1,2-1.7,4.3-2.3,6.5c-0.5,2.3-0.9,4.5-1.3,6.8s-0.6,4.6-0.7,6.8c0.2-2.3,0.5-4.5,0.8-6.7c0.4-2.3,0.8-4.5,1.5-6.7
			c0.6-2.2,1.3-4.4,2.4-6.4c1-2,2.4-4,4.3-4.9l-0.3-0.7l0.5,0.3l5.7,3c-1,1.7-1.8,3.5-2.4,5.4c-0.6,2-0.9,4-1.1,5.9
			c-0.1,2-0.2,4-0.1,6s0.3,4,0.6,5.9l0,0c-0.3-1.9-0.4-4-0.3-6c0-2,0.1-4,0.4-5.9s0.7-3.9,1.3-5.7c0.6-1.8,1.4-3.5,2.5-5.1l1.4,0.7
			l6.2,3.1c-0.6,1.9-1,3.8-1.3,5.7c-0.1,2-0.1,3.9,0,5.9s0.4,3.9,0.8,5.8s0.9,3.8,1.6,5.6c-0.6-1.8-1.1-3.7-1.4-5.6
			s-0.6-3.9-0.6-5.8c-0.1-1.9,0-3.9,0.2-5.8c0.3-1.9,0.7-3.7,1.4-5.5l1.2,0.6c4.4,2.2,8.9,4.4,13.3,6.6l-1-0.3
			c-0.3,1.3-0.3,2.7-0.1,4c0.1,1.3,0.6,2.6,1,3.8c0.5,1.2,1,2.4,1.6,3.5s1.3,2.3,2,3.3l0,0c-0.6-1.1-1.3-2.3-1.8-3.4
			c-0.5-1.2-1-2.4-1.3-3.6c-0.4-1.3-0.6-2.5-0.7-3.7c-0.1-1.3,0-2.5,0.3-3.7C142.9,352.1,144.3,352.8,145.7,353.5z"/>
		<path class="st1" d="M93.9,356.5L93.9,356.5L93.9,356.5z"/>
		<path class="st1" d="M127.5,367L127.5,367L127.5,367z"/>
		<path class="st1" d="M132.4,357.8c-0.2-1.8-0.3-3.5-0.1-5.2c0.1-1.7,0.6-3.4,1.1-5l-1.1-0.4c-0.5,1.8-0.8,3.6-0.8,5.4
			c-0.1,1.8,0.1,3.5,0.4,5.3c0.4,1.7,0.8,3.5,1.4,5.1c0.6,1.6,1.3,3.2,2.2,4.8c-0.8-1.6-1.5-3.2-1.9-4.9
			C133.1,361.3,132.6,359.5,132.4,357.8z"/>
		<path class="st1" d="M135.5,367.8L135.5,367.8L135.5,367.8z"/>
		<path class="st1" d="M150.4,358.3c-0.2-0.7-0.3-1.6-0.1-2.3l-0.2-0.1c-0.2,0.8-0.1,1.6,0.1,2.3c0.2,0.7,0.6,1.5,1,2.1
			c0.8,1.3,1.8,2.5,2.9,3.7c-1.1-1.1-2-2.4-2.8-3.7C150.8,359.8,150.6,359.1,150.4,358.3z"/>
	</g>
</g>
<g>
	<path id="path84-3-9" inkscape:connector-curvature="0" class="st0" d="M158.3,221c7,3.7,6-0.5,11.2,5.3c3.8,3.2,4.1,2,9.3,5.2
		c5.1,3.2,8.8,7.5,8.8,7.5s-3.3,6.2-6.3,11.4s-2.5,3.3-4.3,8c-1.8,7.6-8.8,6.7-13.3,13.2c-5,5.2-12.2,4.1-19.7,9
		c-7.5,5.4-4.7,2.3-12.9,6.1c-8.2,3.8-10.7,0.7-15.6,2c-8.9,2-10.9,0.2-20.1,0c-9.2-0.3-14.1-5.8-17.3-10.3s1.7-12.6,1.7-12.6
		c-10.9-4-10.2-11-9.5-16.4s-0.2-8.6,7.8-13.2s9.8-9.1,18.5-11.6c4.9-1.1,3.2-3.8,12.2-4.3c8.9-0.5,17.1-3.1,26.4-1.8
		C144.4,219.3,142.6,214.6,158.3,221L158.3,221z"/>
	<g>
		<path class="st1" d="M147.4,224.7L147.4,224.7L147.4,224.7z"/>
		<path class="st1" d="M165.8,246.9c1.1,0.7,2.2,1.3,3.5,1.8c2.3,1,4.8,1.7,7.2,2.3c-2.4-0.7-4.9-1.6-7-2.8c-1.1-0.6-2.2-1.2-3.2-2
			c-0.9-0.6-1.6-1.4-2.2-2.3c5.6-1.3,11.2-2.5,16.9-3.8c-5.7,1.2-11.4,2.4-17,3.6l-0.1-0.1l-0.4,0.2c-1.7,0.4-3.3,0.7-5,1.1
			c0-1.3,0.2-2.6,0.6-4c0.4-1.3,1-2.5,1.7-3.8c0.7-1.2,1.5-2.3,2.4-3.5c0.9-1.1,1.9-2.1,2.8-3.1c-1.1,0.9-2.1,2-3,3
			c-1,1-1.8,2.2-2.6,3.3c-0.8,1.2-1.5,2.4-2,3.8c-0.6,1.4-0.9,2.8-1,4.3h1.1c-5.3,1.1-10.6,2.3-15.9,3.6l-1.4,0.3
			c-0.3-2-0.2-4.1-0.1-6.2c0.3-2.1,0.7-4.2,1.3-6.2s1.4-4,2.2-6c0.9-1.9,1.8-3.9,3-5.7c-1.1,1.8-2.2,3.7-3.1,5.6
			c-0.9,1.9-1.7,3.9-2.4,5.9c-0.7,2.1-1.1,4.1-1.5,6.2c-0.3,2.1-0.3,4.3-0.1,6.4l-7.4,1.7l-1.7,0.4c-0.7-2-1.1-4-1.3-6.1
			s-0.1-4.3,0-6.4c0.2-2.2,0.6-4.3,1.1-6.4c0.5-2.2,1.1-4.4,1.8-6.3l0,0c-0.9,2-1.6,4.1-2.2,6.2c-0.6,2.1-1,4.3-1.4,6.4
			c-0.3,2.2-0.4,4.4-0.3,6.6c0.1,2.1,0.5,4.2,1.1,6.3l-6.8,1.7l-0.6,0.1l0.6-0.7c-1.8-1.5-2.8-3.9-3.3-6.3c-0.6-2.4-0.8-4.9-0.9-7.4
			s-0.1-5,0.1-7.5c0.2-2.4,0.5-4.9,0.8-7.4c-0.4,2.4-0.8,5-1,7.5s-0.3,5-0.4,7.5c0,2.5,0.2,5.1,0.7,7.5c0.3,1.3,0.6,2.5,1.1,3.6
			c0.5,1.2,1.3,2.3,2.2,3.2l-8.9,2.2l-0.7,0.2c-1.3-2-2.5-4.1-3.2-6.5c-0.8-2.3-1.3-4.7-1.6-7.2c-0.3-2.5-0.3-4.9-0.3-7.4
			c0.2-2.5,0.5-5,1-7.4c-0.6,2.4-0.9,4.9-1.1,7.4s-0.2,5,0,7.5s0.6,4.9,1.3,7.4c0.7,2.2,1.7,4.4,2.9,6.5l-7.7,2.1
			c-0.8,0.2-1.5,0.4-2.3,0.6c-1.3-1.3-2.2-3.1-2.9-4.8c-0.7-1.9-1.3-3.9-1.8-5.8c-0.9-4-1.4-8.1-1.8-12.2c0.2,4.1,0.6,8.2,1.3,12.3
			c0.4,2,0.9,4,1.5,6c0.6,1.7,1.3,3.4,2.5,4.9c-1.9,0.5-3.8,1-5.6,1.6l0.2-0.4c-1.6-0.9-3.1-2.5-4.2-4.1c-1.2-1.6-2.3-3.4-3.3-5.2
			c-2-3.6-3.6-7.4-5.1-11.2c1.2,3.9,2.6,7.9,4.4,11.6c0.9,1.9,1.9,3.8,3,5.5c1,1.6,2.1,3.1,3.7,4.2c-1.8,0.5-3.6,1.1-5.4,1.6
			l-0.3-0.4c-0.1,0.1-0.2,0.1-0.2,0.2c-1.3-0.4-2.7-1.1-3.9-1.9c-1.5-0.9-2.8-2.1-4-3.3c-1.3-1.2-2.4-2.5-3.6-3.8
			c-1.1-1.4-2.2-2.8-3.2-4.2l0,0c0.9,1.5,1.9,2.9,3,4.4s2.2,2.8,3.4,4.1c1.2,1.3,2.5,2.5,3.9,3.6c0.9,0.7,1.9,1.3,3,1.9
			c-6.7,2.1-13.3,4.3-19.9,6.7c-3.1,1.2-6.2,2.2-9.1,3.6l-4.5,1.8c-1.5,0.7-3,1.4-4.5,2.1c-0.7,0.4-1.5,0.7-2.2,1.1l-2.2,1.2
			l-2.2,1.2c-0.7,0.4-1.4,0.9-2.1,1.3c-0.7,0.5-1.4,0.9-2.1,1.4l-2,1.6c-0.7,0.5-1.2,1.2-1.9,1.9c-0.3,0.3-0.6,0.7-0.8,1.1
			c-0.1,0.2-0.3,0.4-0.4,0.6l-0.2,0.4c0,0.1,0,0.2-0.1,0.2c0,0.1-0.1,0.2-0.1,0.3l2.3,0.6l0.1-0.2c0-0.2,0.1-0.3,0.3-0.4l0.6-0.9
			c0.5-0.5,1.1-1.1,1.7-1.6l1.8-1.5c0.6-0.5,1.3-0.9,2-1.3s1.3-0.9,2-1.3l2.1-1.2l2.1-1.2c0.7-0.4,1.5-0.8,2.2-1.1
			c1.5-0.8,2.9-1.4,4.4-2.2l4.4-2c3-1.4,6-2.5,9-3.7c6.1-2.4,12.3-4.6,18.5-6.6c-0.1,0.2-0.3,0.4-0.4,0.6c-0.7,1.3-1.3,2.6-1.7,3.9
			c-0.5,1.3-0.8,2.7-1.1,4c-0.3,1.4-0.4,2.8-0.5,4.1c0.2-1.4,0.5-2.7,0.8-4.1c0.4-1.3,0.8-2.7,1.3-3.9c0.5-1.2,1.2-2.5,2-3.6
			c0.4-0.6,0.9-1.2,1.4-1.7c1.7-0.6,3.4-1.1,5.1-1.6c-0.1,0.2-0.2,0.4-0.3,0.6c-0.4,0.8-0.8,1.8-1,2.7c-0.5,1.9-0.9,3.7-1.2,5.5
			S90,275.1,90,277c-0.1,0.9-0.1,1.9,0,2.8c0,0.5,0.1,1,0.1,1.4c0,0.6,0.1,1.1,0.4,1.4c-0.3-0.4-0.3-0.9-0.3-1.3c0-0.5,0-1-0.1-1.4
			c0-1,0.1-1.9,0.2-2.8c0.2-1.9,0.5-3.7,0.9-5.5s0.9-3.6,1.5-5.3c0.3-0.9,0.6-1.7,1.1-2.4c0.4-0.8,1-1.4,1.5-1.8l-0.1-0.2
			c1.6-0.5,3.2-1,4.8-1.4c-0.3,2-0.3,4.1-0.1,6.1c0.2,2.4,0.7,4.6,1.4,6.9c0.6,2.3,1.3,4.5,2.1,6.6c0.8,2.2,1.7,4.3,2.7,6.5
			c-0.9-2.1-1.7-4.3-2.5-6.5s-1.4-4.4-2-6.7s-1-4.5-1.1-6.9c-0.2-2.1-0.1-4.3,0.3-6.3c1.2-0.4,2.4-0.7,3.7-1.1l2.8-0.8
			c-0.2,2.3,0.3,4.6,0.9,6.7c0.6,2.3,1.4,4.6,2.4,6.9c1.7,4.5,3.8,8.8,6.2,13l0,0c-2.2-4.3-4.2-8.7-5.8-13.2
			c-0.8-2.3-1.5-4.5-2.1-6.9c-0.5-2.2-0.9-4.6-0.6-6.8l5.5-1.6l2.6-0.7v0.9v0.9l0.1,0.9c0.1,0.6,0.1,1.1,0.2,1.7l0.4,1.7
			c0.5,2.3,1.2,4.5,2.2,6.6c0.9,2.1,2,4.1,3.3,6c1.1,1.9,2.5,3.6,4.1,5.3l0,0c-1.5-1.7-2.8-3.6-3.9-5.6c-1.1-1.9-2.1-4-3-6.1
			c-0.8-2.1-1.4-4.3-1.8-6.5l-0.2-1.6c0-0.6,0-1.1-0.1-1.7v-0.8v-0.9l0.1-1.3l5.4-1.4l1.6-0.4c0,1.2,0.2,2.5,0.5,3.5
			c0.4,1.3,0.9,2.4,1.6,3.6c1.2,2.3,2.7,4.4,4.3,6.4c1.6,2.1,3.2,4,4.9,5.9s3.5,3.8,5.3,5.6c-1.7-1.8-3.4-3.8-5-5.7
			c-1.6-2-3.2-4-4.6-6.1s-2.8-4.3-3.8-6.5c-0.5-1.2-1-2.3-1.3-3.5c-0.3-1.2-0.5-2.4-0.3-3.5h-0.3l6.7-1.8l4.4-1.1
			c0.4,1.2,1,2.2,1.6,3.1c0.7,1,1.5,1.9,2.4,2.7c1.7,1.7,3.7,3.1,5.6,4.5c4,2.7,8.1,5.1,12.4,7.1l0,0c-4.1-2.3-8.2-4.8-12-7.7
			c-1.9-1.4-3.7-3-5.3-4.6c-0.8-0.8-1.6-1.7-2.2-2.7c-0.6-0.9-1.1-1.8-1.3-2.6l3.9-0.9c3.7-0.9,7.3-1.8,11-2.7
			c0,0.9,0.4,1.6,0.8,2.3c0.5,0.8,1.2,1.4,1.8,2c1.3,1.1,2.8,2.1,4.3,2.9c3.1,1.9,6.2,3.3,9.4,4.6c-3.1-1.5-6.3-3.1-9.2-4.9
			c-1.5-0.9-2.9-2-4.1-3.1c-0.7-0.6-1.2-1.2-1.6-1.9c-0.5-0.6-0.7-1.4-0.6-2.1c2.8-0.7,5.6-1.3,8.4-1.9
			C163.7,245.3,164.7,246.1,165.8,246.9z"/>
		<path class="st1" d="M148.7,246.9c-0.1-1.9-0.1-3.8,0.2-5.6s0.8-3.7,1.5-5.5s1.6-3.5,2.5-5.1c0.9-1.7,2-3.3,3.3-4.7
			c-1.3,1.4-2.5,3-3.6,4.6s-2,3.3-2.8,5.1s-1.4,3.6-1.8,5.5c-0.5,1.9-0.5,3.9-0.5,5.9L148.7,246.9z"/>
		<path class="st1" d="M169.6,239.8c0.4-0.8,0.9-1.5,1.5-2c1.2-1.2,2.5-2.3,4-3.2c-1.4,0.9-2.9,1.9-4,3.2c-0.6,0.6-1.2,1.3-1.6,2
			c-0.4,0.8-0.8,1.6-0.7,2.4h0.2C168.9,241.4,169.2,240.5,169.6,239.8z"/>
	</g>
</g>
</svg>
