<?xml version="1.0" encoding="utf-8"?>
<!-- Generator: Adobe Illustrator 22.0.1, SVG Export Plug-In . SVG Version: 6.00 Build 0)  -->
<!DOCTYPE svg PUBLIC "-//W3C//DTD SVG 1.1//EN" "http://www.w3.org/Graphics/SVG/1.1/DTD/svg11.dtd">
<svg version="1.1"
	 id="Capa_1" inkscape:version="0.92.1 r15371" sodipodi:docname="leaves2.svg" xmlns:cc="http://creativecommons.org/ns#" xmlns:dc="http://purl.org/dc/elements/1.1/" xmlns:inkscape="http://www.inkscape.org/namespaces/inkscape" xmlns:rdf="http://www.w3.org/1999/02/22-rdf-syntax-ns#" xmlns:sodipodi="http://sodipodi.sourceforge.net/DTD/sodipodi-0.dtd" xmlns:svg="http://www.w3.org/2000/svg"
	 xmlns="http://www.w3.org/2000/svg" xmlns:xlink="http://www.w3.org/1999/xlink" x="0px" y="0px" viewBox="0 0 263 1422"
	 style="enable-background:new 0 0 263 1422;" xml:space="preserve">
<style type="text/css">
	.st0{fill:#354093;}
	.st1{fill:#68C1BD;}
</style>
<sodipodi:namedview  bordercolor="#666666" borderopacity="1" fit-margin-bottom="0" fit-margin-left="0" fit-margin-right="0" fit-margin-top="0" gridtolerance="10" guidetolerance="10" id="namedview251" inkscape:current-layer="Capa_1" inkscape:cx="99.831928" inkscape:cy="652.96742" inkscape:pageopacity="0" inkscape:pageshadow="2" inkscape:window-height="1017" inkscape:window-maximized="1" inkscape:window-width="1920" inkscape:window-x="-8" inkscape:window-y="-8" inkscape:zoom="0.54873411" objecttolerance="10" pagecolor="#ffffff" showgrid="false">
	</sodipodi:namedview>
<g>
	<path id="path2" inkscape:connector-curvature="0" class="st0" d="M207.7,140.6c-13.8,26-45.3,23.6-52.8,20.2
		c20.3-21,16.5-26.3,8.9-14c-8.7,12.1-14.2,13.7-14.2,13.7l-5.2-2.9c15.9-7.5,24.7-22.2,9.8-12.6c-15,9.6-15,9.6-15,9.6
		s-20-8.4-14.9-11.1c18.8-9.2,33.8-26.4,16.4-14.6c-17.4,11.7-18.1,16.7-30.5,8.4s-21-7.9-5.6-15.7s21.1-20.3,8.6-9.4
		c-12.6,10.9-22.4,11-22.4,11l-2.6-1.7c0,0,6.3-2.3,13.3-7.3c7-4.9,6.4-7.2,1.7-3.3c-4.7,4-17.2,9.4-17.2,9.4s-16.5-13.8-15.7-13.5
		c11.5-3,26.9-8.9,18.2-9.7c-8.7-0.8-12.3,5.2-23.4,6.4C56.9,97.4,44,80.1,44,80.1c14.7,1.8,25.5-2.5,25.5-2.5
		c4.2-1.6,0.3-3.4-5.2-1.5s-14.9-0.2-20.7,1.5c-4.4-3.3-5.6-5-5.6-5c7.9-3.8,17.1,0.2,23.6-1.9c6.5-2.2,6-5.1-0.7-3.5
		c-15.1,2.5-22.6,1.6-27.9-2c-13.6-20-1.4-50.5-0.2-49.8c14.7,8.7,25,3.2,41,8.7c2.1,13-2.8,32.2,2.4,24.7
		c0.5-10.1,0.8-19.5,3.4-23.5c4.8,2.9,6.6,3.7,6.6,3.7c-2.5,16.3,1.5,29.3,1.9,18.5s0.3-18.1,0.3-18.1c7,5.5,18.5,9.3,18.5,9.3
		c3.2,3,1.1,25.4,0.2,28.2c-0.9,2.8,0.7,9.9,4.4,1.2c0.7-9.5,3.4-14.8,1.8-24.1c9.3,5.6,14.4,7.3,15.1,9c-2.5,13.8-7,33.4-1.7,22.7
		c0.9-10.1,3.4-21.7,3.4-21.7c6.6,4.1,15.1,6.1,15.1,14.7s-3.9,26.3,2.6,11.5c3.3-13.1,1.2-17.8,1.2-17.8
		c12.2,9.1,17.7,7.2,21.6,10.8c0.1,7.6-4.3,15.1-5.7,19.4s0.6,13.1,3.9,1.8c3.3-11.3,7-17.9,7-17.9l4,3.4
		c-8.6,20.6-7.7,25.6-1.6,13.1c4.8-10,3.1-11.5,3.1-11.5c10.3,7.1,12.6,8.7,12.6,8.7c0.8,8.6-7.6,16.4-9.7,18.5
		c-5,5.2-4.4,10.4,5.2-1.1c9.6-11.5,10.7-12.2,10.7-12.2C218.7,111.9,210.3,135.6,207.7,140.6L207.7,140.6z"/>
	<g id="g6">
		<path id="path4" inkscape:connector-curvature="0" class="st1" d="M34.5,20.7c6.7,8.6,13.9,16.8,21.4,24.8
			c3.7,4,7.6,7.9,11.5,11.7c3.9,3.8,7.9,7.5,12,11.1c8.2,7.2,16.7,14.1,25.8,20.2c4.5,3.1,9.2,6,14,8.6c4.9,2.6,9.7,5,14.5,7.6
			c19.3,10.2,38.3,20.7,57.1,31.8c9.4,5.5,18.7,11.2,27.9,17s18.3,11.8,26.6,18.5l2.5-3.1c-8.7-6.9-17.9-12.8-27.1-18.7
			c-9.2-5.8-18.7-11.4-28.1-16.8c-18.9-10.8-38.1-21.2-57.6-31.2c-4.8-2.5-9.8-4.9-14.5-7.4c-4.8-2.6-9.4-5.4-13.9-8.3
			c-9-6-17.7-12.6-25.9-19.7C64.1,52.7,48.7,37.3,34.5,20.7L34.5,20.7z"/>
	</g>
</g>
<g>
	<path id="path10" inkscape:connector-curvature="0" class="st0" d="M47.4,453.1c11.3,0.8,40.6,0,40.6,0c16.5-6.8-7.5-7.5-20.3-6.8
		c-12.8,0.8-24,1.5-24,1.5C46,414,49,398.2,88,411c20.3,5.3,27,8.3,27,8.3c23.3,3.7,9.8-11.3-13.5-12.8c-24.8-3.7-37.6-6.8-37.6-6.8
		c9-36.8,45.8-30.8,54.8-30.1c9,0.8,28.6,12.8,35.3,21c15,15,19.5-8.3-9-19.5c-28.6-11.3-35.3-12.8-35.3-12.8s-6.8-15,33.1-22.5
		c43.6-4.5,87.9,25.5,69.1,45.8c-10.9,11.8-15.8,25.5-12,35.3c6.8,17.6,49.6,10.5,55.6,54.1c0,24.8-15.8,23.3-15.8,23.3
		c-14.3-3-25.5-36.1-25.5-36.1c-6.8-10.5-15.8,4.5,0.8,18.8c16.5,14.3,23.3,22.5,10.5,31.6c-12.8,9-30.1,15.8-36.8,12.8
		c-6.8-3-8.3-42.1-8.3-42.1c-0.8-11.3-16.5-1.5-6.8,12c9.8,13.5,18.8,38.3-9.8,40.6c-28.6,2.3-41.3,3.8-48.1-1.5
		c4.5-6.8,21.8-38.3,19.5-51.1s-12.8-7.5-14.3,9s-5.3,42.8-25.5,40.6c-20.3-2.2-30.1-8.3-30.1-8.3s21-20.3,21.8-26.3
		s-2.3-14.3-11.3,0.8c-9,15-13.5,29.3-51.9,6C21.1,470.4,36.1,452.3,47.4,453.1L47.4,453.1z M175.1,463.6c12-3.8-5.3-30.8-5.3-30.8
		S163.1,467.4,175.1,463.6z M140.5,465.9c16.5,0-0.8-27.8-0.8-27.8S125.5,465.9,140.5,465.9z M139.8,410.3
		c-3-22.5-25.6-5.3-10.5-1.5C144.3,412.5,139.8,410.3,139.8,410.3z M100,465.9c3.8,3.7,9.6-5.5,6-9
		C102.2,453.1,96.2,462.1,100,465.9z M104.5,439.6c1.5-5.3-16.5-6.8-18-1.5C84.9,443.3,102.6,446.2,104.5,439.6z"/>
	<g>
		<path class="st1" d="M231.3,419.5c-1.8-1.7-3.8-3.2-5.9-4.7c-2.1-1.3-4.3-2.6-6.6-3.5c-2.3-1-4.7-1.7-7.1-2.4
			c-2.4-0.5-4.8-1-7.3-1.2c-4.9-0.5-9.8-0.3-14.6,0.3c-4.1,0.5-8.2,1.3-12.2,2.4c0.8-5.5-0.1-11-1.5-16.3
			c-1.7-5.8-4.3-11.3-7.5-16.4c-6.5-10.1-15.7-18.5-26.5-23.7c10.7,5.4,19.6,14,25.8,24.1c3.1,5.1,5.5,10.6,7.1,16.3
			c1.4,5.4,2,11,1,16.4c-4.8,1.3-9.5,2.9-14.1,4.6c-1.2,0.5-2.3,0.9-3.5,1.4c-0.2-0.1-0.3-0.2-0.5-0.3c-0.6-0.4-1.2-0.9-1.7-1.4
			c-1.2-1-2.3-2-3.4-3l-6.8-6.2c-4.6-4.1-9.3-8-14.3-11.5s-10.4-6.6-16.2-8.7c-5.8-2.2-12-3.2-18.1-2.7c6.1-0.3,12.2,0.8,17.9,3.1
			c5.7,2.2,10.9,5.4,15.8,9c4.9,3.6,9.5,7.6,13.9,11.8l6.6,6.4c1.1,1.1,2.2,2.1,3.4,3.1c0.5,0.4,1,0.8,1.5,1.2
			c-7,3-13.9,6.4-20.5,10c-3.2,1.7-6.3,3.6-9.5,5.4l0.1-0.2c-5.2-1.3-10.5-2.4-15.8-3.4c-5.3-1-10.6-1.9-15.9-2.6
			s-10.7-1.3-16.1-1.4c-2.7-0.1-5.4-0.1-8.1,0.1c-2.5,0.1-5.2,0.5-7.7,1.3c2.6-0.7,5.3-1,7.9-1.1c2.7-0.1,5.4,0,8,0.2
			c5.3,0.4,10.6,1.1,15.9,2c5.3,0.9,10.5,2,15.7,3.2c4.5,1,9,2.2,13.5,3.4c-12.4,7.4-24.3,15.6-36.1,24
			c-15.5,11.3-30.4,23.1-45.3,34.9c15.1-11.6,30.3-23.1,45.9-33.9c15.6-10.8,31.7-21.1,48.5-29.9c3.6-1.9,7.2-3.6,10.9-5.3
			c2.9,2.6,5.1,6,6.8,9.6c1.8,3.9,3.1,8,4,12.2c1.9,8.4,2.5,17.1,2.4,25.7c-0.1,8.7-1,17.3-2.8,25.8c-0.9,4.2-2,8.4-3.5,12.5
			c-1.3,4-3.1,8-5.7,11.5c2.6-3.5,4.5-7.4,6.1-11.5c1.6-4.1,2.8-8.2,3.8-12.5c2-8.5,3.1-17.2,3.4-25.9c0.3-8.7-0.1-17.5-1.9-26.1
			c-0.9-4.3-2.1-8.6-3.9-12.6c-1.6-3.5-3.6-6.9-6.4-9.8c4.2-1.9,8.4-3.6,12.7-5.2c2.2-0.8,4.4-1.5,6.6-2.2l-0.3,0.2
			c4.5,5.5,8.8,11.2,12.9,17.1c4.1,5.9,7.9,11.9,11.4,18.2s6.6,12.7,8.9,19.5c1.1,3.4,2.1,6.8,2.7,10.4c0.5,2.9,0.8,5.9,0.6,8.9
			c0.3-3,0.1-6-0.3-9c-0.5-3.6-1.3-7.1-2.4-10.5c-2.2-6.9-5.1-13.5-8.4-19.9c-3.3-6.4-7-12.6-10.9-18.7c-3.7-5.8-7.6-11.5-11.9-16.9
			c6-1.8,12.2-3.2,18.4-3.8c4.6-0.5,9.3-0.5,13.9,0c2.3,0.2,4.5,0.7,6.7,1.3c2.2,0.6,4.4,1.3,6.4,2.3c8.3,3.7,14.9,10.5,19.4,18.5
			l3.9-2.3C238,426.9,234.9,422.9,231.3,419.5z"/>
		<path class="st1" d="M205.6,490c-0.1,0.6-0.1,1.2-0.2,1.8C205.5,491.3,205.6,490.6,205.6,490z"/>
	</g>
</g>
<g>
	<path id="path40" inkscape:connector-curvature="0" class="st0" d="M25.2,659.1c11.3-8,38.2-44.2,74.1-53.2
		c23.6-5.9,49.6-16.7,87.9,7.8c-6.9,41.3-74.7,51.1-88.6,54.2C72.4,673.9,45.7,660.8,25.2,659.1z"/>
	<g>
		<path class="st1" d="M193.1,612.3c-8.2-0.1-16.3,0.6-24.4,1.7c-0.3,0-0.5,0.1-0.8,0.1c-0.6-0.7-1.2-1.2-1.8-1.7
			c-1.1-0.8-2.2-1.4-3.4-2c-2.3-1.2-4.7-2.1-7.1-3c-4.9-1.8-9.9-3.2-14.9-4.3c4.9,1.4,9.8,3,14.5,4.9c2.4,1,4.7,2,6.9,3.3
			c1.1,0.6,2.2,1.3,3.1,2.1c0.3,0.3,0.7,0.6,1,1c-6.2,0.9-12.4,2.1-18.6,3.4c-1.9-1.8-4.1-3.3-6.2-4.7c-2.5-1.5-5-2.7-7.6-3.8
			c-2.6-1.1-5.3-2.1-7.9-3c-2.8-0.9-5.5-1.8-8.2-2.5c2.7,0.9,5.3,1.9,7.9,2.9c2.6,1.1,5.2,2.2,7.7,3.5s5,2.6,7.3,4.2
			c1.7,1.2,3.4,2.4,4.8,3.8c-8,1.8-16,3.8-23.9,6.1c-2.1-1.8-4.3-3.6-6.7-4.9c-1.2-0.8-2.5-1.4-3.8-2.1c-1.3-0.6-2.6-1.2-4-1.7
			c-2.7-1.1-5.5-1.9-8.3-2.5c-2.8-0.7-5.7-1.1-8.5-1.1v0c2.9,0.1,5.7,0.6,8.5,1.3s5.5,1.6,8.1,2.8c1.3,0.5,2.6,1.2,3.8,1.9
			c1.2,0.7,2.5,1.4,3.6,2.2c2.1,1.3,3.9,2.9,5.7,4.5c-4.8,1.4-9.6,2.8-14.4,4.3l-0.2-0.1c0,0.1,0,0.1,0,0.2
			c-5.8,1.8-11.5,3.7-17.2,5.6c-2.1-1.2-4.5-1.9-6.8-2.2c-2.6-0.4-5.3-0.3-7.9-0.1s-5.2,0.7-7.7,1.3c-2.4,0.6-4.9,1.3-7.3,2.3
			c2.5-0.8,5-1.4,7.5-1.9s5.1-0.8,7.7-1c2.6-0.1,5.1-0.1,7.6,0.4c1.9,0.3,3.7,0.9,5.3,1.8c-3.8,1.3-7.6,2.7-11.4,4
			c-15.2,5.5-30.3,11.5-45.1,18l0.3,0.3c12.1-5.1,24.3-9.8,36.6-14.2c-0.8,1.6-1.9,3.1-3,4.5c-1.4,1.7-3,3.3-4.6,4.8
			c-3.3,3-6.8,5.8-10.4,8.4v0c3.8-2.4,7.4-5,10.9-7.9c1.7-1.4,3.4-3,4.9-4.6c1.5-1.7,3-3.4,4-5.6l-0.3-0.1c2.4-0.9,4.8-1.7,7.2-2.6
			c4.1-1.4,8.2-2.8,12.4-4.2c0,0,0.1,0.1,0.1,0.1l0.1-0.2c5.5-1.8,11.1-3.6,16.6-5.3c-0.8,2.5-1.8,4.9-3,7.3c-1.5,3-3.2,5.8-5.1,8.6
			c-1.9,2.8-3.9,5.4-6,8c-2.1,2.6-4.3,5.1-6.7,7.5c2.5-2.3,4.8-4.7,7-7.2c2.2-2.5,4.4-5.1,6.4-7.8s3.8-5.5,5.5-8.5
			c1.4-2.7,2.7-5.5,3.7-8.4c5.1-1.5,10.2-3,15.3-4.4c1-0.3,2-0.5,3-0.8c-1.1,3.2-2.7,6.2-4.4,9.2c-2,3.4-4.2,6.7-6.5,9.9
			c-2.3,3.2-4.7,6.4-7.2,9.5c-2.4,3.3-5,6.4-7.6,9.3c2.7-2.9,5.4-5.9,8-8.9c2.6-3,5.1-6.1,7.6-9.2c2.5-3.1,4.8-6.4,7-9.8
			c2.1-3.3,4.1-6.8,5.4-10.6c7.6-2,15.3-3.7,23-5.2c-0.3,3.1-1.4,6.3-2.8,9.2c-1.6,3.6-3.5,7-5.6,10.3c-2.1,3.3-4.4,6.6-6.7,9.7
			c-2.3,3.2-4.7,6.3-7.3,9.3c2.7-2.9,5.3-5.9,7.7-9c2.5-3.1,4.9-6.2,7.1-9.5s4.4-6.6,6.1-10.2c1.5-3.2,2.9-6.5,3.4-10.2
			c5.7-1.1,11.4-2,17.1-2.7c1.9-0.2,3.8-0.4,5.7-0.6c-1,2.4-2.4,4.9-3.8,7.2c-1.6,2.7-3.3,5.3-5.1,7.9c-3.5,5.1-7.3,10.2-11.1,15.2
			c4-4.8,8-9.7,11.7-14.8c1.9-2.5,3.7-5.1,5.5-7.7c1.6-2.6,3.2-5.1,4.4-8c5.6-0.5,11.1-0.7,16.7-0.5c8,0.3,16,1.3,23.2,4.2l1.1-2.8
			C209.6,613.3,201.3,612.5,193.1,612.3z"/>
		<polygon class="st1" points="83.9,662.3 83.9,662.3 83.9,662.3 		"/>
		<polygon class="st1" points="117.7,603.8 117.7,603.8 117.7,603.8 		"/>
	</g>
</g>
<g>
	<path id="path84" inkscape:connector-curvature="0" class="st0" d="M114.4,1421c-9.9-2.5-7.4,2.5-15.7-3.3
		c-5.8-2.9-5.8-1.2-13.2-3.7s-13.3-6.8-13.3-6.8s2.3-8.8,4.5-16.3s2.1-4.9,3-11.3c0-10.1,9-11.1,12.7-20.6c4.7-8,14.1-8.8,22-17.3
		c7.8-9.1,5.2-4.3,14.3-11.6s13.3-4.1,19-7.2c10.6-5.2,13.6-3.6,25.3-6.1c11.7-2.4,19.5,3,24.8,7.7s1.7,16.4,1.7,16.4
		c14.9,1.7,16.1,10.7,16.9,17.7c0.8,7,2.9,10.7-5.8,19c-8.7,8.3-9.5,14.4-19.8,20.2c-5.8,2.9-2.9,5.8-14,9.1s-20.6,9.1-32.6,10.3
		C132.5,1418.9,136.2,1424.3,114.4,1421L114.4,1421z"/>
	<g>
		<path class="st1" d="M248.7,1296.8l-0.1,0.3c0,0.2-0.1,0.4-0.2,0.6l-0.5,1.3c-0.5,0.8-1,1.7-1.6,2.5l-1.8,2.4
			c-0.6,0.8-1.4,1.5-2.1,2.3s-1.4,1.6-2.1,2.3l-2.3,2.2l-2.3,2.2c-0.8,0.7-1.6,1.4-2.4,2c-1.6,1.4-3.2,2.7-4.8,4.1l-5,3.8
			c-3.3,2.6-6.8,5-10.2,7.4c-7,4.8-14.1,9.4-21.3,13.9c0.1-0.3,0.2-0.6,0.4-0.9c0.5-1.8,0.8-3.6,1-5.4c0.2-1.8,0.2-3.6,0.1-5.4
			c-0.1-1.8-0.3-3.6-0.6-5.3c0.2,1.8,0.2,3.6,0.2,5.4c-0.1,1.8-0.2,3.6-0.5,5.3c-0.3,1.7-0.7,3.5-1.4,5.1c-0.4,0.9-0.8,1.7-1.3,2.5
			c-2,1.2-4,2.4-5.9,3.6c0.1-0.3,0.2-0.6,0.2-0.8c0.3-1.2,0.4-2.5,0.5-3.7c0.1-2.5,0-4.9-0.2-7.3c-0.2-2.4-0.6-4.8-1.1-7.2
			c-0.2-1.2-0.5-2.4-0.9-3.5c-0.2-0.6-0.4-1.2-0.6-1.7c-0.2-0.7-0.5-1.3-0.9-1.6h0c0.5,0.4,0.6,1,0.8,1.6c0.2,0.6,0.3,1.2,0.5,1.7
			c0.3,1.2,0.5,2.4,0.6,3.6c0.3,2.4,0.5,4.8,0.6,7.2c0.1,2.4,0,4.8-0.3,7.1c-0.1,1.2-0.3,2.3-0.7,3.4c-0.3,1.1-0.8,2.1-1.4,2.7
			l0.2,0.2c-1.9,1.1-3.7,2.2-5.6,3.3c-0.2-2.7-0.9-5.2-1.8-7.7c-1-2.9-2.3-5.6-3.8-8.2c-1.4-2.7-3-5.2-4.7-7.7s-3.5-4.9-5.4-7.3h0
			c1.8,2.4,3.5,4.9,5.1,7.4c1.6,2.5,3.1,5.1,4.5,7.8c1.4,2.7,2.6,5.4,3.5,8.3c0.8,2.6,1.5,5.3,1.5,8c-1.4,0.8-2.9,1.6-4.3,2.5
			l-3.3,1.9c-0.5-3-1.8-5.6-3.2-8.1c-1.5-2.7-3.2-5.4-5.1-7.9c-3.5-5.1-7.5-9.9-11.7-14.5l0,0c4.1,4.7,7.9,9.7,11.3,14.8
			c1.7,2.6,3.3,5.2,4.7,8c1.4,2.6,2.5,5.5,2.8,8.4l-6.5,3.7l-3.1,1.7l-0.3-1.2l-0.3-1.1l-0.4-1.1c-0.3-0.7-0.5-1.4-0.8-2.1l-1-2
			c-1.3-2.7-2.9-5.3-4.8-7.6c-1.8-2.4-3.8-4.5-6-6.6c-2-2-4.3-3.8-6.8-5.4l0,0c2.4,1.7,4.6,3.7,6.6,5.8s3.9,4.4,5.6,6.8
			c1.7,2.4,3.1,5,4.2,7.6l0.8,2c0.2,0.7,0.4,1.4,0.6,2.1l0.3,1l0.2,1.1l0.3,1.6l-6.3,3.4l-1.8,1c-0.3-1.6-1-3-1.8-4.3
			c-0.9-1.5-1.9-2.8-3.1-4.1c-2.2-2.5-4.7-4.7-7.3-6.8c-2.6-2.1-5.2-4.1-7.9-5.9c-2.7-1.9-5.5-3.7-8.3-5.4c2.7,1.8,5.4,3.7,8,5.7
			c2.6,2,5.2,4.1,7.6,6.3c2.4,2.2,4.8,4.5,6.8,7c1,1.3,1.9,2.6,2.7,4c0.7,1.4,1.3,2.9,1.4,4.3l0.4,0l-7.9,4.2l-5.2,2.7
			c-0.8-1.3-1.9-2.4-3-3.4c-1.2-1-2.5-1.9-3.9-2.7c-2.7-1.6-5.6-2.8-8.4-3.9c-5.8-2.2-11.7-3.9-17.7-5.2l0,0
			c5.9,1.6,11.8,3.6,17.4,6.1c2.8,1.2,5.5,2.6,8.1,4.2c1.3,0.8,2.5,1.7,3.6,2.7c1,0.9,1.9,1.9,2.4,2.9l-4.6,2.4
			c-4.3,2.3-8.7,4.5-13,6.7c-0.3-1.1-1-1.9-1.7-2.6c-0.9-0.8-1.9-1.4-2.9-1.9c-2-1-4.2-1.8-6.3-2.4c-4.4-1.4-8.8-2.3-13.2-3h0
			c4.4,0.9,8.8,2,13,3.4c2.1,0.7,4.2,1.6,6.1,2.7c1,0.5,1.9,1.1,2.6,1.9c0.8,0.7,1.3,1.5,1.4,2.4c-3.3,1.7-6.7,3.3-10,5
			c-1.3-1.2-2.8-1.9-4.4-2.5c-1.6-0.6-3.2-1-4.9-1.2c-3.2-0.6-6.6-0.7-9.8-0.7c3.3,0.2,6.6,0.6,9.7,1.4c1.6,0.4,3.1,0.9,4.6,1.5
			c1.3,0.5,2.5,1.3,3.4,2.2c-6.7,3.3-13.4,6.6-20,9.9c6.8-3.2,13.6-6.4,20.3-9.7c0,0.1,0.1,0.1,0.2,0.2l0.4-0.4c2-0.9,4-1.9,6-2.9
			c0.4,1.7,0.5,3.4,0.4,5.2c-0.1,1.8-0.5,3.5-1,5.3c-0.5,1.7-1.2,3.4-1.9,5.1c-0.8,1.6-1.7,3.2-2.6,4.8l0,0c1.1-1.5,2-3.1,2.9-4.7
			c0.9-1.6,1.6-3.3,2.3-5c0.6-1.7,1.2-3.5,1.4-5.4c0.3-1.9,0.3-3.8-0.1-5.7l-1.4,0.4c6.3-3,12.6-6.1,18.9-9.3l1.7-0.8
			c1,2.5,1.5,5.1,1.9,7.7c0.3,2.7,0.4,5.5,0.3,8.2c-0.1,2.7-0.5,5.5-0.9,8.2c-0.5,2.7-1.1,5.4-2,8c0.9-2.6,1.7-5.3,2.2-8
			c0.6-2.7,1-5.4,1.2-8.2c0.2-2.8,0.2-5.5,0-8.3c-0.3-2.8-0.9-5.4-1.8-8.1l8.8-4.4l2-1c1.5,2.3,2.6,4.7,3.5,7.2
			c0.9,2.6,1.5,5.4,1.9,8.1c0.4,2.8,0.5,5.6,0.5,8.4c0.1,2.9,0,5.8-0.4,8.5v0c0.5-2.8,0.8-5.6,0.9-8.4c0.1-2.8,0-5.7-0.2-8.5
			c-0.3-2.8-0.8-5.6-1.6-8.4c-0.8-2.6-1.9-5.2-3.3-7.6l8-4.2l0.7-0.4l-0.5,1.1c2.7,1.3,4.7,4.1,6.1,6.9c1.5,2.8,2.5,5.9,3.4,9
			c0.9,3.1,1.6,6.3,2.1,9.5c0.5,3.1,0.9,6.3,1.2,9.5c-0.2-3.2-0.5-6.5-1-9.7s-1.1-6.4-1.8-9.6c-0.8-3.1-1.8-6.3-3.2-9.2
			c-0.7-1.5-1.5-2.9-2.5-4.2c-1-1.3-2.3-2.5-3.8-3.3l10.6-5.5l0.8-0.4c2.3,2.1,4.3,4.5,6,7.1c1.7,2.7,3.1,5.5,4.2,8.5
			c1.1,3,1.9,6.1,2.6,9.2c0.5,3.2,0.9,6.4,1,9.6c0-3.2-0.3-6.4-0.8-9.6s-1.2-6.3-2.2-9.4c-1-3.1-2.3-6-3.9-8.9
			c-1.5-2.6-3.5-5.1-5.6-7.3l9-4.9c0.9-0.5,1.8-1,2.7-1.5c2,1.2,3.6,3.2,5.1,5.2c1.5,2.2,2.8,4.5,4,6.8c2.3,4.8,4.2,9.7,5.9,14.8
			c-1.5-5.1-3.2-10.1-5.4-15c-1.1-2.4-2.3-4.8-3.7-7.1c-1.3-1.9-2.7-3.9-4.7-5.4c2.2-1.2,4.4-2.5,6.6-3.7l-0.2,0.6
			c2.3,0.6,4.6,2.2,6.5,3.9c2,1.7,3.9,3.6,5.7,5.6c3.6,3.9,6.8,8.2,9.8,12.6c-2.7-4.6-5.7-9.1-9.1-13.3c-1.7-2.1-3.5-4.2-5.4-6
			c-1.7-1.7-3.6-3.2-5.9-4.2c2.1-1.2,4.2-2.4,6.3-3.7l0.5,0.4c0.1-0.1,0.1-0.2,0.2-0.3c1.8,0.1,3.7,0.6,5.5,1.2
			c2.1,0.7,4.1,1.8,6,2.9c2,1.1,3.8,2.4,5.7,3.7c1.8,1.4,3.6,2.8,5.3,4.3l0,0c-1.6-1.6-3.3-3.1-5.1-4.6s-3.6-2.8-5.5-4.1
			c-1.9-1.3-3.9-2.4-6-3.4c-1.3-0.6-2.8-1.1-4.3-1.4c7.8-4.6,15.4-9.4,23-14.5c3.5-2.4,7.1-4.7,10.4-7.3l5.1-3.6
			c1.7-1.3,3.3-2.7,5-4c0.8-0.7,1.7-1.3,2.5-2l2.4-2.2l2.4-2.2c0.8-0.7,1.5-1.6,2.2-2.3c0.7-0.8,1.5-1.6,2.2-2.4l2-2.6
			c0.7-0.9,1.2-1.9,1.8-2.9c0.3-0.5,0.5-1.1,0.7-1.6c0.1-0.3,0.2-0.6,0.3-0.9l0.1-0.5c0-0.1,0-0.2,0-0.3s0-0.3,0-0.4L248.7,1296.8z"
			/>
		<polygon class="st1" points="174.6,1398.3 174.6,1398.3 174.6,1398.3 		"/>
		<polygon class="st1" points="127,1413.1 127,1413.1 127,1413.1 		"/>
		<path class="st1" d="M120.2,1385.1l-1.5,0.5c0.7,2.3,1.3,4.7,1.5,7.1c0.2,2.4,0.1,4.9-0.2,7.4c-0.3,2.4-0.9,4.9-1.6,7.2
			c-0.6,2.4-1.5,4.7-2.7,6.9c1.2-2.2,2.3-4.5,3.1-6.8c0.9-2.3,1.5-4.8,2-7.2c0.5-2.5,0.7-5,0.6-7.5
			C121.4,1390.2,120.9,1387.6,120.2,1385.1z"/>
		<polygon class="st1" points="115.7,1414.2 115.7,1414.2 115.7,1414.2 		"/>
		<path class="st1" d="M94.7,1397.6c0.3,1,0.2,2.2-0.1,3.2c-0.3,1.1-0.7,2.1-1.3,3c-1.1,1.8-2.5,3.6-4,5.2h0c1.5-1.6,3-3.3,4.1-5.2
			c0.6-0.9,1.1-2,1.4-3c0.3-1.1,0.5-2.2,0.2-3.3L94.7,1397.6z"/>
	</g>
</g>
<g>
	<path id="path168" inkscape:connector-curvature="0" class="st0" d="M214.1,185.4c1-29.4-27.4-43.1-35.6-43.9
		c7.1,28.4,1.1,31,0.7,16.6c-1.5-14.8-5.5-19-5.5-19h-5.9c10,14.4,10.3,31.6,2.2,15.8s-8.1-15.8-8.1-15.8s-21.5-2.7-18.5,2.1
		c11.6,17.4,16.1,39.7,6.9,20.9c-9.2-18.9-7.3-23.5-22.2-22.5s-22.2-3.7-12.7,10.8s8.1,28.2,2.7,12.4c-5.4-15.8-13.8-20.7-13.8-20.7
		l-3.1,0.1c0,0,4.3,5.2,7.9,12.9c3.6,7.8,1.9,9.5-0.2,3.7c-2.1-5.8-10.2-16.7-10.2-16.7s-21.2,3.7-20.4,3.8
		c8.5,8.3,18.8,21.1,10.9,17.5c-7.9-3.7-8-10.7-17-17.2c-10.2,1.2-30,9.7-30,9.7c13.6,5.8,20.8,14.9,20.8,14.9
		c2.8,3.4-1.4,3.1-5.3-1.3c-3.9-4.4-13.1-7.3-17.2-11.6c-5.5,0.7-7.3,1.6-7.3,1.6c4.9,7.3,14.9,8.3,19.5,13.4
		c4.5,5.1,2.7,7.4-2.3,2.7c-11.8-9.7-18.8-12.7-25.1-12.2c-21.7,10.5-26.5,43-25,43.1c17.1-0.2,23.3,9.7,39.9,13
		c8.3-10.1,13.7-29.3,14.4-20.2c-4.6,8.9-9.1,17.3-8.8,22c5.6-0.1,7.6,0.1,7.6,0.1c6-15.4,15.9-24.7,10.8-15.1
		c-5.1,9.6-8.7,15.8-8.7,15.8c8.8-1.2,20.7,1.2,20.7,1.2c4.3-1,13.7-21.5,14.3-24.4s5.6-8.3,4.4,1.2c-4.1,8.6-4.5,14.5-10.5,21.8
		c10.9-0.2,16.1,0.8,17.6-0.3c4.7-13.2,10.6-32.4,9.9-20.5c-4.3,9.2-7.9,20.5-7.9,20.5c7.8-0.2,16.1,2.2,20.4-5.2
		c4.3-7.5,9.7-24.7,8-8.7c-3.6,13-7.9,16-7.9,16c15.1-1.8,19,2.6,24.1,1.4c3.9-6.6,3.8-15.3,4.7-19.6s7.1-11,4.3,0.4s-2.9,19-2.9,19
		l5.2-0.9c2.9-22.1,6.1-26,5.2-12.1c-0.9,11.1-3.1,11.5-3.1,11.5c12.4-1,15.2-1.2,15.2-1.2c4.9-7,1.6-18,0.8-20.9
		c-1.8-7,1.4-11.2,4,3.5s3.1,16.3,3.1,16.3C209.4,215.7,213.9,191.1,214.1,185.4L214.1,185.4z"/>
	<g id="g172">
		<path id="path170" inkscape:connector-curvature="0" class="st1" d="M4.2,202.6c20.6-7.2,41.7-12.9,63-16.9
			c10.7-2,21.5-3.4,32.3-4.1c5.4-0.3,10.8-0.4,16.2-0.3c5.4,0.2,10.9,0.6,16.3,0.8c21.8,1.1,43.6,1.7,65.4,1.8
			c10.9,0,21.8-0.1,32.8-0.5c10.9-0.4,21.8-1,32.8-2.6l-0.6-3.9c-10.6,1.6-21.5,2.2-32.3,2.7c-10.9,0.4-21.7,0.7-32.6,0.8
			c-21.8,0.2-43.5-0.2-65.3-1c-5.5-0.2-10.8-0.5-16.4-0.7c-5.5-0.1-11,0.1-16.5,0.4c-10.9,0.8-21.8,2.4-32.5,4.6
			c-5.4,1.1-10.7,2.3-16,3.6c-5.3,1.4-10.5,2.8-15.8,4.4C24.6,195,14.3,198.6,4.2,202.6L4.2,202.6z"/>
	</g>
</g>
<g>
	<path id="path176" inkscape:connector-curvature="0" class="st0" d="M24.5,967c32.2-19.6,35.9-7.6,43.5,5s10.1,5.7,9.5,0.6
		c-0.6-5-18.3-22.1-18.3-22.1s8.2-5,25.2-6.9s20.2,20.2,21.4,34c1.3,13.9,10.1,18.3,12,7.6s-12.6-37.2-16.4-42.9
		c5.7-4.4,16.4-3.2,40.4-1.3s16.4,22.7,8.2,34s5,19.5,5.7,10.1c0,0,1.3-32.8,6.9-35.3c5.7-2.5,20.2,3.2,30.9,10.7
		c10.7,7.6,5,14.5-8.8,26.5c-13.9,12-6.3,24.6-0.6,15.8c0,0,9.5-27.7,21.4-30.3c0,0,13.2-1.3,13.2,19.5c-5,36.6-41,30.6-46.7,45.4
		c-3.2,8.2,0.9,19.7,10.1,29.6c15.8,17-21.4,42.2-58,38.5c-33.4-6.3-27.7-18.9-27.7-18.9s5.7-1.3,29.6-10.7c24-9.5,20.2-29,7.6-16.4
		c-5.7,6.9-22.1,17-29.6,17.6c-7.6,0.6-38.5,5.7-46-25.2c0,0,10.7-2.5,31.5-5.7c19.6-1.3,30.9-13.9,11.3-10.7c0,0-5.7,2.5-22.7,6.9
		c-32.8,10.7-35.3-2.5-37.2-30.9c0,0,9.5,0.6,20.2,1.3c10.7,0.6,30.9,0,17-5.7c0,0-24.6-0.6-34,0C34.6,1007.9,22,992.8,24.5,967
		L24.5,967z M146.8,1024.3c0,0,14.5-22.7,4.4-25.8C141.2,995.3,146.8,1024.3,146.8,1024.3z M121.6,1019.9c0,0,14.5-23.3,0.6-23.3
		C109.6,996.6,121.6,1019.9,121.6,1019.9z M112.8,1044.5c-12.6,3.1,6.3,17.6,8.8-1.3C121.6,1043.2,125.4,1041.3,112.8,1044.5z
		 M93.3,1004.2c3-3-1.9-10.7-5-7.6C85.1,999.7,90.1,1007.3,93.3,1004.2z M76.9,1019.9c1.3,4.4,16.4,3.1,15.1-1.3
		C90.4,1013.1,75.6,1015.5,76.9,1019.9z"/>
	<g>
		<path class="st1" d="M202.7,1023.7c-3.8,6.7-9.3,12.4-16.2,15.5c-1.7,0.8-3.5,1.4-5.4,1.9c-1.9,0.5-3.7,0.9-5.7,1.1
			c-3.8,0.5-7.7,0.4-11.6,0c-5.1-0.5-10.2-1.6-15.1-3.1c3.5-4.5,6.7-9.2,9.8-13.9c3.3-5.1,6.4-10.3,9.1-15.7
			c2.8-5.4,5.2-10.9,7-16.7c0.9-2.9,1.6-5.8,2-8.8c0.4-2.7,0.5-5.2,0.3-7.7c0.2,2.5-0.1,5-0.5,7.5c-0.5,3-1.3,5.9-2.3,8.7
			c-2,5.7-4.6,11.1-7.5,16.4c-2.9,5.3-6.1,10.3-9.5,15.3c-3.4,4.9-6.9,9.7-10.7,14.3c-1.8-0.6-3.7-1.2-5.5-1.9
			c-3.5-1.3-7-2.7-10.4-4.3c2.4-2.4,4.1-5.3,5.4-8.2c1.5-3.4,2.5-7,3.2-10.6c1.5-7.2,1.8-14.6,1.6-21.9c-0.2-7.3-1.2-14.6-2.8-21.7
			c-0.8-3.6-1.9-7.1-3.2-10.5c-1.4-3.4-3-6.7-5.2-9.6c2.1,3,3.7,6.3,4.9,9.7c1.3,3.4,2.2,6.9,3,10.5c1.5,7.1,2.3,14.4,2.4,21.6
			c0.1,7.3-0.4,14.5-2,21.6c-0.8,3.5-1.9,7-3.4,10.2c-1.4,3.1-3.3,5.9-5.8,8.1c-3.2-1.5-6.3-3-9.4-4.6c-14.1-7.4-27.6-16-40.7-25
			c-13-9.1-25.7-18.7-38.4-28.4c12.5,9.9,25,19.8,38,29.2c9.8,7.1,19.9,14,30.3,20.2c-3.7,1-7.5,2-11.2,2.8c-4.4,1-8.8,1.9-13.2,2.7
			c-4.4,0.8-8.9,1.4-13.4,1.7c-2.2,0.1-4.5,0.2-6.7,0.1c-2.3,0-4.6-0.2-6.7-0.9v0c2.1,0.7,4.4,1,6.6,1.2c2.3,0.2,4.5,0.2,6.8,0.1
			c4.5-0.1,9-0.6,13.5-1.2c4.5-0.6,8.9-1.4,13.4-2.2c4.4-0.9,8.8-1.8,13.2-2.9l0-0.1c2.6,1.5,5.1,3,7.7,4.4
			c5.6,3.1,11.4,5.9,17.4,8.5c-0.4,0.3-0.9,0.7-1.3,1.1c-1,0.9-1.9,1.7-2.8,2.6l-5.5,5.3c-3.7,3.5-7.5,6.9-11.7,9.9
			c-4.1,3-8.5,5.7-13.3,7.5c-4.8,2-10,2.9-15.1,2.6l0,0c5.1,0.4,10.3-0.4,15.1-2.2s9.3-4.3,13.6-7.3c4.2-2.9,8.2-6.2,12-9.7l5.7-5.2
			c0.9-0.9,1.9-1.7,2.9-2.5c0.5-0.4,1-0.8,1.5-1.1c0.2-0.1,0.4-0.2,0.5-0.4c0.9,0.4,1.8,0.8,2.8,1.2c3.9,1.5,7.8,2.8,11.9,3.9
			c0.9,4.5,0.4,9.3-0.9,13.8c-1.3,4.8-3.3,9.4-5.9,13.7c-5.3,8.4-12.8,15.6-21.7,20.2v0c9.1-4.4,16.7-11.4,22.2-19.9
			c2.7-4.2,4.9-8.9,6.3-13.7c1.3-4.4,1.9-9.1,1.2-13.8c3.4,0.9,6.8,1.5,10.3,2c4,0.5,8.2,0.6,12.3,0.2c2.1-0.2,4.1-0.6,6.1-1
			c2-0.5,4-1.1,5.9-2c1.9-0.8,3.8-1.8,5.5-3c1.7-1.2,3.4-2.4,4.9-3.9c3.1-2.9,5.6-6.2,7.7-9.8L202.7,1023.7z"/>
		<path class="st1" d="M176.8,974.8c0.1,0.5,0.1,1,0.1,1.5C176.9,975.7,176.8,975.3,176.8,974.8L176.8,974.8z"/>
	</g>
</g>
<g>
	<path id="path206" inkscape:connector-curvature="0" class="st0" d="M78.6,557.2c7.5,6.4,24.4,33.7,49.4,42.4
		c16.4,5.6,34.2,14.9,62.9-0.1c-2.4-29.7-49.9-40.9-59.6-44C113.1,549.6,93.3,557.2,78.6,557.2L78.6,557.2z"/>
	<g>
		<path class="st1" d="M212,597.2c-5.3,1.6-11.1,1.9-16.8,1.6c-4-0.2-7.9-0.8-11.8-1.4c-0.6-2.1-1.6-4-2.7-5.9
			c-1.1-2-2.2-3.9-3.4-5.8c-2.3-3.7-4.8-7.4-7.3-11.1c2.4,3.8,4.8,7.6,7,11.5c1.1,1.9,2.1,3.9,3.1,5.9c0.9,1.7,1.7,3.5,2.2,5.3
			c-1.3-0.2-2.7-0.5-4-0.8c-4-0.9-8.1-1.9-12.1-3c-0.1-2.6-0.9-5-1.8-7.3c-1.1-2.6-2.4-5.2-3.7-7.6c-1.4-2.5-2.9-4.8-4.5-7.2
			c-1.4-2.4-3-4.7-4.8-6.9c1.6,2.3,3.2,4.6,4.6,7.1c1.5,2.4,2.9,4.8,4.1,7.3c1.3,2.5,2.5,5.1,3.4,7.7c0.8,2.2,1.4,4.4,1.4,6.6
			c-5.4-1.5-10.7-3.2-16-5.1c-0.7-2.8-1.9-5.4-3.2-7.8c-1.4-2.6-2.8-5-4.4-7.3c-1.6-2.4-3.1-4.7-4.8-7.1c-1.6-2.4-3.3-4.6-5.1-6.8
			c1.7,2.3,3.3,4.6,4.8,7c1.6,2.4,3.1,4.8,4.5,7.2c1.4,2.4,2.8,4.9,4,7.5c1.1,2.2,2,4.5,2.6,6.8c-0.7-0.3-1.4-0.5-2.2-0.8
			c-3.5-1.3-7.1-2.6-10.6-4c-0.5-2.1-1.3-4.2-2.1-6.2c-1-2.2-2.1-4.4-3.4-6.3c-1.3-2.1-2.6-4-4.1-5.9c-1.4-1.9-2.9-3.8-4.6-5.6
			c1.6,1.9,3,3.8,4.4,5.7c1.4,2,2.6,4,3.8,6.1c1.1,2.1,2.2,4.2,3.1,6.4c0.7,1.8,1.3,3.6,1.7,5.4c-3.8-1.5-7.7-3.1-11.5-4.7l0,0
			c0,0,0,0,0,0c-2.9-1.2-5.8-2.5-8.7-3.8c-1.6-0.7-3.2-1.5-4.8-2.2l0.3-0.1c-0.6-1.6-1.5-3-2.5-4.3c-1-1.3-2.1-2.5-3.2-3.6
			c-2.4-2.3-4.8-4.4-7.3-6.3c2.4,2.1,4.7,4.3,6.8,6.6c1.1,1.1,2.1,2.4,3,3.7c0.7,1.1,1.4,2.2,1.9,3.4c-8.5-3.9-16.9-8-25.2-12.4
			l-0.1,0.3c10.1,5.5,20.5,10.6,31,15.5c2.6,1.2,5.3,2.4,7.9,3.6c-1.2,0.5-2.6,0.9-4,1c-1.8,0.1-3.6,0.1-5.5-0.2
			c-1.8-0.3-3.6-0.6-5.4-1.1c-1.7-0.6-3.4-1.1-5.1-1.9c1.6,0.8,3.4,1.5,5.1,2.1c1.8,0.6,3.6,1.1,5.3,1.4c1.9,0.4,3.7,0.5,5.6,0.4
			c1.7-0.1,3.5-0.5,5.1-1.2c3.9,1.7,7.8,3.4,11.8,5c0,0,0,0.1,0,0.1l0.2,0c3.4,1.4,6.7,2.7,10.1,4c-1.4,1.1-2.8,2.1-4.4,3
			c-0.9,0.5-1.8,0.9-2.7,1.4c-0.9,0.4-1.9,0.8-2.9,1.1c-1.9,0.6-3.9,1.1-5.9,1.4c-2,0.4-4.1,0.5-6.1,0.4v0c2.1,0.1,4.1,0.1,6.1-0.1
			c2.1-0.2,4.1-0.6,6.1-1.2c1-0.3,1.9-0.6,2.9-1c0.9-0.4,1.9-0.8,2.9-1.3c1.8-0.9,3.5-2,5.1-3.2c5.5,2,10.9,4,16.5,5.7
			c-1.1,0.9-2.4,1.8-3.8,2.5c-1.7,1-3.6,1.8-5.4,2.5c-1.9,0.7-3.8,1.4-5.7,2c-1.8,0.6-3.7,1.1-5.7,1.6c2-0.4,3.9-0.8,5.9-1.2
			c1.9-0.5,3.9-1,5.8-1.6c1.9-0.6,3.9-1.4,5.6-2.3c1.7-0.9,3.3-1.8,4.8-3c4.3,1.3,8.7,2.5,13.1,3.6c-0.3,0.3-0.6,0.5-0.9,0.7
			c-0.7,0.5-1.5,0.9-2.4,1.3c-1.6,0.8-3.4,1.4-5.1,1.9c-3.5,1.1-7.1,1.9-10.6,2.6c3.6-0.5,7.2-1.2,10.8-2.1c1.8-0.5,3.6-1,5.3-1.7
			c0.9-0.4,1.7-0.7,2.5-1.2c0.5-0.3,1.1-0.7,1.5-1.2c0.2,0,0.3,0.1,0.5,0.1c5.6,1.3,11.4,2.3,17.2,2.7c5.8,0.4,11.8,0.3,17.5-1.4
			L212,597.2z"/>
		<polygon class="st1" points="100.8,575.6 100.8,575.6 100.8,575.6 		"/>
	</g>
</g>
<g>
	<path id="path10-6" inkscape:connector-curvature="0" class="st0" d="M79.9,1172.7c8,0.6,28.8,0,28.8,0c11.7-4.8-5.3-5.3-14.4-4.8
		c-9.1,0.6-17,1.1-17,1.1c1.6-24,3.8-35.2,31.4-26.1c14.4,3.8,19.2,5.9,19.2,5.9c16.5,2.6,7-8-9.6-9.1c-17.6-2.6-26.7-4.8-26.7-4.8
		c6.4-26.1,32.5-21.8,38.9-21.3c6.4,0.6,20.3,9.1,25,14.9c10.6,10.6,13.8-5.9-6.4-13.8c-20.3-8-25-9.1-25-9.1s-4.8-10.6,23.5-16
		c30.9-3.2,62.3,18.1,49,32.5c-7.7,8.4-11.2,18.1-8.5,25c4.8,12.5,35.2,7.4,39.4,38.4c0,17.6-11.2,16.5-11.2,16.5
		c-10.1-2.1-18.1-25.6-18.1-25.6c-4.8-7.4-11.2,3.2,0.6,13.3c11.7,10.1,16.5,16,7.4,22.4c-9.1,6.4-21.3,11.2-26.1,9.1
		c-4.8-2.1-5.9-29.9-5.9-29.9c-0.6-8-11.7-1.1-4.8,8.5c7,9.6,13.3,27.2-7,28.8s-29.3,2.7-34.1-1.1c3.2-4.8,15.5-27.2,13.8-36.2
		c-1.6-9.1-9.1-5.3-10.1,6.4s-3.8,30.4-18.1,28.8c-14.4-1.6-21.3-5.9-21.3-5.9s14.9-14.4,15.5-18.7c0.6-4.3-1.6-10.1-8,0.6
		c-6.4,10.6-9.6,20.8-36.8,4.3C61.2,1185,71.8,1172.1,79.9,1172.7L79.9,1172.7z M170.4,1180.1c8.5-2.7-3.8-21.8-3.8-21.8
		S161.9,1182.8,170.4,1180.1z M145.9,1181.8c11.7,0-0.6-19.7-0.6-19.7S135.3,1181.8,145.9,1181.8z M145.4,1142.3
		c-2.1-16-18.2-3.8-7.4-1.1C148.6,1143.9,145.4,1142.3,145.4,1142.3z M117.2,1181.8c2.7,2.6,6.8-3.9,4.3-6.4
		C118.7,1172.7,114.5,1179.1,117.2,1181.8z M120.4,1163.1c1.1-3.8-11.7-4.8-12.8-1.1C106.5,1165.7,119,1167.8,120.4,1163.1z"/>
	<path class="st1" d="M210.3,1148.9c-1.3-1.2-2.7-2.3-4.2-3.3c-1.5-0.9-3-1.8-4.7-2.5c-1.6-0.7-3.3-1.2-5-1.7
		c-1.7-0.4-3.4-0.7-5.2-0.9c-3.5-0.4-7-0.2-10.4,0.2c-2.9,0.4-5.8,0.9-8.6,1.7c0.6-3.9-0.1-7.8-1.1-11.5c-1.2-4.1-3-8-5.3-11.6
		c-4.6-7.2-11.1-13.1-18.8-16.8c7.6,3.8,13.9,9.9,18.3,17.1c2.2,3.6,3.9,7.5,5,11.6c1,3.8,1.4,7.8,0.7,11.6c-3.4,0.9-6.7,2-10,3.3
		c-0.8,0.3-1.6,0.7-2.5,1c-0.1-0.1-0.2-0.2-0.4-0.2c-0.4-0.3-0.9-0.6-1.2-1c-0.9-0.7-1.6-1.4-2.4-2.1l-4.8-4.4
		c-3.3-2.9-6.6-5.7-10.1-8.2c-3.5-2.5-7.4-4.7-11.5-6.2c-4.1-1.6-8.5-2.3-12.8-1.9c4.3-0.2,8.7,0.6,12.7,2.2c4,1.6,7.7,3.8,11.2,6.4
		c3.5,2.6,6.7,5.4,9.9,8.4l4.7,4.5c0.8,0.8,1.6,1.5,2.4,2.2c0.4,0.3,0.7,0.6,1.1,0.9c-5,2.1-9.8,4.5-14.5,7.1
		c-2.3,1.2-4.5,2.5-6.7,3.8l0-0.1c-3.7-0.9-7.4-1.7-11.2-2.4c-3.8-0.7-7.5-1.3-11.3-1.8c-3.8-0.5-7.6-0.9-11.4-1
		c-1.9-0.1-3.8-0.1-5.7,0.1c-1.8,0.1-3.7,0.4-5.5,0.9c1.8-0.5,3.8-0.7,5.6-0.8c1.9-0.1,3.8,0,5.7,0.1c3.8,0.3,7.5,0.8,11.3,1.4
		c3.8,0.6,7.4,1.4,11.1,2.3c3.2,0.7,6.4,1.5,9.5,2.4c-8.8,5.3-17.2,11-25.6,17c-11,8-21.6,16.4-32.1,24.8
		c10.7-8.2,21.5-16.4,32.6-24c11.1-7.7,22.5-15,34.4-21.2c2.5-1.3,5.1-2.6,7.7-3.8c2,1.9,3.6,4.2,4.8,6.8c1.3,2.8,2.2,5.7,2.8,8.7
		c1.3,6,1.8,12.1,1.7,18.2c-0.1,6.2-0.7,12.3-2,18.3c-0.6,3-1.4,6-2.5,8.9c-0.9,2.8-2.2,5.7-4,8.2c1.8-2.5,3.2-5.2,4.3-8.2
		c1.1-2.9,2-5.8,2.7-8.9c1.4-6,2.2-12.2,2.4-18.4s-0.1-12.4-1.3-18.5c-0.6-3-1.5-6.1-2.8-8.9c-1.1-2.5-2.6-4.9-4.6-6.9
		c3-1.3,6-2.6,9-3.7c1.5-0.6,3.1-1.1,4.7-1.6l-0.2,0.2c3.2,3.9,6.2,7.9,9.1,12.1c2.9,4.2,5.6,8.4,8.1,12.9c2.5,4.5,4.7,9,6.3,13.8
		c0.8,2.4,1.5,4.8,1.9,7.4c0.4,2.5,0.6,5,0.3,7.6c0.4-2.6,0.3-5.1-0.1-7.7c-0.4-2.6-0.9-5-1.7-7.4c-1.6-4.9-3.6-9.6-6-14.1
		c-2.3-4.5-5-8.9-7.7-13.3c-2.6-4.1-5.4-8.1-8.4-12c4.3-1.3,8.6-2.2,13.1-2.7c3.3-0.4,6.6-0.4,9.9,0c1.6,0.1,3.2,0.5,4.8,0.9
		c1.6,0.4,3.1,0.9,4.5,1.6c5.9,2.6,10.6,7.4,13.8,13.1l2.8-1.6C215.1,1154.1,212.9,1151.3,210.3,1148.9z"/>
</g>
<g>
	<path id="path84-3" inkscape:connector-curvature="0" class="st0" d="M126.6,932c-7-1.8-5.2,1.8-11.1-2.3c-4.1-2-4.1-0.8-9.3-2.6
		c-5.2-1.8-9.4-4.8-9.4-4.8s1.6-6.2,3.2-11.5c1.6-5.3,1.5-3.5,2.1-8c0-7.1,6.4-7.8,9-14.5c3.3-5.6,10-6.2,15.5-12.2
		c5.5-6.4,3.7-3,10.1-8.2c6.4-5.2,9.4-2.9,13.4-5.1c7.5-3.7,9.6-2.5,17.9-4.3c8.3-1.7,13.8,2.1,17.5,5.4c3.7,3.3,1.2,11.6,1.2,11.6
		c10.5,1.2,11.4,7.6,11.9,12.5c0.6,4.9,2,7.6-4.1,13.4c-6.1,5.9-6.7,10.2-14,14.3c-4.1,2-2,4.1-9.9,6.4c-7.8,2.3-14.5,6.4-23,7.3
		C139.3,930.6,142,934.4,126.6,932L126.6,932z"/>
	<g>
		<path class="st1" d="M221.4,844.4l-0.1,0.2c0,0.1-0.1,0.3-0.1,0.4l-0.4,0.9c-0.4,0.6-0.7,1.2-1.1,1.8l-1.3,1.7
			c-0.4,0.6-1,1.1-1.5,1.6c-0.5,0.6-1,1.1-1.5,1.6l-1.6,1.6l-1.6,1.6c-0.6,0.5-1.1,1-1.7,1.4c-1.1,1-2.3,1.9-3.4,2.9l-3.5,2.7
			c-2.3,1.8-4.8,3.5-7.2,5.2c-4.9,3.4-9.9,6.7-15,9.8c0.1-0.2,0.2-0.4,0.2-0.6c0.4-1.3,0.6-2.5,0.7-3.8c0.1-1.3,0.1-2.5,0.1-3.8
			c-0.1-1.3-0.2-2.5-0.4-3.7c0.1,1.3,0.1,2.5,0.1,3.8c-0.1,1.3-0.1,2.5-0.4,3.7s-0.5,2.5-1,3.6c-0.3,0.6-0.6,1.2-0.9,1.8
			c-1.4,0.9-2.8,1.7-4.2,2.5c0.1-0.2,0.1-0.4,0.2-0.6c0.2-0.8,0.3-1.8,0.4-2.6c0.1-1.8,0-3.5-0.1-5.2c-0.1-1.7-0.4-3.4-0.8-5.1
			c-0.1-0.8-0.4-1.7-0.6-2.5c-0.1-0.4-0.3-0.8-0.4-1.2c-0.1-0.5-0.4-0.9-0.6-1.1c0.4,0.3,0.4,0.7,0.6,1.1c0.1,0.4,0.2,0.8,0.4,1.2
			c0.2,0.8,0.4,1.7,0.4,2.5c0.2,1.7,0.4,3.4,0.4,5.1c0.1,1.7,0,3.4-0.2,5c-0.1,0.8-0.2,1.6-0.5,2.4c-0.2,0.8-0.6,1.5-1,1.9l0.1,0.1
			c-1.3,0.8-2.7,1.5-4,2.3c-0.1-1.9-0.6-3.7-1.2-5.5c-0.7-2-1.6-4-2.7-5.8c-1-1.9-2.1-3.7-3.3-5.4c-1.2-1.8-2.5-3.5-3.8-5.2
			c1.3,1.7,2.5,3.5,3.6,5.2c1.1,1.8,2.2,3.6,3.2,5.5s1.8,3.8,2.5,5.9c0.6,1.8,1,3.8,1,5.7c-1,0.6-2,1.2-3,1.7l-2.3,1.3
			c-0.4-2.1-1.3-4-2.2-5.7c-1.1-1.9-2.3-3.8-3.6-5.6c-2.5-3.6-5.3-7-8.3-10.2v0c2.9,3.3,5.6,6.8,8,10.4c1.2,1.8,2.3,3.7,3.3,5.6
			c1,1.9,1.8,3.9,2,5.9l-4.6,2.6l-2.2,1.2l-0.2-0.8l-0.2-0.8l-0.3-0.8c-0.2-0.5-0.4-1-0.6-1.5l-0.7-1.4c-0.9-1.9-2-3.7-3.4-5.4
			c-1.3-1.7-2.7-3.2-4.2-4.7c-1.4-1.4-3-2.7-4.8-3.8c1.7,1.2,3.2,2.6,4.7,4.1s2.8,3.1,4,4.8c1.2,1.7,2.2,3.5,3,5.4l0.6,1.4
			c0.1,0.5,0.3,1,0.4,1.5l0.2,0.7l0.1,0.8l0.2,1.1l-4.5,2.4l-1.3,0.7c-0.2-1.1-0.7-2.2-1.2-3c-0.6-1.1-1.3-2-2.2-2.9
			c-1.6-1.8-3.3-3.3-5.2-4.8c-1.8-1.5-3.7-2.9-5.6-4.2c-1.9-1.3-3.9-2.6-5.9-3.8c1.9,1.3,3.8,2.6,5.6,4c1.8,1.4,3.7,2.9,5.4,4.4
			c1.7,1.6,3.4,3.2,4.8,4.9c0.7,0.9,1.3,1.8,1.9,2.8c0.5,1,0.9,2,1,3l0.3,0l-5.6,3l-3.7,1.9c-0.6-0.9-1.3-1.7-2.1-2.4
			c-0.8-0.7-1.8-1.3-2.8-1.9c-1.9-1.1-4-2-5.9-2.8c-4.1-1.6-8.3-2.8-12.5-3.7v0c4.2,1.1,8.3,2.5,12.3,4.3c2,0.8,3.9,1.8,5.7,3
			c0.9,0.6,1.8,1.2,2.5,1.9c0.7,0.6,1.3,1.3,1.7,2.1l-3.3,1.7c-3.1,1.6-6.1,3.2-9.2,4.7c-0.2-0.8-0.7-1.4-1.2-1.8
			c-0.6-0.6-1.3-1-2-1.3c-1.4-0.7-3-1.3-4.4-1.7c-3.1-1-6.2-1.6-9.3-2.1h0c3.1,0.6,6.2,1.4,9.2,2.4c1.5,0.5,3,1.1,4.3,1.9
			c0.7,0.4,1.3,0.8,1.8,1.3c0.5,0.5,0.9,1.1,1,1.7c-2.3,1.2-4.7,2.4-7.1,3.5c-0.9-0.9-2-1.4-3.1-1.8c-1.1-0.4-2.3-0.7-3.5-0.8
			c-2.3-0.4-4.7-0.5-6.9-0.5c2.3,0.1,4.7,0.4,6.8,1c1.1,0.3,2.2,0.6,3.2,1.1c0.9,0.4,1.8,0.9,2.4,1.5c-4.7,2.3-9.4,4.7-14.1,7
			c4.8-2.3,9.6-4.5,14.4-6.8c0,0,0.1,0.1,0.1,0.1l0.3-0.3c1.4-0.7,2.8-1.3,4.2-2c0.3,1.2,0.4,2.4,0.3,3.7c-0.1,1.3-0.4,2.5-0.7,3.7
			c-0.4,1.2-0.8,2.4-1.3,3.6c-0.6,1.1-1.2,2.3-1.8,3.4c0.8-1.1,1.4-2.2,2-3.3c0.6-1.1,1.1-2.3,1.6-3.5c0.4-1.2,0.8-2.5,1-3.8
			c0.2-1.3,0.2-2.7-0.1-4l-1,0.3c4.5-2.1,8.9-4.3,13.3-6.6l1.2-0.6c0.7,1.7,1.1,3.6,1.4,5.5c0.2,1.9,0.3,3.9,0.2,5.8
			c-0.1,1.9-0.4,3.9-0.6,5.8c-0.4,1.9-0.8,3.8-1.4,5.6c0.6-1.8,1.2-3.7,1.6-5.6c0.4-1.9,0.7-3.8,0.8-5.8c0.1-2,0.1-3.9,0-5.9
			c-0.2-2-0.6-3.8-1.3-5.7l6.2-3.1l1.4-0.7c1,1.6,1.9,3.3,2.5,5.1c0.6,1.8,1.1,3.8,1.3,5.7c0.3,2,0.4,4,0.4,5.9c0.1,2,0,4.1-0.3,6v0
			c0.4-2,0.6-4,0.6-5.9c0.1-2,0-4-0.1-6c-0.2-2-0.6-4-1.1-5.9c-0.5-1.8-1.4-3.7-2.4-5.4l5.7-3l0.5-0.3l-0.3,0.7
			c1.9,0.9,3.3,2.9,4.3,4.9c1.1,2,1.8,4.2,2.4,6.4c0.6,2.2,1.1,4.4,1.5,6.7c0.4,2.2,0.6,4.4,0.8,6.7c-0.1-2.3-0.4-4.6-0.7-6.8
			s-0.8-4.5-1.3-6.8c-0.6-2.2-1.3-4.4-2.3-6.5c-0.5-1.1-1.1-2-1.8-3c-0.7-0.9-1.6-1.8-2.7-2.3l7.5-3.9l0.5-0.3
			c1.6,1.5,3.1,3.1,4.3,5c1.2,1.9,2.2,3.9,3,6c0.8,2.1,1.3,4.3,1.8,6.5c0.4,2.3,0.6,4.5,0.7,6.8c0-2.3-0.2-4.5-0.6-6.8
			c-0.4-2.3-0.8-4.4-1.6-6.6s-1.6-4.2-2.8-6.3c-1.1-1.9-2.4-3.6-3.9-5.1l6.3-3.5c0.6-0.3,1.3-0.7,1.9-1.1c1.4,0.9,2.6,2.3,3.6,3.7
			c1.1,1.6,2,3.2,2.8,4.8c1.6,3.4,3,6.8,4.2,10.4c-1.1-3.6-2.3-7.1-3.8-10.6c-0.8-1.7-1.6-3.4-2.6-5c-0.9-1.4-1.9-2.8-3.3-3.8
			c1.6-0.9,3.1-1.7,4.7-2.6l-0.1,0.4c1.6,0.4,3.2,1.6,4.6,2.8c1.4,1.2,2.8,2.5,4,4c2.5,2.8,4.8,5.8,6.9,8.9c-1.9-3.2-4-6.4-6.4-9.4
			c-1.2-1.5-2.5-3-3.8-4.2c-1.2-1.2-2.5-2.3-4.2-3c1.5-0.8,3-1.7,4.4-2.6l0.4,0.3c0.1-0.1,0.1-0.2,0.2-0.2c1.3,0.1,2.6,0.4,3.9,0.9
			c1.5,0.5,2.9,1.3,4.2,2c1.4,0.8,2.7,1.7,4,2.6c1.3,1,2.5,2,3.7,3v0c-1.1-1.1-2.3-2.2-3.6-3.2s-2.5-2-3.9-2.9
			c-1.3-0.9-2.8-1.7-4.2-2.4c-1-0.4-2-0.8-3-1c5.5-3.3,10.9-6.7,16.2-10.2c2.5-1.7,5-3.3,7.3-5.2l3.6-2.5c1.2-0.9,2.3-1.9,3.5-2.8
			c0.6-0.5,1.2-0.9,1.8-1.4l1.7-1.6l1.7-1.6c0.6-0.5,1.1-1.1,1.6-1.6c0.5-0.6,1.1-1.1,1.6-1.7l1.4-1.8c0.5-0.6,0.8-1.3,1.3-2
			c0.2-0.4,0.4-0.8,0.5-1.1c0.1-0.2,0.1-0.4,0.2-0.6l0.1-0.4c0-0.1,0-0.1,0-0.2s0-0.2,0-0.3L221.4,844.4z"/>
		<polygon class="st1" points="127.5,927.2 127.5,927.2 127.5,927.2 		"/>
		<path class="st1" d="M130.7,906.7l-1.1,0.4c0.5,1.6,0.9,3.3,1.1,5c0.1,1.7,0.1,3.5-0.1,5.2c-0.2,1.7-0.6,3.5-1.1,5.1
			c-0.4,1.7-1.1,3.3-1.9,4.9c0.8-1.6,1.6-3.2,2.2-4.8c0.6-1.6,1.1-3.4,1.4-5.1c0.4-1.8,0.5-3.5,0.4-5.3
			C131.5,910.3,131.2,908.5,130.7,906.7z"/>
		<path class="st1" d="M112.7,915.5c0.2,0.7,0.1,1.6-0.1,2.3c-0.2,0.8-0.5,1.5-0.9,2.1c-0.8,1.3-1.8,2.5-2.8,3.7
			c1.1-1.1,2.1-2.3,2.9-3.7c0.4-0.6,0.8-1.4,1-2.1c0.2-0.8,0.4-1.6,0.1-2.3L112.7,915.5z"/>
	</g>
</g>
<g>
	<path id="path84-3-9" inkscape:connector-curvature="0" class="st0" d="M104.6,780.5c-7,3.7-6-0.5-11.2,5.3c-3.8,3.2-4.1,2-9.3,5.2
		s-8.8,7.5-8.8,7.5s3.3,6.2,6.3,11.4c3,5.2,2.5,3.3,4.3,8c1.8,7.6,8.8,6.7,13.3,13.2c5,5.2,12.2,4.1,19.7,9
		c7.5,5.4,4.7,2.3,12.9,6.1c8.2,3.8,10.7,0.7,15.6,2c8.9,2,10.9,0.2,20.1,0c9.2-0.3,14.1-5.8,17.3-10.3s-1.7-12.6-1.7-12.6
		c10.9-4,10.2-11,9.5-16.4c-0.7-5.4,0.2-8.6-7.8-13.2c-8-4.7-9.8-9.1-18.5-11.6c-4.9-1.1-3.2-3.8-12.2-4.3s-17.1-3.1-26.4-1.8
		C118.6,778.8,120.4,774.1,104.6,780.5L104.6,780.5z"/>
	<g>
		<path class="st1" d="M230.4,848.7c0-0.1,0-0.2-0.1-0.2l-0.2-0.4c-0.1-0.2-0.3-0.4-0.4-0.6c-0.2-0.3-0.5-0.8-0.8-1.1
			c-0.6-0.6-1.2-1.3-1.9-1.9l-2-1.6c-0.7-0.5-1.4-0.9-2.1-1.4c-0.7-0.4-1.3-0.9-2.1-1.3l-2.2-1.2l-2.2-1.2c-0.7-0.4-1.5-0.7-2.2-1.1
			c-1.5-0.7-3-1.4-4.5-2.1l-4.5-1.8c-3-1.4-6.1-2.4-9.1-3.6c-6.6-2.4-13.2-4.6-19.9-6.7c1.1-0.5,2.1-1.2,3-1.9
			c1.4-1.1,2.7-2.3,3.9-3.6c1.2-1.3,2.3-2.6,3.4-4.1c1.1-1.5,2.1-2.9,3-4.4v0c-1,1.4-2.1,2.8-3.2,4.2c-1.2,1.3-2.3,2.6-3.6,3.8
			c-1.2,1.2-2.5,2.4-4,3.3c-1.2,0.8-2.5,1.5-3.9,1.9c-0.1-0.1-0.1-0.1-0.2-0.2l-0.3,0.4c-1.8-0.5-3.6-1.1-5.4-1.6
			c1.6-1.2,2.7-2.7,3.7-4.2c1.1-1.7,2.1-3.6,3-5.5c1.8-3.8,3.2-7.7,4.4-11.6c-1.5,3.9-3.1,7.7-5.1,11.2c-1,1.8-2.1,3.6-3.3,5.2
			c-1.1,1.6-2.6,3.2-4.2,4.1l0.2,0.4c-1.9-0.5-3.8-1.1-5.6-1.6c1.2-1.5,1.9-3.2,2.5-4.9c0.6-2,1.1-4,1.5-6c0.8-4.1,1.1-8.2,1.3-12.3
			h0c-0.4,4.1-0.9,8.2-1.8,12.2c-0.5,1.9-1,3.9-1.8,5.8c-0.7,1.8-1.6,3.5-2.9,4.8c-0.8-0.2-1.5-0.4-2.3-0.6l-7.7-2.1
			c1.2-2,2.2-4.2,2.9-6.5c0.7-2.5,1.1-4.9,1.3-7.4c0.2-2.5,0.2-5,0-7.5s-0.6-5-1.1-7.4c0.5,2.4,0.8,4.9,1,7.4c0,2.5,0,4.9-0.3,7.4
			c-0.3,2.5-0.8,4.8-1.6,7.2c-0.8,2.3-1.9,4.5-3.2,6.5l-0.7-0.2l-8.9-2.2c1-0.9,1.7-2,2.2-3.2c0.5-1.2,0.9-2.4,1.1-3.6
			c0.5-2.4,0.7-5,0.7-7.5c-0.1-2.5-0.2-5-0.4-7.5c-0.2-2.5-0.6-5-1-7.5c0.4,2.5,0.6,4.9,0.8,7.4c0.2,2.5,0.3,5,0.1,7.5
			c-0.1,2.5-0.3,5-0.9,7.4c-0.5,2.4-1.5,4.8-3.3,6.3l0.6,0.7l-0.6-0.1l-6.8-1.7c0.6-2.1,1-4.2,1.1-6.3c0.1-2.3,0-4.4-0.3-6.6
			c-0.4-2.1-0.8-4.3-1.4-6.4c-0.6-2.1-1.3-4.1-2.2-6.2v0c0.8,2,1.4,4.1,1.8,6.3c0.5,2.1,0.9,4.2,1.1,6.4c0.2,2.1,0.2,4.3,0,6.4
			c-0.2,2.1-0.6,4.1-1.3,6.1l-1.7-0.4l-7.4-1.7c0.2-2.2,0.1-4.3-0.1-6.4c-0.4-2.1-0.8-4.2-1.5-6.2c-0.7-2.1-1.4-4-2.4-5.9
			c-0.9-1.9-2-3.8-3.1-5.6c1.1,1.8,2.1,3.7,3,5.7c0.8,2,1.6,4,2.2,6c0.6,2,1,4.1,1.3,6.2c0.2,2.1,0.2,4.1-0.1,6.2l-1.4-0.3
			c-5.3-1.3-10.6-2.4-15.9-3.6l1.1,0c0-1.5-0.4-2.9-1-4.3c-0.5-1.4-1.3-2.6-2-3.8c-0.8-1.2-1.7-2.3-2.6-3.3c-1-1-1.9-2.1-3-3v0
			c1,1,1.9,2.1,2.8,3.1c0.8,1.2,1.7,2.3,2.4,3.5c0.7,1.3,1.3,2.5,1.7,3.8c0.4,1.3,0.6,2.6,0.6,4c-1.7-0.4-3.3-0.7-5-1.1l-0.4-0.2
			c0,0-0.1,0.1-0.1,0.1c-5.7-1.2-11.4-2.4-17-3.6c5.6,1.3,11.3,2.6,16.9,3.8c-0.6,0.8-1.3,1.6-2.2,2.3c-1,0.7-2.1,1.4-3.2,2
			c-2.2,1.2-4.6,2.1-7,2.8c2.4-0.6,4.9-1.3,7.2-2.3c1.2-0.5,2.4-1,3.5-1.8c1.1-0.7,2.1-1.5,2.8-2.7c2.8,0.6,5.6,1.3,8.4,1.9
			c0.1,0.7-0.1,1.4-0.6,2.1c-0.4,0.7-0.9,1.3-1.6,1.9c-1.2,1.2-2.6,2.2-4.1,3.1c-2.9,1.8-6,3.4-9.2,4.9c3.2-1.3,6.3-2.8,9.4-4.6
			c1.5-0.8,3-1.8,4.3-2.9c0.7-0.6,1.3-1.2,1.8-2c0.4-0.6,0.8-1.4,0.8-2.3c3.7,0.9,7.3,1.7,11,2.7l3.9,0.9c-0.2,0.9-0.7,1.8-1.3,2.6
			c-0.6,1-1.4,1.8-2.2,2.7c-1.7,1.7-3.4,3.2-5.3,4.6c-3.8,2.9-7.8,5.5-12,7.7v0c4.3-2.1,8.4-4.4,12.4-7.1c1.9-1.3,3.9-2.8,5.6-4.5
			c0.9-0.9,1.7-1.8,2.4-2.7c0.7-0.9,1.3-1.9,1.6-3.1l4.4,1.1l6.7,1.8l-0.3,0c0.2,1.1,0,2.3-0.3,3.5c-0.3,1.2-0.8,2.3-1.3,3.5
			c-1.1,2.2-2.4,4.4-3.8,6.5c-1.4,2.1-3,4.1-4.6,6.1c-1.6,2-3.3,3.9-5,5.7c1.8-1.8,3.6-3.6,5.3-5.6c1.7-1.8,3.3-3.8,4.9-5.9
			c1.6-2.1,3.1-4.2,4.3-6.4c0.7-1.2,1.2-2.4,1.6-3.6c0.4-1.1,0.6-2.3,0.5-3.5l1.6,0.4l5.4,1.4l0.1,1.3l0,0.9l0,0.8
			c0,0.6,0,1.1-0.1,1.7l-0.2,1.6c-0.4,2.2-0.9,4.4-1.8,6.5c-0.8,2.1-1.9,4.2-3,6.1c-1.1,1.9-2.4,3.8-3.9,5.6v0
			c1.6-1.7,3-3.4,4.1-5.3c1.3-2,2.4-3.9,3.3-6c1-2.1,1.7-4.3,2.2-6.6l0.4-1.7c0.1-0.6,0.1-1.1,0.2-1.7l0.1-0.9l0-0.9l0-0.9l2.6,0.7
			l5.5,1.6c0.3,2.2,0,4.6-0.6,6.8c-0.5,2.4-1.3,4.6-2.1,6.9c-1.6,4.5-3.6,8.9-5.8,13.2v0c2.3-4.2,4.5-8.6,6.2-13
			c1-2.2,1.8-4.6,2.4-6.9c0.6-2.1,1.1-4.3,0.9-6.7l2.8,0.8c1.2,0.3,2.4,0.7,3.7,1.1c0.5,2,0.5,4.2,0.3,6.3c-0.2,2.3-0.6,4.6-1.1,6.9
			c-0.6,2.3-1.2,4.5-2,6.7s-1.6,4.4-2.5,6.5c1-2.1,1.9-4.3,2.7-6.5s1.6-4.4,2.1-6.6c0.7-2.2,1.1-4.5,1.4-6.9c0.2-2,0.3-4.1-0.1-6.1
			c1.6,0.5,3.2,1,4.8,1.4l-0.1,0.2c0.6,0.3,1.1,1,1.5,1.8c0.5,0.8,0.8,1.5,1.1,2.4c0.6,1.7,1.2,3.5,1.5,5.3s0.6,3.7,0.9,5.5
			c0.1,0.9,0.2,1.9,0.2,2.8c-0.1,0.4,0,0.9-0.1,1.4c0,0.5,0,1-0.3,1.3c0.2-0.3,0.4-0.8,0.4-1.4c0.1-0.4,0.1-0.9,0.1-1.4
			c0.1-0.9,0.1-1.9,0-2.8c-0.1-1.9-0.2-3.8-0.5-5.6s-0.6-3.7-1.2-5.5c-0.3-0.9-0.6-1.8-1-2.7c-0.1-0.2-0.2-0.4-0.3-0.6
			c1.7,0.5,3.4,1.1,5.1,1.6c0.5,0.5,1,1.1,1.4,1.7c0.8,1.1,1.4,2.4,2,3.6c0.5,1.2,0.9,2.6,1.3,3.9c0.3,1.4,0.7,2.7,0.8,4.1
			c-0.1-1.3-0.3-2.7-0.5-4.1c-0.3-1.4-0.6-2.7-1.1-4c-0.5-1.3-1-2.6-1.7-3.9c-0.1-0.2-0.3-0.4-0.4-0.6c6.2,2.1,12.4,4.3,18.5,6.6
			c3,1.2,6.1,2.4,9,3.7l4.4,2c1.5,0.8,2.9,1.4,4.4,2.2c0.7,0.3,1.4,0.7,2.2,1.1l2.1,1.2l2.1,1.2c0.7,0.4,1.3,0.9,2,1.3
			c0.7,0.5,1.4,0.9,2,1.3l1.8,1.5c0.6,0.5,1.1,1.1,1.7,1.6l0.6,0.9c0.1,0.1,0.2,0.3,0.3,0.4l0.1,0.2l2.3-0.6
			C230.4,848.9,230.4,848.8,230.4,848.7z"/>
		<polygon class="st1" points="115.5,784.2 115.5,784.2 115.5,784.2 		"/>
		<path class="st1" d="M112.6,795.2c0.7,1.8,1.2,3.7,1.5,5.5s0.3,3.8,0.2,5.6l1.2,0.1c0.1-2,0-4.1-0.5-5.9c-0.4-1.9-1-3.7-1.8-5.5
			c-0.8-1.7-1.7-3.5-2.8-5.1c-1-1.6-2.3-3.1-3.6-4.6c1.3,1.4,2.4,3,3.3,4.7C111,791.7,111.9,793.5,112.6,795.2z"/>
		<path class="st1" d="M93.4,799.3c0.4,0.7,0.7,1.6,0.7,2.4l0.2,0c0-0.9-0.3-1.7-0.7-2.4c-0.4-0.7-1-1.4-1.6-2
			c-1.2-1.2-2.6-2.2-4-3.2h0c1.4,0.9,2.8,2,4,3.2C92.5,797.8,93,798.5,93.4,799.3z"/>
	</g>
</g>
</svg>
