<?xml version="1.0" encoding="UTF-8" standalone="no"?>
<svg
   xmlns:dc="http://purl.org/dc/elements/1.1/"
   xmlns:cc="http://creativecommons.org/ns#"
   xmlns:rdf="http://www.w3.org/1999/02/22-rdf-syntax-ns#"
   xmlns:svg="http://www.w3.org/2000/svg"
   xmlns="http://www.w3.org/2000/svg"
   xmlns:sodipodi="http://sodipodi.sourceforge.net/DTD/sodipodi-0.dtd"
   xmlns:inkscape="http://www.inkscape.org/namespaces/inkscape"
   version="1.1"
   x="0px"
   y="0px"
   viewBox="0 0 83.999992 68.000031"
   id="svg10"
   sodipodi:docname="menu.svg"
   width="83.999992"
   height="68.000031"
   inkscape:version="0.92.1 r15371">
  <metadata
     id="metadata16">
    <rdf:RDF>
      <cc:Work
         rdf:about="">
        <dc:format>image/svg+xml</dc:format>
        <dc:type
           rdf:resource="http://purl.org/dc/dcmitype/StillImage" />
        <dc:title></dc:title>
      </cc:Work>
    </rdf:RDF>
  </metadata>
  <defs
     id="defs14" />
  <sodipodi:namedview
     pagecolor="#ffffff"
     bordercolor="#666666"
     borderopacity="1"
     objecttolerance="10"
     gridtolerance="10"
     guidetolerance="10"
     inkscape:pageopacity="0"
     inkscape:pageshadow="2"
     inkscape:window-width="1920"
     inkscape:window-height="1017"
     id="namedview12"
     showgrid="false"
     fit-margin-top="0"
     fit-margin-left="0"
     fit-margin-right="0"
     fit-margin-bottom="0"
     inkscape:zoom="1.888"
     inkscape:cx="41.999998"
     inkscape:cy="21.50002"
     inkscape:window-x="-8"
     inkscape:window-y="-8"
     inkscape:window-maximized="1"
     inkscape:current-layer="svg10" />
  <g
     transform="translate(-8.000002,-968.36217)"
     id="g4"
     style="fill:#354093;fill-opacity:1">
    <path
       d="m 14.000002,968.36217 c -3.3137,0 -6,2.68619 -6,6 0,3.31359 2.6863,6 6,6 h 71.999996 c 3.3137,0 6,-2.68641 6,-6 0,-3.31381 -2.6863,-6 -6,-6 z m 0,28.00003 c -3.3137,0 -6,2.6862 -6,6 0,3.3136 2.6863,6 6,6 h 71.999996 c 3.3137,0 6,-2.6864 6,-6 0,-3.3138 -2.6863,-6 -6,-6 z m 0,28 c -3.3137,0 -6,2.6862 -6,6 0,3.3136 2.6863,6 6,6 h 71.999996 c 3.3137,0 6,-2.6864 6,-6 0,-3.3138 -2.6863,-6 -6,-6 z"
       style="color:#000000;text-indent:0;text-transform:none;direction:ltr;baseline-shift:baseline;display:inline;overflow:visible;visibility:visible;fill:#354093;fill-opacity:1;stroke:none;enable-background:accumulate"
       marker="none"
       visibility="visible"
       display="inline"
       overflow="visible"
       id="path2"
       inkscape:connector-curvature="0" />
  </g>
</svg>
